{
.appVersion = "3151";
.formatVersion = 3;
DisplayStrings = (
"anmoxdh'neoBdhnonhnojiTtjhononomza
AHKDHSION",
nnnannbnncnndnnennfnnngnnnhnninnjnnknnnlnn,
I,
"æa ",
"+!.?,;?",
E,
L,
"§¢@$€£¥",
WY,
A,
b,
g,
"œ",
p,
q,
"þ",
"@",
"¶",
"ª",
"/OE.ss01",
"Æ",
F,
"EĘ",
"Ę",
"*",
l,
j,
"ł",
"ľ",
"+",
"ħ",
R,
"Ě",
"Ð",
"É",
"æ",
S,
s,
c,
"/w.ss02",
w,
C
);
customParameters = (
{
name = glyphOrder;
value = (
A,
Aacute,
Abreve,
Acircumflex,
Adieresis,
Agrave,
Amacron,
Aogonek,
Aring,
Atilde,
AE,
B,
C,
Cacute,
Ccaron,
Ccedilla,
Cdotaccent,
D,
Dcaron,
Dcroat,
Eth,
E,
Eacute,
Ecaron,
Ecircumflex,
Edieresis,
Edotaccent,
Egrave,
Emacron,
Eogonek,
F,
G,
Gbreve,
Gcommaaccent,
Gdotaccent,
H,
Hbar,
I,
Iacute,
Icircumflex,
Idieresis,
Idotaccent,
Igrave,
Imacron,
Iogonek,
J,
K,
Kcommaaccent,
L,
Lacute,
Lcaron,
Lcommaaccent,
Lslash,
M,
N,
Nacute,
Ncaron,
Ncommaaccent,
Ntilde,
Eng,
O,
Oacute,
Ocircumflex,
Odieresis,
Ograve,
Ohungarumlaut,
Omacron,
Oslash,
Otilde,
OE,
P,
Thorn,
Q,
R,
Racute,
Rcaron,
Rcommaaccent,
S,
Sacute,
Scaron,
Scedilla,
Scommaaccent,
Germandbls,
T,
Tcaron,
Tcommaaccent,
U,
Uacute,
Ubreve,
Ucircumflex,
Udieresis,
Ugrave,
Uhungarumlaut,
Umacron,
Uogonek,
Uring,
V,
W,
Wacute,
Wcircumflex,
Wdieresis,
Wgrave,
X,
Y,
Yacute,
Ycircumflex,
Ydieresis,
Ygrave,
Z,
Zacute,
Zcaron,
Zdotaccent,
a,
aacute,
abreve,
acircumflex,
adieresis,
agrave,
amacron,
aogonek,
aring,
atilde,
ae,
b,
c,
cacute,
ccaron,
ccedilla,
cdotaccent,
d,
dcaron,
dcroat,
eth,
e,
eacute,
ecaron,
ecircumflex,
edieresis,
edotaccent,
egrave,
emacron,
eogonek,
f,
g,
gbreve,
gcommaaccent,
gdotaccent,
h,
hbar,
i,
idotless,
iacute,
icircumflex,
idieresis,
idotaccent,
igrave,
imacron,
iogonek,
j,
jdotless,
k,
kcommaaccent,
l,
lacute,
lcaron,
lcommaaccent,
lslash,
m,
n,
nacute,
ncaron,
ncommaaccent,
ntilde,
eng,
o,
oacute,
ocircumflex,
odieresis,
ograve,
ohungarumlaut,
omacron,
oslash,
otilde,
oe,
p,
thorn,
q,
r,
racute,
rcaron,
rcommaaccent,
s,
sacute,
scaron,
scedilla,
scommaaccent,
germandbls,
t,
tcaron,
tcommaaccent,

glyphs = (
{
color = 10;
glyphname = A;
lastChange = "2023-11-16 22:13:59 +0000";
layers = (
{
anchors = (
{
name = bottom;
pos = (436,0);
},
{
name = ogonek;
pos = (790,10);
},
{
name = top;
pos = (436,800);
}
);
layerId = "49F060A0-2273-4F54-8B81-08E0B15B03EC";
shapes = (
{
closed = 1;
nodes = (
(421,290,o),
(401,290,o),
(395,290,cs),
(367,290,o),
(337,294,o),
(337,330,cs),
(337,355,o),
(339,456,o),
(447,456,cs),
(555,456,o),
(557,355,o),
(557,330,cs),
(557,303,o),
(542,290,o),
(502,290,cs),
(448,290,ls)
);
},
{
closed = 1;
nodes = (
(357,8,o),
(364,36,o),
(355,67,cs),
(351,81,o),
(339,123,o),
(339,143,cs),
(339,161,o),
(354,182,o),
(395,182,cs),
(460,182,o),
(488,182,o),
(496,182,cs),
(524,182,o),
(555,171,o),
(555,143,cs),
(555,123,o),
(543,81,o),
(539,67,cs),
(530,36,o),
(537,8,o),
(563,-7,cs),
(591,-22,o),
(614,-7,o),
(639,15,cs),
(713,81,o),
(847,255,o),
(847,462,cs),
(847,660,o),
(672,804,o),
(448,804,cs),
(446,804,ls),
(222,804,o),
(47,660,o),
(47,462,cs),
(47,255,o),
(181,81,o),
(255,15,cs),
(280,-7,o),
(303,-22,o),
(331,-7,cs)
);
}
);
width = 872;
}
);
unicode = 65;
},
{
glyphname = Aacute;
lastChange = "2023-11-16 22:13:59 +0000";
layers = (
{
anchors = (
{
name = top;
pos = (425,811);
}
);
layerId = "49F060A0-2273-4F54-8B81-08E0B15B03EC";
shapes = (
{
ref = A;
},
{
closed = 1;
nodes = (
(488,890,o),
(435,865,o),
(391,859,cs),
(361,855,o),
(332,857,o),
(319,882,cs),
(303,914,o),
(323,938,o),
(363,958,cs),
(428,991,o),
(433,1044,o),
(479,1070,cs),
(509,1087,o),
(544,1082,o),
(569,1049,cs),
(600,1008,o),
(581,960,o),
(528,920,cs)
);
}
);
width = 872;
}
);
unicode = 193;
},
{
glyphname = Abreve;
lastChange = "2023-11-16 22:13:59 +0000";
layers = (
{
anchors = (
{
name = top;
pos = (437,1075);
}
);
hints = (
{
horizontal = 1;
place = (869, 195);
place = (869, 195);
type = Stem;
},
{
place = (217, 407);
place = (217, 407);
type = Stem;
}
);
layerId = "49F060A0-2273-4F54-8B81-08E0B15B03EC";
shapes = (
{
ref = A;
},
{
closed = 1;
nodes = (
(307,837,o),
(227,873,o),
(199,940,cs),
(174,1002,o),
(193,1059,o),
(245,1076,cs),
(278,1088,o),
(310,1072,o),
(321,1041,cs),
(327,1024,o),
(329,998,o),
(335,976,cs),
(352,915,o),
(389,903,o),
(438,903,cs),
(486,903,o),
(522,915,o),
(539,976,cs),
(547,1006,o),
(549,1026,o),
(553,1041,cs),
(563,1072,o),
(594,1087,o),
(628,1076,cs),
(681,1059,o),
(700,1002,o),
(675,939,cs),
(647,871,o),
(563,837,o),
(438,837,cs)
);
}
);
width = 872;
}
);
unicode = 258;
},
{
glyphname = Acircumflex;
lastChange = "2023-11-16 22:13:59 +0000";
layers = (
{
anchors = (
{
name = top;
pos = (430,1076);
}
);
layerId = "49F060A0-2273-4F54-8B81-08E0B15B03EC";
shapes = (
{
ref = A;
},
{
closed = 1;
nodes = (
(444,927,o),
(435,918,o),
(411,901,cs),
(358,862,l),
(324,838,o),
(299,820,o),
(280,838,cs),
(265,854,o),
(279,873,o),
(297,911,cs),
(310,936,o),
(327,968,o),
(347,1003,cs),
(374,1051,o),
(410,1081,o),
(454,1081,cs),
(498,1081,o),
(534,1051,o),
(561,1003,cs),
(581,968,o),
(598,936,o),
(611,911,cs),
(629,873,o),
(643,854,o),
(628,838,cs),
(609,820,o),
(584,838,o),
(550,862,cs),
(537,872,o),
(513,889,o),
(492,904,cs),
(474,917,o),
(464,927,o),
(454,927,cs)
);
}
);
width = 872;
},
{
anchors = (
{
name = _top;
pos = (436,1039);
}
);
associatedMasterId = "49F060A0-2273-4F54-8B81-08E0B15B03EC";
layerId = "7002ED80-2CE0-475E-9D40-5767B02273F6";
name = "2 Nov 23 at 05:38";
shapes = (
{
ref = A;
},
{
closed = 1;
nodes = (
(452,921,o),
(464,915,o),
(486,893,cs),
(530,847,o),
(562,827,o),
(584,827,cs),
(600,827,o),
(608,841,o),
(608,855,cs),
(608,896,o),
(590,929,o),
(549,974,cs),
(509,1018,o),
(464,1039,o),
(436,1039,cs),
(407,1039,o),
(362,1018,o),
(322,974,cs),
(281,929,o),
(263,896,o),
(263,855,cs),
(263,841,o),
(271,827,o),
(287,827,cs),
(309,827,o),
(341,847,o),
(385,893,cs),
(407,915,o),
(419,921,o),
(436,921,cs)
);
}
);
width = 886;
}
);
unicode = 194;
},
{
glyphname = Adieresis;
lastChange = "2023-11-16 22:13:59 +0000";
layers = (
{
anchors = (
{
name = top;
pos = (455,1082);
}
);
layerId = "49F060A0-2273-4F54-8B81-08E0B15B03EC";
shapes = (
{
ref = A;
},
{
closed = 1;
nodes = (
(281,961,o),
(311,932,o),
(357,932,cs),
(403,932,o),
(433,961,o),
(433,1006,cs),
(433,1050,o),
(403,1078,o),
(357,1078,cs),
(311,1078,o),
(281,1050,o),
(281,1006,cs)
);
},
{
closed = 1;
nodes = (
(477,961,o),
(507,932,o),
(553,932,cs),
(599,932,o),
(629,961,o),
(629,1006,cs),
(629,1050,o),
(599,1078,o),
(553,1078,cs),
(507,1078,o),
(477,1050,o),
(477,1006,cs)
);
}
);
width = 872;
}
);
unicode = 196;
},
{
glyphname = Agrave;
lastChange = "2023-11-16 22:13:59 +0000";
layers = (
{
anchors = (
{
name = top;
pos = (394,1086);
}
);
layerId = "49F060A0-2273-4F54-8B81-08E0B15B03EC";
shapes = (
{
ref = A;
},
{
closed = 1;
nodes = (
(303,961,o),
(284,1009,o),
(315,1050,cs),
(340,1083,o),
(375,1088,o),
(405,1071,cs),
(451,1045,o),
(456,992,o),
(521,959,cs),
(561,939,o),
(581,915,o),
(565,883,cs),
(552,858,o),
(523,856,o),
(493,860,cs),
(449,866,o),
(396,891,o),
(356,921,cs)
);
}
);
width = 872;
}
);
unicode = 192;
},
{
glyphname = Amacron;
lastChange = "2023-11-16 22:13:59 +0000";
layers = (
{
anchors = (
{
name = top;
pos = (428,1082);
}
);
layerId = "49F060A0-2273-4F54-8B81-08E0B15B03EC";
shapes = (
{
ref = A;
},
{
closed = 1;
nodes = (
(237,918,o),
(199,951,o),
(199,998,cs),
(199,1043,o),
(235,1079,o),
(363,1079,cs),
(470,1079,o),
(555,1065,o),
(577,1061,cs),
(663,1044,o),
(690,1029,o),
(690,1003,cs),
(690,977,o),
(660,957,o),
(583,941,cs),
(547,933,o),
(461,918,o),
(367,918,cs)
);
}
);
width = 872;
}
);
unicode = 256;
},
{
glyphname = Aogonek;
lastChange = "2023-11-16 22:13:59 +0000";
layers = (
{
anchors = (
{
name = "botto=";
pos = (407,-19);
}
);
layerId = "49F060A0-2273-4F54-8B81-08E0B15B03EC";
shapes = (
{
ref = A;
},
{
closed = 1;
nodes = (
(627,-176,o),
(638,-168,o),
(638,-156,cs),
(638,-144,o),
(627,-137,o),
(610,-137,cs),
(582,-137,o),
(566,-127,o),
(566,-107,cs),
(566,-94,o),
(579,-83,o),
(590,-74,cs),
(611,-56,o),
(621,-34,o),
(596,-10,cs),
(577,8,o),
(542,1,o),
(516,-28,cs),
(479,-70,o),
(485,-123,o),
(522,-156,cs),
(545,-177,o),
(573,-184,o),
(611,-178,c)
);
}
);
width = 872;
}
);
unicode = 260;
},
{
glyphname = Aring;
lastChange = "2023-11-16 22:13:59 +0000";
layers = (
{
anchors = (
{
name = top;
pos = (438,1082);
}
);
layerId = "49F060A0-2273-4F54-8B81-08E0B15B03EC";
shapes = (
{
closed = 1;
nodes = (
(310,400,o),
(373,434,o),
(437,434,cs),
(500,434,o),
(562,400,o),
(562,334,cs),
(562,319,o),
(559,297,o),
(545,282,cs),
(528,264,o),
(489,251,o),
(441,251,cs),
(395,251,o),
(348,263,o),
(329,281,cs),
(317,292,o),
(310,309,o),
(310,332,cs)
);
},
{
closed = 1;
nodes = (
(740,71,o),
(849,317,o),
(849,471,cs),
(849,667,o),
(671,817,o),
(436,817,cs),
(205,817,o),
(23,671,o),
(23,468,cs),
(23,317,o),
(124,80,o),
(269,1,cs),
(289,-10,o),
(304,-14,o),
(315,-14,cs),
(359,-14,o),
(356,42,o),
(346,81,cs),
(341,102,o),
(329,137,o),
(329,150,cs),
(329,160,o),
(335,169,o),
(349,175,cs),
(363,181,o),
(399,190,o),
(438,190,cs),
(467,190,o),
(499,185,o),
(523,175,cs),
(540,168,o),
(544,161,o),
(544,153,cs),
(544,137,o),
(530,102,o),
(526,81,cs),
(518,35,o),
(513,-14,o),
(557,-14,cs),
(568,-14,o),
(584,-10,o),
(603,0,cs)
);
},
{
closed = 1;
nodes = (
(499,850,o),
(552,901,o),
(552,968,cs),
(552,1032,o),
(499,1083,o),
(438,1083,cs),
(377,1083,o),
(321,1032,o),
(321,967,cs),
(321,901,o),
(377,850,o),
(436,850,cs)
);
},
{
closed = 1;
nodes = (
(411,884,o),
(394,907,o),
(394,937,cs),
(394,968,o),
(411,991,o),
(436,991,cs),
(462,991,o),
(479,968,o),
(479,937,cs),
(479,907,o),
(462,884,o),
(436,884,cs)
);
}
);
width = 872;
}
);
unicode = 197;
},
{
glyphname = Atilde;
lastChange = "2023-11-16 22:13:59 +0000";
layers = (
{
hints = (
{
horizontal = 1;
place = (916, 84);
place = (916, 84);
type = Stem;
},
{
horizontal = 1;
place = (860, 84);
place = (860, 84);
type = Stem;
},
{
place = (263, 332);
place = (263, 332);
type = Stem;
}
);
layerId = "49F060A0-2273-4F54-8B81-08E0B15B03EC";
shapes = (
{
ref = A;
},
{
closed = 1;
nodes = (
(483,871,o),
(562,853,o),
(624,891,cs),
(693,934,o),
(710,984,o),
(675,1042,cs),
(632,1109,o),
(602,1062,o),
(538,1015,cs),
(514,1003,o),
(496,1001,o),
(483,1011,cs),
(388,1086,o),
(309,1104,o),
(247,1065,cs),
(178,1024,o),
(162,973,o),
(198,915,cs),
(218,882,o),
(244,876,o),
(278,895,cs),
(292,904,o),
(320,931,o),
(334,940,cs),
(355,953,o),
(373,955,o),
(388,945,cs)
);
}
);
width = 872;
}
);
unicode = 195;
},
{
glyphname = AE;
lastChange = "2023-11-16 22:13:59 +0000";
layers = (
{
layerId = "49F060A0-2273-4F54-8B81-08E0B15B03EC";
shapes = (
{
closed = 1;
nodes = (
(311,400,o),
(373,434,o),
(437,434,cs),
(500,434,o),
(561,400,o),
(561,334,cs),
(561,319,o),
(558,298,o),
(544,283,cs),
(527,265,o),
(489,252,o),
(441,252,cs),
(395,252,o),
(349,264,o),
(330,282,cs),
(318,293,o),
(311,310,o),
(311,332,cs)
);
},
{
closed = 1;
nodes = (
(738,73,o),
(847,318,o),
(847,471,cs),
(847,665,o),
(670,815,o),
(436,815,cs),
(206,815,o),
(25,669,o),
(25,468,cs),
(25,318,o),
(126,82,o),
(270,3,cs),
(290,-8,o),
(305,-11,o),
(316,-11,cs),
(359,-11,o),
(356,44,o),
(347,83,cs),
(342,104,o),
(330,139,o),
(330,152,cs),
(330,161,o),
(336,170,o),
(350,176,cs),
(363,182,o),
(399,191,o),
(438,191,cs),
(467,191,o),
(499,186,o),
(522,176,cs),
(539,169,o),
(543,162,o),
(543,154,cs),
(543,139,o),
(529,104,o),
(525,83,cs),
(518,37,o),
(513,-11,o),
(556,-11,cs),
(567,-11,o),
(583,-8,o),
(602,2,c)
);
},
{
closed = 1;
nodes = (
(906,241,o),
(946,229,o),
(983,229,cs),
(1028,229,o),
(1061,241,o),
(1061,284,cs),
(1061,327,o),
(1028,339,o),
(983,339,cs),
(946,339,o),
(906,332,o),
(861,339,cs),
(848,341,o),
(839,348,o),
(839,360,cs),
(839,435,o),
(916,479,o),
(981,479,cs),
(1041,479,o),
(1083,449,o),
(1139,449,cs),
(1235,449,o),
(1298,527,o),
(1298,600,cs),
(1298,747,o),
(1167,815,o),
(1016,815,cs),
(810,815,o),
(566,688,o),
(566,402,cs),
(566,160,o),
(765,-11,o),
(984,-11,cs),
(1043,-11,o),
(1105,0,o),
(1143,17,cs),
(1206,47,o),
(1220,85,o),
(1206,117,cs),
(1195,142,o),
(1154,170,o),
(1108,139,cs),
(1067,110,o),
(1041,94,o),
(995,94,cs),
(921,94,o),
(839,135,o),
(839,212,cs),
(839,224,o),
(848,231,o),
(861,233,cs)
);
}
);
width = 1320;
}
);
unicode = 198;
},
{
color = 10;
glyphname = B;
lastChange = "2023-11-16 22:13:59 +0000";
layers = (
{
layerId = "49F060A0-2273-4F54-8B81-08E0B15B03EC";
shapes = (
{
closed = 1;
nodes = (
(592,278,o),
(592,286,cs),
(592,294,o),
(599,299,o),
(606,300,cs),
(615,301,o),
(827,325,o),
(827,518,cs),
(827,688,o),
(664,812,o),
(457,812,cs),
(212,812,o),
(43,637,o),
(43,405,cs),
(43,165,o),
(223,-14,o),
(453,-14,cs),
(599,-14,o),
(719,67,o),
(719,168,cs),
(719,228,o),
(677,269,o),
(615,272,cs),
(612,272,o),
(609,272,o),
(607,272,cs),
(599,272,o)
);
},
{
closed = 1;
nodes = (
(396,96,o),
(366,114,o),
(366,137,cs),
(366,161,o),
(396,179,o),
(433,179,cs),
(469,179,o),
(499,161,o),
(499,137,cs),
(499,114,o),
(469,96,o),
(433,96,cs)
);
},
{
closed = 1;
nodes = (
(377,231,o),
(276,232,o),
(276,310,cs),
(276,352,o),
(313,400,o),
(366,430,cs),
(428,465,o),
(535,468,o),
(535,390,cs),
(535,353,o),
(505,306,o),
(450,274,cs)
);
}
);
width = 861;
}
);
unicode = 66;
},
{
color = 10;
glyphname = C;
lastChange = "2023-11-16 22:13:59 +0000";
layers = (
{
layerId = "49F060A0-2273-4F54-8B81-08E0B15B03EC";
shapes = (
{
closed = 1;
nodes = (
(749,744,o),
(618,812,o),
(467,812,cs),
(247,812,o),
(17,685,o),
(17,399,cs),
(17,157,o),
(216,-14,o),
(435,-14,cs),
(494,-14,o),
(556,-3,o),
(594,14,cs),
(657,44,o),
(671,82,o),
(657,114,cs),
(646,139,o),
(605,167,o),
(559,136,cs),
(518,107,o),
(492,91,o),
(435,91,cs),
(350,91,o),
(280,132,o),
(280,260,cs),
(280,340,o),
(344,426,o),
(432,426,cs),
(492,426,o),
(534,396,o),
(590,396,cs),
(686,396,o),
(749,474,o),
(749,585,cs)
);
}
);
width = 768;
}
);
unicode = 67;
},
{
glyphname = Cacute;
lastChange = "2023-11-16 22:13:59 +0000";
layers = (
{
layerId = "49F060A0-2273-4F54-8B81-08E0B15B03EC";
shapes = (
{
ref = C;
},
{
closed = 1;
nodes = (
(469,891,o),
(416,866,o),
(372,860,cs),
(342,856,o),
(313,858,o),
(300,883,cs),
(284,915,o),
(304,939,o),
(344,959,cs),
(409,992,o),
(414,1045,o),
(460,1071,cs),
(490,1088,o),
(525,1083,o),
(550,1050,cs),
(581,1009,o),
(562,961,o),
(509,921,cs)
);
}
);
width = 768;
}
);
unicode = 262;
},
{
glyphname = Ccaron;
lastChange = "2023-11-16 22:13:59 +0000";
layers = (
{
anchors = (
{
name = top;
pos = (424,1071);
}
);
layerId = "49F060A0-2273-4F54-8B81-08E0B15B03EC";
shapes = (
{
ref = C;
},
{
closed = 1;
nodes = (
(390,984,o),
(378,990,o),
(356,1012,cs),
(312,1058,o),
(280,1078,o),
(258,1078,cs),
(242,1078,o),
(234,1064,o),
(234,1050,cs),
(234,1009,o),
(252,976,o),
(293,931,cs),
(333,887,o),
(378,866,o),
(407,866,cs),
(435,866,o),
(480,887,o),
(520,931,cs),
(561,976,o),
(579,1009,o),
(579,1050,cs),
(579,1064,o),
(571,1078,o),
(555,1078,cs),
(533,1078,o),
(501,1058,o),
(457,1012,cs),
(435,990,o),
(423,984,o),
(407,984,cs)
);
}
);
width = 768;
}
);
unicode = 268;
},
{
glyphname = Ccedilla;
lastChange = "2023-11-16 22:13:59 +0000";
layers = (
{
anchors = (
{
name = bottom;
pos = (393,-24);
}
);
layerId = "49F060A0-2273-4F54-8B81-08E0B15B03EC";
shapes = (
{
ref = C;
},
{
closed = 1;
nodes = (
(481,-107,o),
(480,-94,o),
(476,-82,cs),
(460,-32,o),
(406,-8,o),
(378,-26,cs),
(368,-33,o),
(355,-46,o),
(355,-66,cs),
(355,-81,o),
(363,-89,o),
(373,-94,cs),
(384,-100,o),
(397,-102,o),
(406,-108,cs),
(411,-112,o),
(415,-118,o),
(415,-126,cs),
(415,-136,o),
(404,-144,o),
(379,-144,cs),
(366,-144,o),
(358,-149,o),
(358,-160,cs),
(358,-174,o),
(370,-177,o),
(390,-177,cs),
(407,-177,o),
(428,-175,o),
(444,-169,cs),
(466,-160,o),
(481,-144,o),
(481,-115,c)
);
}
);
width = 768;
}
);
unicode = 199;
},
{
glyphname = Cdotaccent;
lastChange = "2023-11-16 22:13:59 +0000";
layers = (
{
anchors = (
{
name = top;
pos = (433,1071);
}
);
layerId = "49F060A0-2273-4F54-8B81-08E0B15B03EC";
shapes = (
{
closed = 1;
nodes = (
(350,960,o),
(380,931,o),
(426,931,cs),
(472,931,o),
(502,960,o),
(502,1005,cs),
(502,1049,o),
(472,1077,o),
(426,1077,cs),
(380,1077,o),
(350,1049,o),
(350,1005,cs)
);
},
{
ref = C;
}
);
width = 768;
}
);
unicode = 266;
},
{
color = 10;
glyphname = D;
lastChange = "2023-11-16 22:13:59 +0000";
layers = (
{
layerId = "49F060A0-2273-4F54-8B81-08E0B15B03EC";
shapes = (
{
closed = 1;
nodes = (
(606,-11,o),
(773,205,o),
(773,438,cs),
(773,689,o),
(580,815,o),
(314,815,cs),
(96,815,o),
(33,731,o),
(33,439,cs),
(33,112,o),
(112,-11,o),
(324,-11,cs)
);
},
{
closed = 1;
nodes = (
(208,94,o),
(190,179,o),
(190,286,cs),
(190,397,o),
(209,457,o),
(310,457,cs),
(411,457,o),
(464,400,o),
(464,294,cs),
(464,174,o),
(394,94,o),
(302,94,c)
);
}
);
width = 791;
}
);
unicode = 68;
},
{
glyphname = Dcaron;
lastChange = "2023-11-16 22:13:59 +0000";
layers = (
{
anchors = (
{
name = top;
pos = (328,1082);
}
);
layerId = "49F060A0-2273-4F54-8B81-08E0B15B03EC";
shapes = (
{
ref = D;
},
{
closed = 1;
nodes = (
(346,988,o),
(356,997,o),
(374,1010,cs),
(395,1025,o),
(419,1043,o),
(432,1053,cs),
(466,1077,o),
(491,1095,o),
(510,1077,cs),
(525,1061,o),
(511,1042,o),
(493,1004,cs),
(480,979,o),
(463,947,o),
(443,912,cs),
(416,864,o),
(380,834,o),
(336,834,cs),
(292,834,o),
(256,864,o),
(229,912,cs),
(209,947,o),
(192,979,o),
(179,1004,cs),
(161,1042,o),
(147,1061,o),
(162,1077,cs),
(181,1095,o),
(206,1077,o),
(240,1053,c),
(293,1014,ls),
(317,997,o),
(326,988,o),
(336,988,cs)
);
}
);
width = 791;
}
);
unicode = 270;
},
{
glyphname = Dcroat;
lastChange = "2023-11-16 22:13:59 +0000";
layers = (
{
layerId = "49F060A0-2273-4F54-8B81-08E0B15B03EC";
shapes = (
{
closed = 1;
nodes = (
(751,-11,o),
(918,205,o),
(918,438,cs),
(918,689,o),
(725,815,o),
(459,815,cs),
(186,815,o),
(178,653,o),
(178,404,cs),
(178,396,o),
(175,390,o),
(167,390,cs),
(39,390,o),
(3,354,o),
(3,309,cs),
(3,262,o),
(41,229,o),
(171,229,cs),
(174,229,o),
(176,229,o),
(180,229,cs),
(188,229,o),
(195,225,o),
(198,210,cs),
(230,55,o),
(314,-11,o),
(469,-11,cs)
);
},
{
closed = 0;
nodes = (
(356,211,l)
);
},
{
closed = 1;
nodes = (
(367,244,o),
(379,247,o),
(389,249,cs),
(466,265,o),
(496,285,o),
(496,311,cs),
(496,337,o),
(469,352,o),
(383,369,cs),
(377,370,o),
(368,372,o),
(355,374,cs),
(352,375,o),
(346,377,o),
(349,384,c),
(363,432,o),
(394,457,o),
(459,457,cs),
(560,457,o),
(613,400,o),
(613,294,cs),
(613,174,o),
(543,94,o),
(451,94,c),
(373,94,o),
(347,153,o),
(341,231,c),
(341,238,o),
(345,241,o),
(350,241,c)
);
}
);
width = 936;
}
);
unicode = 272;
},
{
glyphname = Eth;
lastChange = "2023-11-16 22:13:59 +0000";
layers = (
{
layerId = "49F060A0-2273-4F54-8B81-08E0B15B03EC";
shapes = (
{
closed = 1;
nodes = (
(751,-9,o),
(918,207,o),
(918,440,cs),
(918,691,o),
(725,817,o),
(459,817,cs),
(241,817,o),
(178,733,o),
(178,441,cs),
(178,429,o),
(178,417,o),
(178,406,cs),
(178,398,o),
(175,392,o),
(167,392,cs),
(39,392,o),
(3,356,o),
(3,311,cs),
(3,264,o),
(41,231,o),
(171,231,cs),
(174,231,o),
(176,231,o),
(180,231,cs),
(188,231,o),
(194,227,o),
(196,221,c),
(230,57,o),
(314,-9,o),
(469,-9,cs)
);
},
{
closed = 1;
nodes = (
(373,96,o),
(338,148,o),
(338,223,cs),
(338,228,o),
(342,231,o),
(347,231,cs),
(477,231,o),
(515,264,o),
(515,311,cs),
(515,355,o),
(480,391,o),
(358,392,cs),
(353,392,o),
(347,395,o),
(350,402,cs),
(366,439,o),
(397,459,o),
(455,459,cs),
(556,459,o),
(609,402,o),
(609,296,cs),
(609,176,o),
(539,96,o),
(447,96,cs)
);
}
);
width = 936;
}
);
unicode = 208;
},
{
color = 10;
glyphname = E;
lastChange = "2023-11-16 22:13:59 +0000";
layers = (
{
layerId = "49F060A0-2273-4F54-8B81-08E0B15B03EC";
shapes = (
{
closed = 1;
nodes = (
(357,237,o),
(397,225,o),
(434,225,cs),
(479,225,o),
(512,237,o),
(512,280,cs),
(512,323,o),
(479,335,o),
(434,335,cs),
(397,335,o),
(357,328,o),
(312,335,cs),
(299,337,o),
(290,344,o),
(290,356,cs),
(290,431,o),
(367,475,o),
(432,475,cs),
(492,475,o),
(534,445,o),
(590,445,cs),
(686,445,o),
(749,523,o),
(749,596,cs),
(749,743,o),
(618,811,o),
(467,811,cs),
(261,811,o),
(17,684,o),
(17,398,cs),
(17,156,o),
(216,-15,o),
(435,-15,cs),
(494,-15,o),
(556,-4,o),
(594,13,cs),
(657,43,o),
(671,81,o),
(657,113,cs),
(646,138,o),
(605,166,o),
(559,135,cs),
(518,106,o),
(492,90,o),
(446,90,cs),
(372,90,o),
(290,131,o),
(290,208,cs),
(290,220,o),
(299,227,o),
(312,229,cs)
);
}
);
width = 768;
}
);
unicode = 69;
},
{
glyphname = Eacute;
lastChange = "2023-11-16 22:13:59 +0000";
layers = (
{
layerId = "49F060A0-2273-4F54-8B81-08E0B15B03EC";
shapes = (
{
ref = E;
},
{
closed = 1;
nodes = (
(450,890,o),
(397,865,o),
(353,859,cs),
(323,855,o),
(294,857,o),
(281,882,cs),
(265,914,o),
(285,938,o),
(325,958,cs),
(390,991,o),
(395,1044,o),
(441,1070,cs),
(471,1087,o),
(506,1082,o),
(531,1049,cs),
(562,1008,o),
(543,960,o),
(490,920,cs)
);
}
);
width = 768;
}
);
unicode = 201;
},
{
glyphname = Ecaron;
lastChange = "2023-11-16 22:13:59 +0000";
layers = (
{
anchors = (
{
name = top;
pos = (420,1080);
}
);
layerId = "49F060A0-2273-4F54-8B81-08E0B15B03EC";
shapes = (
{
ref = E;
},
{
closed = 1;
nodes = (
(425,986,o),
(435,995,o),
(453,1008,cs),
(474,1023,o),
(498,1041,o),
(511,1051,cs),
(545,1075,o),
(570,1093,o),
(589,1075,cs),
(604,1059,o),
(590,1040,o),
(572,1002,cs),
(559,977,o),
(542,945,o),
(522,910,cs),
(495,862,o),
(459,832,o),
(415,832,cs),
(371,832,o),
(335,862,o),
(308,910,cs),
(288,945,o),
(271,977,o),
(258,1002,cs),
(240,1040,o),
(226,1059,o),
(241,1075,cs),
(260,1093,o),
(285,1075,o),
(319,1051,c),
(372,1012,ls),
(396,995,o),
(405,986,o),
(415,986,cs)
);
}
);
width = 768;
}
);
unicode = 282;
},
{
glyphname = Ecircumflex;
lastChange = "2023-11-16 22:13:59 +0000";
layers = (
{
anchors = (
{
name = top;
pos = (430,1081);
}
);
layerId = "49F060A0-2273-4F54-8B81-08E0B15B03EC";
shapes = (
{
ref = E;
},
{
closed = 1;
nodes = (
(422,928,o),
(413,919,o),
(389,902,cs),
(336,863,l),
(302,839,o),
(277,821,o),
(258,839,cs),
(243,855,o),
(257,874,o),
(275,912,cs),
(288,937,o),
(305,969,o),
(325,1004,cs),
(352,1052,o),
(388,1082,o),
(432,1082,cs),
(476,1082,o),
(512,1052,o),
(539,1004,cs),
(559,969,o),
(576,937,o),
(589,912,cs),
(607,874,o),
(621,855,o),
(606,839,cs),
(587,821,o),
(562,839,o),
(528,863,cs),
(515,873,o),
(491,891,o),
(470,906,cs),
(452,919,o),
(442,928,o),
(432,928,cs)
);
}
);
width = 768;
}
);
unicode = 202;
},
{
glyphname = Edieresis;
lastChange = "2023-11-16 22:13:59 +0000";
layers = (
{
anchors = (
{
name = top;
pos = (436,1066);
}
);
layerId = "49F060A0-2273-4F54-8B81-08E0B15B03EC";
shapes = (
{
ref = E;
},
{
closed = 1;
nodes = (
(262,961,o),
(292,932,o),
(338,932,cs),
(384,932,o),
(414,961,o),
(414,1006,cs),
(414,1050,o),
(384,1078,o),
(338,1078,cs),
(292,1078,o),
(262,1050,o),
(262,1006,cs)
);
},
{
closed = 1;
nodes = (
(458,961,o),
(488,932,o),
(534,932,cs),
(580,932,o),
(610,961,o),
(610,1006,cs),
(610,1050,o),
(580,1078,o),
(534,1078,cs),
(488,1078,o),
(458,1050,o),
(458,1006,cs)
);
}
);
width = 768;
}
);
unicode = 203;
},
{
glyphname = Edotaccent;
lastChange = "2023-11-16 22:13:59 +0000";
layers = (
{
anchors = (
{
name = top;
pos = (420,1078);
}
);
layerId = "49F060A0-2273-4F54-8B81-08E0B15B03EC";
shapes = (
{
ref = E;
},
{
closed = 1;
nodes = (
(344,961,o),
(374,932,o),
(420,932,cs),
(466,932,o),
(496,961,o),
(496,1006,cs),
(496,1050,o),
(466,1078,o),
(420,1078,cs),
(374,1078,o),
(344,1050,o),
(344,1006,cs)
);
}
);
width = 768;
}
);
unicode = 278;
},
{
glyphname = Egrave;
lastChange = "2023-11-16 22:13:59 +0000";
layers = (
{
anchors = (
{
name = top;
pos = (466,1061);
}
);
layerId = "49F060A0-2273-4F54-8B81-08E0B15B03EC";
shapes = (
{
ref = E;
},
{
closed = 1;
nodes = (
(280,961,o),
(261,1009,o),
(292,1050,cs),
(317,1083,o),
(352,1088,o),
(382,1071,cs),
(428,1045,o),
(433,992,o),
(498,959,cs),
(538,939,o),
(558,915,o),
(542,883,cs),
(529,858,o),
(500,856,o),
(470,860,cs),
(426,866,o),
(373,891,o),
(333,921,cs)
);
}
);
width = 768;
}
);
unicode = 200;
},
{
glyphname = Emacron;
lastChange = "2023-11-16 22:13:59 +0000";
layers = (
{
anchors = (
{
name = top;
pos = (392,1077);
}
);
layerId = "49F060A0-2273-4F54-8B81-08E0B15B03EC";
shapes = (
{
ref = E;
},
{
closed = 1;
nodes = (
(221,918,o),
(183,951,o),
(183,998,cs),
(183,1043,o),
(219,1079,o),
(347,1079,cs),
(454,1079,o),
(539,1065,o),
(561,1061,cs),
(647,1044,o),
(674,1029,o),
(674,1003,cs),
(674,977,o),
(644,957,o),
(567,941,cs),
(531,933,o),
(445,918,o),
(351,918,cs)
);
}
);
width = 768;
}
);
unicode = 274;
},
{
glyphname = Eogonek;
lastChange = "2023-11-16 22:13:59 +0000";
layers = (
{
anchors = (
{
name = bottom;
pos = (419,-21);
}
);
layerId = "49F060A0-2273-4F54-8B81-08E0B15B03EC";
shapes = (
{
pos = (0,-3);
ref = E;
},
{
closed = 1;
nodes = (
(494,-179,o),
(505,-171,o),
(505,-159,cs),
(505,-147,o),
(494,-140,o),
(477,-140,cs),
(449,-140,o),
(433,-130,o),
(433,-110,cs),
(433,-97,o),
(446,-86,o),
(457,-77,cs),
(478,-59,o),
(488,-37,o),
(463,-13,cs),
(444,5,o),
(409,-2,o),
(383,-31,cs),
(346,-73,o),
(352,-126,o),
(389,-159,cs),
(412,-180,o),
(440,-187,o),
(478,-181,c)
);
}
);
width = 768;
}
);
unicode = 280;
},
{
color = 10;
glyphname = F;
lastChange = "2023-11-16 22:13:59 +0000";
layers = (
{
layerId = "49F060A0-2273-4F54-8B81-08E0B15B03EC";
shapes = (
{
closed = 1;
nodes = (
(364,242,o),
(403,233,o),
(440,233,cs),
(485,233,o),
(518,245,o),
(518,288,cs),
(518,331,o),
(485,343,o),
(440,343,cs),
(403,343,o),
(364,339,o),
(318,343,cs),
(305,344,o),
(297,349,o),
(297,361,cs),
(297,434,o),
(371,476,o),
(435,476,cs),
(493,476,o),
(534,447,o),
(589,447,cs),
(682,447,o),
(742,523,o),
(742,594,cs),
(742,736,o),
(615,803,o),
(469,803,cs),
(269,803,o),
(31,679,o),
(31,401,cs),
(31,206,o),
(151,67,o),
(213,11,cs),
(238,-9,o),
(261,-23,o),
(288,-10,cs),
(315,3,o),
(322,35,o),
(312,65,cs),
(304,91,o),
(299,117,o),
(297,167,c),
(297,229,o),
(305,236,o),
(318,237,c)
);
}
);
width = 754;
}
);
unicode = 70;
},
{
color = 10;
glyphname = G;
lastChange = "2023-11-16 22:13:59 +0000";
layers = (
{
hints = (
{
place = (28, 604);
place = (28, 604);
type = Stem;
}
);
layerId = "49F060A0-2273-4F54-8B81-08E0B15B03EC";
shapes = (
{
closed = 1;
locked = 1;
nodes = (
(325,436,o),
(280,344,o),
(280,239,cs),
(280,115,o),
(343,56,o),
(424,56,cs),
(485,56,o),
(522,91,o),
(522,125,cs),
(522,167,o),
(505,181,o),
(490,181,cs),
(463,181,o),
(444,181,o),
(425,181,cs),
(381,181,o),
(358,204,o),
(358,234,cs),
(358,264,o),
(381,288,o),
(424,288,cs),
(486,288,o),
(513,288,o),
(543,288,cs),
(572,288,o),
(599,288,o),
(661,288,cs),
(704,288,o),
(727,264,o),
(727,209,cs),
(727,75,o),
(588,-13,o),
(419,-13,cs),
(208,-13,o),
(21,156,o),
(21,381,cs),
(21,629,o),
(187,812,o),
(450,812,cs),
(618,812,o),
(762,735,o),
(762,571,cs),
(762,490,o),
(692,403,o),
(587,403,cs),
(531,403,o),
(488,436,o),
(434,436,cs)
);
}
);
width = 767;
}
);
unicode = 71;
},
{
glyphname = Gbreve;
lastChange = "2023-11-16 22:13:59 +0000";
layers = (
{
anchors = (
{
name = top;
pos = (438,903);
}
);
layerId = "49F060A0-2273-4F54-8B81-08E0B15B03EC";
shapes = (
{
ref = G;
},
{
closed = 1;
nodes = (
(307,837,o),
(227,873,o),
(199,940,cs),
(174,1002,o),
(193,1059,o),
(245,1076,cs),
(278,1088,o),
(310,1072,o),
(321,1041,cs),
(327,1024,o),
(329,998,o),
(335,976,cs),
(352,915,o),
(389,903,o),
(438,903,cs),
(486,903,o),
(522,915,o),
(539,976,cs),
(547,1006,o),
(549,1026,o),
(553,1041,cs),
(563,1072,o),
(594,1087,o),
(628,1076,cs),
(681,1059,o),
(700,1002,o),
(675,939,cs),
(647,871,o),
(563,837,o),
(438,837,cs)
);
}
);
width = 750;
}
);
unicode = 286;
},
{
glyphname = Gcommaaccent;
lastChange = "2023-11-16 22:13:59 +0000";
layers = (
{
anchors = (
{
name = bottom;
pos = (506,-31);
}
);
layerId = "49F060A0-2273-4F54-8B81-08E0B15B03EC";
shapes = (
{
ref = G;
},
{
closed = 1;
nodes = (
(422,-225,o),
(369,-250,o),
(325,-256,cs),
(295,-260,o),
(266,-258,o),
(253,-233,cs),
(237,-201,o),
(257,-177,o),
(297,-157,cs),
(362,-124,o),
(367,-71,o),
(413,-45,cs),
(443,-28,o),
(478,-33,o),
(503,-66,cs),
(534,-107,o),
(515,-155,o),
(462,-195,cs)
);
}
);
width = 750;
}
);
unicode = 290;
},
{
glyphname = Gdotaccent;
lastChange = "2023-11-16 22:13:59 +0000";
layers = (
{
anchors = (
{
name = op;
pos = (426,1071);
}
);
layerId = "49F060A0-2273-4F54-8B81-08E0B15B03EC";
shapes = (
{
ref = G;
},
{
closed = 1;
nodes = (
(344,961,o),
(374,932,o),
(420,932,cs),
(466,932,o),
(496,961,o),
(496,1006,cs),
(496,1050,o),
(466,1078,o),
(420,1078,cs),
(374,1078,o),
(344,1050,o),
(344,1006,cs)
);
}
);
width = 750;
}
);
unicode = 288;
},
{
color = 10;
glyphname = H;
lastChange = "2023-11-16 22:13:59 +0000";
layers = (
{
layerId = "49F060A0-2273-4F54-8B81-08E0B15B03EC";
shapes = (
{
closed = 1;
nodes = (
(437,288,o),
(489,288,cs),
(520,288,o),
(548,304,o),
(548,341,cs),
(548,368,o),
(541,396,o),
(532,427,cs),
(506,515,o),
(460,549,o),
(460,630,cs),
(460,749,o),
(536,800,o),
(633,800,cs),
(748,800,o),
(847,701,o),
(847,500,cs),
(847,261,o),
(710,81,o),
(633,13,cs),
(608,-10,o),
(583,-25,o),
(555,-9,cs),
(529,6,o),
(521,35,o),
(530,67,cs),
(534,79,o),
(547,118,o),
(547,134,cs),
(547,161,o),
(530,184,o),
(489,184,cs),
(476,184,o),
(393,184,o),
(383,184,cs),
(344,184,o),
(327,159,o),
(327,134,cs),
(327,115,o),
(340,78,o),
(344,67,cs),
(353,34,o),
(345,5,o),
(319,-10,cs),
(291,-25,o),
(266,-11,o),
(241,12,cs),
(164,80,o),
(27,260,o),
(27,499,cs),
(27,700,o),
(126,800,o),
(241,800,cs),
(338,800,o),
(414,748,o),
(414,629,cs),
(414,548,o),
(368,514,o),
(342,427,cs),
(333,395,o),
(326,368,o),
(326,340,cs),
(326,303,o),
(354,288,o),
(385,288,cs),
(401,288,o)
);
}
);
width = 874;
}
);
unicode = 72;
},
{
glyphname = Hbar;
lastChange = "2023-11-16 22:13:59 +0000";
layers = (
{
layerId = "49F060A0-2273-4F54-8B81-08E0B15B03EC";
shapes = (
{
closed = 1;
nodes = (
(183,0,o),
(202,41,o),
(220,158,cs),
(221,165,o),
(227,190,o),
(227,235,cs),
(227,240,o),
(230,243,o),
(235,243,cs),
(239,243,o),
(243,243,o),
(247,243,cs),
(302,243,o),
(358,255,o),
(394,255,cs),
(404,255,o),
(405,254,o),
(406,248,cs),
(412,203,o),
(414,190,o),
(418,158,cs),
(434,43,o),
(455,0,o),
(484,0,cs),
(511,0,o),
(529,39,o),
(548,161,cs),
(554,199,o),
(572,320,o),
(572,470,cs),
(572,485,o),
(572,498,o),
(572,511,cs),
(572,516,o),
(574,519,o),
(577,520,cs),
(609,532,o),
(623,545,o),
(623,561,cs),
(623,578,o),
(609,590,o),
(571,601,cs),
(567,602,o),
(563,606,o),
(563,610,cs),
(563,684,o),
(520,708,o),
(487,708,cs),
(457,708,o),
(432,690,o),
(416,634,cs),
(415,630,o),
(414,628,o),
(399,628,cs),
(369,628,o),
(300,636,o),
(236,637,c),
(231,638,o),
(228,640,o),
(226,645,cs),
(210,691,o),
(186,708,o),
(160,708,cs),
(119,708,o),
(95,668,o),
(88,634,cs),
(87,629,o),
(87,628,o),
(80,626,cs),
(25,612,o),
(5,585,o),
(5,556,cs),
(5,530,o),
(20,508,o),
(61,494,cs),
(67,492,o),
(69,489,o),
(69,485,cs),
(69,480,o),
(69,474,o),
(69,468,cs),
(69,336,o),
(81,219,o),
(90,156,cs),
(106,45,o),
(127,0,o),
(156,0,cs)
);
},
{
closed = 1;
nodes = (
(356,399,o),
(308,404,o),
(260,404,cs),
(257,404,o),
(253,404,o),
(250,404,cs),
(246,404,o),
(243,407,o),
(243,412,cs),
(243,431,o),
(244,452,o),
(244,471,cs),
(244,475,o),
(247,478,o),
(252,478,cs),
(303,478,o),
(350,481,o),
(388,484,c),
(393,484,o),
(397,482,o),
(397,477,cs),
(397,474,o),
(397,473,o),
(397,469,cs),
(397,446,o),
(397,424,o),
(397,407,cs),
(397,399,o),
(395,396,o),
(383,397,c)
);
},
{
closed = 0;
nodes = (
(388,484,l)
);
},
{
closed = 0;
nodes = (
(236,638,l)
);
},
{
closed = 0;
nodes = (
(406,488,l)
);
}
);
width = 626;
}
);
unicode = 294;
},
{
color = 10;
glyphname = I;
lastChange = "2023-11-16 22:13:59 +0000";
layers = (
{
layerId = "49F060A0-2273-4F54-8B81-08E0B15B03EC";
shapes = (
{
closed = 1;
nodes = (
(120,809,o),
(42,731,o),
(42,589,cs),
(42,398,o),
(83,202,o),
(117,83,cs),
(136,20,o),
(162,-17,o),
(211,-17,cs),
(260,-17,o),
(286,20,o),
(305,83,cs),
(339,202,o),
(380,398,o),
(380,589,cs),
(380,731,o),
(302,809,o),
(211,809,c)
);
}
);
width = 422;
}
);
unicode = 73;
},
{
glyphname = Iacute;
lastChange = "2023-11-16 22:13:59 +0000";
layers = (
{
anchors = (
{
name = "new anchor";
pos = (216,1068);
}
);
layerId = "49F060A0-2273-4F54-8B81-08E0B15B03EC";
shapes = (
{
ref = I;
},
{
closed = 1;
nodes = (
(246,893,o),
(193,868,o),
(149,862,cs),
(119,858,o),
(90,860,o),
(77,885,cs),
(61,917,o),
(81,941,o),
(121,961,cs),
(186,994,o),
(191,1047,o),
(237,1073,cs),
(267,1090,o),
(302,1085,o),
(327,1052,cs),
(358,1011,o),
(339,963,o),
(286,923,cs)
);
}
);
width = 376;
}
);
unicode = 205;
},
{
glyphname = Icircumflex;
lastChange = "2023-11-16 22:13:59 +0000";
layers = (
{
anchors = (
{
name = top;
pos = (210,1076);
}
);
layerId = "49F060A0-2273-4F54-8B81-08E0B15B03EC";
shapes = (
{
ref = I;
},
{
closed = 1;
nodes = (
(199,928,o),
(190,919,o),
(166,902,cs),
(113,863,l),
(79,839,o),
(54,821,o),
(35,839,cs),
(20,855,o),
(34,874,o),
(52,912,cs),
(65,937,o),
(82,969,o),
(102,1004,cs),
(129,1052,o),
(165,1082,o),
(209,1082,cs),
(253,1082,o),
(289,1052,o),
(316,1004,cs),
(336,969,o),
(353,937,o),
(366,912,cs),
(384,874,o),
(398,855,o),
(383,839,cs),
(364,821,o),
(339,839,o),
(305,863,cs),
(292,873,o),
(268,891,o),
(247,906,cs),
(229,919,o),
(219,928,o),
(209,928,cs)
);
}
);
width = 422;
}
);
unicode = 206;
},
{
glyphname = Idieresis;
lastChange = "2023-11-16 22:13:59 +0000";
layers = (
{
anchors = (
{
name = top;
pos = (219,1082);
}
);
layerId = "49F060A0-2273-4F54-8B81-08E0B15B03EC";
shapes = (
{
ref = I;
},
{
closed = 1;
nodes = (
(30,961,o),
(60,932,o),
(106,932,cs),
(152,932,o),
(182,961,o),
(182,1006,cs),
(182,1050,o),
(152,1078,o),
(106,1078,cs),
(60,1078,o),
(30,1050,o),
(30,1006,cs)
);
},
{
closed = 1;
nodes = (
(226,961,o),
(256,932,o),
(302,932,cs),
(348,932,o),
(378,961,o),
(378,1006,cs),
(378,1050,o),
(348,1078,o),
(302,1078,cs),
(256,1078,o),
(226,1050,o),
(226,1006,cs)
);
}
);
width = 435;
}
);
unicode = 207;
},
{
glyphname = Idotaccent;
lastChange = "2023-11-16 22:13:59 +0000";
layers = (
{
anchors = (
{
name = top;
pos = (217,1068);
}
);
layerId = "49F060A0-2273-4F54-8B81-08E0B15B03EC";
shapes = (
{
ref = I;
},
{
closed = 1;
nodes = (
(131,961,o),
(161,932,o),
(207,932,cs),
(253,932,o),
(283,961,o),
(283,1006,cs),
(283,1050,o),
(253,1078,o),
(207,1078,cs),
(161,1078,o),
(131,1050,o),
(131,1006,cs)
);
}
);
width = 422;
}
);
unicode = 304;
},
{
glyphname = Igrave;
lastChange = "2023-11-16 22:13:59 +0000";
layers = (
{
layerId = "49F060A0-2273-4F54-8B81-08E0B15B03EC";
shapes = (
{
ref = I;
},
{
closed = 1;
nodes = (
(97,961,o),
(78,1009,o),
(109,1050,cs),
(134,1083,o),
(169,1088,o),
(199,1071,cs),
(245,1045,o),
(250,992,o),
(315,959,cs),
(355,939,o),
(375,915,o),
(359,883,cs),
(346,858,o),
(317,856,o),
(287,860,cs),
(243,866,o),
(190,891,o),
(150,921,cs)
);
}
);
width = 429;
}
);
unicode = 204;
},
{
glyphname = Imacron;
lastChange = "2023-11-16 22:13:59 +0000";
layers = (
{
anchors = (
{
name = top;
pos = (228,1082);
}
);
layerId = "49F060A0-2273-4F54-8B81-08E0B15B03EC";
shapes = (
{
pos = (18,0);
ref = I;
},
{
closed = 1;
nodes = (
(41,918,o),
(3,951,o),
(3,998,cs),
(3,1043,o),
(39,1079,o),
(167,1079,cs),
(274,1079,o),
(359,1065,o),
(381,1061,cs),
(467,1044,o),
(494,1029,o),
(494,1003,cs),
(494,977,o),
(464,957,o),
(387,941,cs),
(351,933,o),
(265,918,o),
(171,918,cs)
);
}
);
width = 497;
}
);
unicode = 298;
},
{
glyphname = Iogonek;
lastChange = "2023-11-16 22:13:59 +0000";
layers = (
{
anchors = (
{
name = bottom;
pos = (211,0);
}
);
layerId = "49F060A0-2273-4F54-8B81-08E0B15B03EC";
shapes = (
{
ref = I;
},
{
closed = 1;
nodes = (
(271,-176,o),
(282,-168,o),
(282,-156,cs),
(282,-144,o),
(271,-137,o),
(254,-137,cs),
(226,-137,o),
(210,-127,o),
(210,-107,cs),
(210,-94,o),
(223,-83,o),
(234,-74,cs),
(255,-56,o),
(265,-34,o),
(240,-10,cs),
(221,8,o),
(186,1,o),
(160,-28,cs),
(123,-70,o),
(129,-123,o),
(166,-156,cs),
(189,-177,o),
(217,-184,o),
(255,-178,c)
);
}
);
width = 422;
}
);
unicode = 302;
},
{
color = 10;
glyphname = J;
lastChange = "2023-11-16 22:13:59 +0000";
layers = (
{
layerId = "49F060A0-2273-4F54-8B81-08E0B15B03EC";
shapes = (
{
closed = 1;
nodes = (
(128,-15,o),
(160,-15,cs),
(172,-15,o),
(225,-12,o),
(277,21,cs),
(377,85,o),
(476,269,o),
(476,481,cs),
(476,707,o),
(363,811,o),
(246,811,cs),
(146,811,o),
(73,735,o),
(87,638,cs),
(95,584,o),
(135,485,o),
(160,425,cs),
(201,327,o),
(217,260,o),
(217,209,cs),
(217,105,o),
(151,90,o),
(122,90,cs),
(96,90,o),
(72,90,o),
(59,90,cs),
(22,90,o),
(4,67,o),
(4,38,cs),
(4,10,o),
(25,-4,o),
(58,-10,cs),
(90,-15,o)
);
}
);
width = 480;
}
);
unicode = 74;
},
{
color = 10;
glyphname = K;
lastChange = "2023-11-16 22:13:59 +0000";
layers = (
{
layerId = "49F060A0-2273-4F54-8B81-08E0B15B03EC";
shapes = (
{
closed = 1;
locked = 1;
nodes = (
(488,291,o),
(496,318,o),
(519,333,cs),
(546,350,o),
(693,444,o),
(672,431,cs),
(745,477,o),
(815,545,o),
(815,633,cs),
(815,723,o),
(740,799,o),
(647,799,cs),
(552,799,o),
(499,720,o),
(476,630,cs),
(466,590,o),
(418,400,o),
(394,367,cs),
(378,344,o),
(349,340,o),
(327,356,cs),
(307,370,o),
(305,397,o),
(313,421,cs),
(334,475,o),
(409,520,o),
(409,621,cs),
(409,726,o),
(332,800,o),
(231,800,cs),
(147,800,o),
(6,730,o),
(6,535,cs),
(6,279,o),
(136,86,o),
(212,20,cs),
(237,-2,o),
(261,-17,o),
(289,-3,cs),
(316,11,o),
(323,43,o),
(313,74,cs),
(304,104,o),
(298,135,o),
(298,152,cs),
(298,172,o),
(307,197,o),
(323,208,cs),
(349,227,o),
(388,225,o),
(415,172,cs),
(438,127,o),
(497,45,o),
(511,30,cs),
(532,6,o),
(588,-26,o),
(630,6,cs),
(655,25,o),
(682,71,o),
(628,121,cs),
(600,146,o),
(522,220,o),
(499,269,cs)
);
}
);
width = 830;
}
);
unicode = 75;
},
{
glyphname = Kcommaaccent;
lastChange = "2023-11-16 22:13:59 +0000";
layers = (
{
anchors = (
{
name = bottom;
pos = (468,-35);
}
);
layerId = "49F060A0-2273-4F54-8B81-08E0B15B03EC";
shapes = (
{
ref = K;
},
{
closed = 1;
nodes = (
(389,-225,o),
(336,-250,o),
(292,-256,cs),
(262,-260,o),
(233,-258,o),
(220,-233,cs),
(204,-201,o),
(224,-177,o),
(264,-157,cs),
(329,-124,o),
(334,-71,o),
(380,-45,cs),
(410,-28,o),
(445,-33,o),
(470,-66,cs),
(501,-107,o),
(482,-155,o),
(429,-195,cs)
);
}
);
width = 830;
}
);
unicode = 310;
},
{
color = 10;
glyphname = L;
lastChange = "2023-11-16 22:13:59 +0000";
layers = (
{
layerId = "49F060A0-2273-4F54-8B81-08E0B15B03EC";
shapes = (
{
closed = 1;
nodes = (
(368,505,o),
(413,614,o),
(413,664,cs),
(413,759,o),
(334,811,o),
(253,811,cs),
(136,811,o),
(23,711,o),
(23,494,cs),
(23,275,o),
(123,95,o),
(238,20,cs),
(279,-6,o),
(328,-15,o),
(395,-15,cs),
(459,-15,o),
(495,-7,o),
(513,-3,cs),
(543,4,o),
(563,19,o),
(563,47,cs),
(563,74,o),
(542,97,o),
(507,97,cs),
(455,97,o),
(344,88,o),
(308,129,cs),
(275,167,o),
(259,247,o),
(337,432,cs)
);
}
);
width = 561;
}
);
unicode = 76;
},
{
glyphname = Lacute;
lastChange = "2023-11-16 22:13:59 +0000";
layers = (
{
anchors = (
{
name = top;
pos = (316,1075);
}
);
layerId = "49F060A0-2273-4F54-8B81-08E0B15B03EC";
shapes = (
{
ref = L;
},
{
closed = 1;
nodes = (
(292,890,o),
(239,865,o),
(195,859,cs),
(165,855,o),
(136,857,o),
(123,882,cs),
(107,914,o),
(127,938,o),
(167,958,cs),
(232,991,o),
(237,1044,o),
(283,1070,cs),
(313,1087,o),
(348,1082,o),
(373,1049,cs),
(404,1008,o),
(385,960,o),
(332,920,cs)
);
}
);
width = 561;
}
);
unicode = 313;
},
{
glyphname = Lcaron;
lastChange = "2023-11-16 22:13:59 +0000";
layers = (
{
layerId = "49F060A0-2273-4F54-8B81-08E0B15B03EC";
shapes = (
{
ref = L;
},
{
closed = 1;
nodes = (
(476,643,o),
(442,642,o),
(442,614,cs),
(442,582,o),
(480,573,o),
(503,573,cs),
(573,573,o),
(631,623,o),
(631,703,cs),
(631,782,o),
(593,799,o),
(560,799,cs),
(533,799,o),
(509,783,o),
(509,752,cs),
(509,740,o),
(515,710,o),
(515,697,cs),
(515,680,o),
(507,670,o),
(497,661,cs)
);
}
);
width = 634;
}
);
unicode = 317;
},
{
glyphname = Lcommaaccent;
lastChange = "2023-11-16 22:13:59 +0000";
layers = (
{
anchors = (
{
name = bottom;
pos = (310,-38);
}
);
layerId = "49F060A0-2273-4F54-8B81-08E0B15B03EC";
shapes = (
{
ref = L;
},
{
closed = 1;
nodes = (
(350,-225,o),
(297,-250,o),
(253,-256,cs),
(223,-260,o),
(194,-258,o),
(181,-233,cs),
(165,-201,o),
(185,-177,o),
(225,-157,cs),
(290,-124,o),
(295,-71,o),
(341,-45,cs),
(371,-28,o),
(406,-33,o),
(431,-66,cs),
(462,-107,o),
(443,-155,o),
(390,-195,cs)
);
}
);
width = 561;
}
);
unicode = 315;
},
{
glyphname = Lslash;
lastChange = "2023-11-16 22:13:59 +0000";
layers = (
{
layerId = "49F060A0-2273-4F54-8B81-08E0B15B03EC";
shapes = (
{
closed = 1;
nodes = (
(462,628,o),
(475,618,o),
(484,600,cs),
(503,559,o),
(489,511,o),
(380,454,cs),
(376,452,o),
(374,447,o),
(373,445,cs),
(372,442,o),
(369,436,o),
(367,432,cs),
(289,247,o),
(305,167,o),
(338,129,cs),
(374,88,o),
(485,97,o),
(537,97,cs),
(572,97,o),
(593,74,o),
(593,47,cs),
(593,19,o),
(573,4,o),
(543,-3,cs),
(525,-7,o),
(489,-15,o),
(425,-15,cs),
(358,-15,o),
(309,-6,o),
(268,20,cs),
(182,76,o),
(105,191,o),
(71,338,cs),
(70,342,o),
(67,345,o),
(63,345,cs),
(33,345,o),
(19,350,o),
(12,365,cs),
(2,385,o),
(12,410,o),
(51,445,cs),
(54,447,o),
(54,453,o),
(54,457,cs),
(54,469,o),
(53,481,o),
(53,494,cs),
(53,711,o),
(166,811,o),
(283,811,cs),
(364,811,o),
(443,759,o),
(443,664,cs),
(443,657,o),
(442,654,o),
(442,646,cs),
(442,643,o),
(442,637,o),
(449,634,c)
);
},
{
closed = 0;
nodes = (
(54,444,l)
);
}
);
width = 591;
}
);
unicode = 321;
},
{
color = 10;
glyphname = M;
lastChange = "2023-11-16 22:13:59 +0000";
layers = (
{
layerId = "49F060A0-2273-4F54-8B81-08E0B15B03EC";
shapes = (
{
closed = 1;
nodes = (
(349,179,o),
(364,315,o),
(357,354,cs),
(354,371,o),
(343,383,o),
(329,383,cs),
(311,383,o),
(303,373,o),
(296,350,cs),
(292,337,o),
(289,323,o),
(289,297,cs),
(289,228,o),
(310,165,o),
(318,122,c),
(318,122,o),
(314,136,o),
(334,65,cs),
(345,26,o),
(332,1,o),
(311,-12,cs),
(281,-30,o),
(255,-11,o),
(232,10,cs),
(154,80,o),
(18,258,o),
(18,497,cs),
(18,698,o),
(114,798,o),
(238,798,cs),
(329,798,o),
(394,745,o),
(405,623,cs),
(408,590,o),
(418,426,o),
(426,345,cs),
(427,334,o),
(434,304,o),
(464,304,cs),
(493,304,o),
(500,334,o),
(501,345,cs),
(509,426,o),
(519,590,o),
(522,623,cs),
(533,745,o),
(598,798,o),
(689,798,cs),
(813,798,o),
(909,698,o),
(909,497,cs),
(909,258,o),
(772,78,o),
(695,10,cs),
(668,-14,o),
(644,-29,o),
(616,-12,cs),
(591,3,o),
(583,31,o),
(593,65,cs),
(613,136,o),
(609,122,o),
(609,122,c),
(617,165,o),
(638,228,o),
(638,297,cs),
(638,323,o),
(635,337,o),
(631,350,cs),
(624,373,o),
(616,383,o),
(598,383,cs),
(589,383,o),
(574,377,o),
(570,354,cs),
(563,314,o),
(578,179,o),
(464,179,cs)
);
}
);
width = 927;
}
);
unicode = 77;
},
{
color = 10;
glyphname = N;
lastChange = "2023-11-16 22:13:59 +0000";
layers = (
{
layerId = "49F060A0-2273-4F54-8B81-08E0B15B03EC";
shapes = (
{
closed = 1;
nodes = (
(373,278,o),
(357,288,o),
(340,288,cs),
(319,288,o),
(301,270,o),
(301,248,cs),
(301,231,o),
(301,211,o),
(329,154,c),
(329,154,o),
(367,76,o),
(371,64,cs),
(380,32,o),
(372,3,o),
(346,-12,cs),
(318,-28,o),
(293,-13,o),
(268,10,cs),
(191,78,o),
(54,258,o),
(54,497,cs),
(54,698,o),
(153,798,o),
(268,798,cs),
(365,798,o),
(431,746,o),
(441,616,cs),
(446,558,o),
(457,457,o),
(465,393,cs),
(478,293,o),
(500,182,o),
(521,133,cs),
(529,115,o),
(537,97,o),
(557,97,cs),
(577,97,o),
(590,113,o),
(593,146,cs),
(600,234,o),
(563,387,o),
(554,517,cs),
(539,729,o),
(626,798,o),
(723,798,cs),
(838,798,o),
(913,698,o),
(913,497,cs),
(913,258,o),
(739,-13,o),
(577,-13,cs),
(473,-13,o),
(405,178,o),
(388,230,cs)
);
}
);
width = 922;
}
);
unicode = 78;
},
{
glyphname = Nacute;
lastChange = "2023-11-16 22:13:59 +0000";
layers = (
{
anchors = (
{
name = top;
pos = (621,1082);
}
);
layerId = "49F060A0-2273-4F54-8B81-08E0B15B03EC";
shapes = (
{
ref = N;
},
{
closed = 1;
nodes = (
(541,893,o),
(488,868,o),
(444,862,cs),
(414,858,o),
(385,860,o),
(372,885,cs),
(356,917,o),
(376,941,o),
(416,961,cs),
(481,994,o),
(486,1047,o),
(532,1073,cs),
(562,1090,o),
(597,1085,o),
(622,1052,cs),
(653,1011,o),
(634,963,o),
(581,923,cs)
);
}
);
width = 922;
}
);
unicode = 323;
},
{
glyphname = Ncaron;
lastChange = "2023-11-16 22:13:59 +0000";
layers = (
{
anchors = (
{
name = top;
pos = (471,986);
}
);
layerId = "49F060A0-2273-4F54-8B81-08E0B15B03EC";
shapes = (
{
ref = N;
},
{
closed = 1;
nodes = (
(493,982,o),
(503,991,o),
(521,1004,cs),
(542,1019,o),
(566,1037,o),
(579,1047,cs),
(613,1071,o),
(638,1089,o),
(657,1071,cs),
(672,1055,o),
(658,1036,o),
(640,998,cs),
(627,973,o),
(610,941,o),
(590,906,cs),
(563,858,o),
(527,828,o),
(483,828,cs),
(439,828,o),
(403,858,o),
(376,906,cs),
(356,941,o),
(339,973,o),
(326,998,cs),
(308,1036,o),
(294,1055,o),
(309,1071,cs),
(328,1089,o),
(353,1071,o),
(387,1047,c),
(440,1008,ls),
(464,991,o),
(473,982,o),
(483,982,cs)
);
}
);
width = 922;
}
);
unicode = 327;
},
{
glyphname = Ncommaaccent;
lastChange = "2023-11-16 22:13:59 +0000";
layers = (
{
anchors = (
{
name = bottom;
pos = (415,-32);
}
);
layerId = "49F060A0-2273-4F54-8B81-08E0B15B03EC";
shapes = (
{
ref = N;
},
{
closed = 1;
nodes = (
(467,-225,o),
(414,-250,o),
(370,-256,cs),
(340,-260,o),
(311,-258,o),
(298,-233,cs),
(282,-201,o),
(302,-177,o),
(342,-157,cs),
(407,-124,o),
(412,-71,o),
(458,-45,cs),
(488,-28,o),
(523,-33,o),
(548,-66,cs),
(579,-107,o),
(560,-155,o),
(507,-195,cs)
);
}
);
width = 922;
}
);
unicode = 325;
},
{
glyphname = Ntilde;
lastChange = "2023-11-16 22:13:59 +0000";
layers = (
{
anchors = (
{
name = top;
pos = (491,1081);
}
);
layerId = "49F060A0-2273-4F54-8B81-08E0B15B03EC";
shapes = (
{
ref = N;
},
{
closed = 1;
nodes = (
(528,901,o),
(580,889,o),
(632,921,cs),
(680,952,o),
(697,1002,o),
(672,1042,cs),
(657,1065,o),
(630,1071,o),
(608,1057,cs),
(597,1050,o),
(574,1028,o),
(563,1020,cs),
(545,1010,o),
(532,1009,o),
(520,1018,cs),
(438,1082,o),
(386,1094,o),
(333,1059,cs),
(285,1031,o),
(268,980,o),
(293,940,cs),
(307,918,o),
(334,911,o),
(357,925,cs),
(367,932,o),
(391,954,o),
(402,960,cs),
(419,973,o),
(431,973,o),
(445,964,cs)
);
}
);
width = 922;
}
);
unicode = 209;
},
{
glyphname = Eng;
lastChange = "2023-11-16 22:13:59 +0000";
layers = (
{
layerId = "49F060A0-2273-4F54-8B81-08E0B15B03EC";
shapes = (
{
closed = 1;
nodes = (
(592,-10,o),
(591,-16,cs),
(574,-79,o),
(524,-90,o),
(500,-90,cs),
(436,-90,ls),
(399,-90,o),
(381,-113,o),
(381,-142,cs),
(381,-170,o),
(402,-184,o),
(435,-190,cs),
(467,-196,o),
(506,-195,o),
(538,-195,cs),
(550,-195,o),
(606,-191,o),
(655,-159,cs),
(755,-93,o),
(865,115,o),
(899,330,cs),
(908,388,o),
(916,469,o),
(913,519,c),
(912,696,o),
(837,802,o),
(720,802,cs),
(626,802,o),
(540,733,o),
(554,521,cs),
(562,402,o),
(601,230,o),
(593,151,cs),
(590,121,o),
(580,101,o),
(557,101,cs),
(538,101,o),
(530,116,o),
(521,137,cs),
(499,188,o),
(477,305,o),
(465,397,cs),
(457,459,o),
(446,564,o),
(441,622,cs),
(430,750,o),
(365,802,o),
(275,802,cs),
(150,802,o),
(54,702,o),
(54,501,cs),
(54,262,o),
(191,82,o),
(268,14,cs),
(294,-9,o),
(318,-24,o),
(346,-8,cs),
(381,12,o),
(376,54,o),
(371,68,cs),
(367,80,o),
(341,133,o),
(332,152,cs),
(318,180,o),
(301,213,o),
(301,252,cs),
(301,274,o),
(319,292,o),
(340,292,cs),
(368,292,o),
(379,260,o),
(388,234,cs),
(429,115,o),
(486,-9,o),
(583,-9,cs),
(589,-9,o)
);
}
);
width = 931;
}
);
unicode = 330;
},
{
color = 10;
glyphname = O;
lastChange = "2023-11-16 22:13:59 +0000";
layers = (
{
layerId = "49F060A0-2273-4F54-8B81-08E0B15B03EC";
shapes = (
{
closed = 1;
nodes = (
(172,811,o),
(23,680,o),
(23,451,cs),
(23,171,o),
(210,-14,o),
(440,-14,cs),
(661,-14,o),
(843,170,o),
(843,448,cs),
(843,679,o),
(693,811,o),
(432,811,cs)
);
},
{
closed = 1;
nodes = (
(337,94,o),
(290,156,o),
(290,275,cs),
(290,390,o),
(337,455,o),
(436,455,cs),
(529,455,o),
(576,390,o),
(576,275,cs),
(576,156,o),
(529,94,o),
(436,94,cs)
);
}
);
width = 866;
}
);
unicode = 79;
},
{
glyphname = Oacute;
lastChange = "2023-11-16 22:13:59 +0000";
layers = (
{
layerId = "49F060A0-2273-4F54-8B81-08E0B15B03EC";
shapes = (
{
ref = O;
},
{
closed = 1;
nodes = (
(476,891,o),
(423,866,o),
(379,860,cs),
(349,856,o),
(320,858,o),
(307,883,cs),
(291,915,o),
(311,939,o),
(351,959,cs),
(416,992,o),
(421,1045,o),
(467,1071,cs),
(497,1088,o),
(532,1083,o),
(557,1050,cs),
(588,1009,o),
(569,961,o),
(516,921,cs)
);
}
);
width = 866;
}
);
unicode = 211;
},
{
glyphname = Ocircumflex;
lastChange = "2023-11-16 22:13:59 +0000";
layers = (
{
anchors = (
{
name = top;
pos = (424,1082);
}
);
layerId = "49F060A0-2273-4F54-8B81-08E0B15B03EC";
shapes = (
{
ref = O;
},
{
closed = 1;
nodes = (
(415,929,o),
(406,920,o),
(382,903,cs),
(329,864,l),
(295,840,o),
(270,822,o),
(251,840,cs),
(236,856,o),
(250,875,o),
(268,913,cs),
(281,938,o),
(298,970,o),
(318,1005,cs),
(345,1053,o),
(381,1083,o),
(425,1083,cs),
(469,1083,o),
(505,1053,o),
(532,1005,cs),
(552,970,o),
(569,938,o),
(582,913,cs),
(600,875,o),
(614,856,o),
(599,840,cs),
(580,822,o),
(555,840,o),
(521,864,cs),
(508,874,o),
(484,892,o),
(463,907,cs),
(445,920,o),
(435,929,o),
(425,929,cs)
);
}
);
width = 866;
}
);
unicode = 212;
},
{
glyphname = Odieresis;
lastChange = "2023-11-16 22:13:59 +0000";
layers = (
{
anchors = (
{
name = top;
pos = (437,1082);
}
);
layerId = "49F060A0-2273-4F54-8B81-08E0B15B03EC";
shapes = (
{
ref = O;
},
{
closed = 1;
nodes = (
(263,961,o),
(293,932,o),
(339,932,cs),
(385,932,o),
(415,961,o),
(415,1006,cs),
(415,1050,o),
(385,1078,o),
(339,1078,cs),
(293,1078,o),
(263,1050,o),
(263,1006,cs)
);
},
{
closed = 1;
nodes = (
(459,961,o),
(489,932,o),
(535,932,cs),
(581,932,o),
(611,961,o),
(611,1006,cs),
(611,1050,o),
(581,1078,o),
(535,1078,cs),
(489,1078,o),
(459,1050,o),
(459,1006,cs)
);
}
);
width = 866;
}
);
unicode = 214;
},
{
glyphname = Ograve;
lastChange = "2023-11-16 22:13:59 +0000";
layers = (
{
anchors = (
{
name = top;
pos = (442,1064);
}
);
layerId = "49F060A0-2273-4F54-8B81-08E0B15B03EC";
shapes = (
{
ref = O;
},
{
closed = 1;
nodes = (
(303,961,o),
(284,1009,o),
(315,1050,cs),
(340,1083,o),
(375,1088,o),
(405,1071,cs),
(451,1045,o),
(456,992,o),
(521,959,cs),
(561,939,o),
(581,915,o),
(565,883,cs),
(552,858,o),
(523,856,o),
(493,860,cs),
(449,866,o),
(396,891,o),
(356,921,cs)
);
}
);
width = 866;
}
);
unicode = 210;
},
{
glyphname = Ohungarumlaut;
lastChange = "2023-11-16 22:13:59 +0000";
layers = (
{
layerId = "49F060A0-2273-4F54-8B81-08E0B15B03EC";
shapes = (
{
ref = O;
},
{
closed = 1;
nodes = (
(132,851,o),
(145,852,o),
(162,864,cs),
(288,945,o),
(388,1018,o),
(423,1050,cs),
(466,1088,o),
(473,1121,o),
(449,1147,cs),
(426,1174,o),
(386,1178,o),
(343,1139,cs),
(308,1108,o),
(224,1016,o),
(131,899,cs),
(118,883,o),
(115,871,o),
(122,861,cs)
);
},
{
closed = 1;
nodes = (
(374,851,o),
(387,853,o),
(403,864,cs),
(530,945,o),
(630,1018,o),
(665,1050,cs),
(707,1088,o),
(715,1121,o),
(691,1148,cs),
(667,1174,o),
(627,1178,o),
(585,1140,cs),
(550,1108,o),
(466,1016,o),
(372,901,cs),
(359,884,o),
(357,871,o),
(365,862,cs)
);
}
);
width = 866;
}
);
unicode = 336;
},
{
glyphname = Omacron;
lastChange = "2023-11-16 22:13:59 +0000";
layers = (
{
anchors = (
{
name = top;
pos = (444,1082);
}
);
layerId = "49F060A0-2273-4F54-8B81-08E0B15B03EC";
shapes = (
{
closed = 1;
nodes = (
(654,-13,o),
(843,166,o),
(843,400,cs),
(843,632,o),
(658,813,o),
(440,813,cs),
(222,813,o),
(23,632,o),
(23,399,cs),
(23,166,o),
(221,-13,o),
(438,-13,cs)
);
},
{
closed = 1;
nodes = (
(343,52,o),
(281,132,o),
(281,242,cs),
(281,352,o),
(343,431,o),
(433,431,cs),
(523,431,o),
(585,352,o),
(585,242,cs),
(585,132,o),
(523,52,o),
(433,52,cs)
);
},
{
closed = 1;
nodes = (
(237,918,o),
(199,951,o),
(199,998,cs),
(199,1043,o),
(235,1079,o),
(363,1079,cs),
(470,1079,o),
(555,1065,o),
(577,1061,cs),
(663,1044,o),
(690,1029,o),
(690,1003,cs),
(690,977,o),
(660,957,o),
(583,941,cs),
(547,933,o),
(461,918,o),
(367,918,cs)
);
}
);
width = 866;
}
);
unicode = 332;
},
{
glyphname = Oslash;
lastChange = "2023-11-16 22:13:59 +0000";
layers = (
{
layerId = "49F060A0-2273-4F54-8B81-08E0B15B03EC";
shapes = (
{
closed = 1;
nodes = (
(100,-32,o),
(121,-28,o),
(161,0,c),
(175,11,o),
(188,21,o),
(203,34,cs),
(212,42,o),
(221,44,o),
(233,38,cs),
(289,7,o),
(354,-10,o),
(422,-10,cs),
(637,-10,o),
(814,170,o),
(814,440,cs),
(814,476,o),
(811,509,o),
(804,540,cs),
(801,553,o),
(809,560,o),
(818,570,cs),
(880,636,o),
(876,685,o),
(842,719,cs),
(813,750,o),
(775,757,o),
(723,723,c),
(707,713,o),
(700,710,o),
(682,723,cs),
(616,770,o),
(525,794,o),
(414,794,cs),
(161,794,o),
(16,666,o),
(16,443,cs),
(16,312,o),
(57,203,o),
(126,125,cs),
(134,115,o),
(136,111,o),
(127,100,cs),
(117,89,o),
(107,78,o),
(97,66,c),
(68,26,o),
(64,7,o),
(83,-13,cs)
);
},
{
closed = 0;
nodes = (
(203,33,l)
);
},
{
closed = 1;
nodes = (
(321,91,o),
(275,151,o),
(275,267,cs),
(275,379,o),
(321,442,o),
(418,442,cs),
(508,442,o),
(554,379,o),
(554,267,cs),
(554,151,o),
(508,91,o),
(418,91,cs)
);
}
);
width = 879;
}
);
unicode = 216;
},
{
glyphname = Otilde;
lastChange = "2023-11-16 22:13:59 +0000";
layers = (
{
anchors = (
{
name = top;
pos = (325,808);
}
);
hints = (
{
horizontal = 1;
place = (727, 84);
place = (727, 84);
type = Stem;
},
{
horizontal = 1;
place = (671, 128);
place = (671, 128);
type = Stem;
},
{
horizontal = 1;
place = (671, 84);
place = (671, 84);
type = Stem;
}
);
layerId = "49F060A0-2273-4F54-8B81-08E0B15B03EC";
shapes = (
{
ref = o;
},
{
closed = 1;
nodes = (
(357,632,o),
(409,620,o),
(461,652,cs),
(509,683,o),
(526,733,o),
(501,773,cs),
(486,796,o),
(459,802,o),
(437,788,cs),
(426,781,o),
(403,759,o),
(392,751,cs),
(374,741,o),
(361,740,o),
(349,749,cs),
(267,813,o),
(215,825,o),
(162,790,cs),
(114,762,o),
(97,711,o),
(122,671,cs),
(136,649,o),
(163,642,o),
(186,656,cs),
(196,663,o),
(220,685,o),
(231,691,cs),
(248,704,o),
(260,704,o),
(274,695,cs)
);
}
);
width = 628;
}
);
unicode = 213;
},
{
glyphname = OE;
lastChange = "2023-11-16 22:13:59 +0000";
layers = (
{
layerId = "49F060A0-2273-4F54-8B81-08E0B15B03EC";
shapes = (
{
closed = 1;
nodes = (
(337,94,o),
(290,156,o),
(290,275,cs),
(290,390,o),
(337,455,o),
(436,455,cs),
(529,455,o),
(576,390,o),
(576,275,cs),
(576,156,o),
(529,94,o),
(436,94,cs)
);
},
{
closed = 1;
nodes = (
(661,-14,o),
(843,170,o),
(843,448,cs),
(843,679,o),
(693,811,o),
(432,811,cs),
(172,811,o),
(23,680,o),
(23,451,cs),
(23,171,o),
(210,-14,o),
(440,-14,cs)
);
},
{
closed = 1;
nodes = (
(1094,-12,o),
(1156,-1,o),
(1194,16,cs),
(1257,46,o),
(1271,84,o),
(1257,116,cs),
(1246,141,o),
(1205,169,o),
(1159,138,cs),
(1118,109,o),
(1092,93,o),
(1046,93,cs),
(972,93,o),
(890,134,o),
(890,211,cs),
(890,223,o),
(899,232,o),
(912,232,cs),
(958,232,o),
(985,232,o),
(1047,232,cs),
(1090,232,o),
(1113,255,o),
(1113,285,cs),
(1113,315,o),
(1090,338,o),
(1047,338,cs),
(985,338,o),
(958,338,o),
(912,338,cs),
(899,338,o),
(890,347,o),
(890,359,cs),
(890,434,o),
(967,478,o),
(1032,478,cs),
(1092,478,o),
(1134,448,o),
(1190,448,cs),
(1286,448,o),
(1349,526,o),
(1348,599,cs),
(1348,746,o),
(1218,814,o),
(1067,814,cs),
(861,814,o),
(617,687,o),
(617,401,cs),
(617,159,o),
(816,-12,o),
(1035,-12,cs)
);
}
);
width = 1339;
}
);
unicode = 338;
},
{
color = 10;
glyphname = P;
lastChange = "2023-11-16 22:13:59 +0000";
layers = (
{
layerId = "49F060A0-2273-4F54-8B81-08E0B15B03EC";
shapes = (
{
closed = 1;
nodes = (
(433,281,ls),
(341,281,o),
(326,295,o),
(326,323,cs),
(326,350,o),
(328,458,o),
(444,458,cs),
(558,458,o),
(560,350,o),
(560,323,cs),
(560,295,o),
(544,281,o),
(501,281,cs)
);
},
{
closed = 1;
nodes = (
(26,300,o),
(111,73,o),
(247,-4,cs),
(270,-16,o),
(290,-18,o),
(300,-18,cs),
(318,-18,o),
(331,-4,o),
(331,18,cs),
(331,80,ls),
(331,174,o),
(384,177,o),
(427,177,cs),
(507,177,o),
(575,179,o),
(632,197,cs),
(774,243,o),
(842,349,o),
(842,467,cs),
(842,635,o),
(699,808,o),
(424,808,cs),
(182,808,o),
(26,675,o),
(26,469,cs)
);
}
);
width = 851;
}
);
unicode = 80;
},
{
glyphname = Thorn;
lastChange = "2023-11-16 22:13:59 +0000";
layers = (
{
layerId = "49F060A0-2273-4F54-8B81-08E0B15B03EC";
shapes = (
{
closed = 1;
nodes = (
(244,-19,o),
(265,14,o),
(289,81,cs),
(298,105,o),
(312,160,o),
(326,191,cs),
(330,200,o),
(336,206,o),
(345,206,cs),
(353,206,o),
(361,199,o),
(371,191,cs),
(389,177,o),
(417,167,o),
(440,167,cs),
(495,167,o),
(538,207,o),
(580,259,cs),
(629,319,o),
(652,404,o),
(652,475,cs),
(652,578,o),
(595,658,o),
(517,677,cs),
(471,688,o),
(420,666,o),
(399,635,cs),
(389,620,o),
(385,615,o),
(378,615,cs),
(370,615,o),
(364,619,o),
(362,629,cs),
(356,652,o),
(353,674,o),
(344,698,cs),
(317,770,o),
(258,807,o),
(195,807,c),
(104,807,o),
(26,729,o),
(26,587,cs),
(26,396,o),
(67,200,o),
(101,81,cs),
(120,18,o),
(146,-19,o),
(195,-19,cs)
);
},
{
closed = 1;
nodes = (
(367,302,o),
(339,303,o),
(333,332,cs),
(331,342,o),
(333,356,o),
(338,397,cs),
(341,423,o),
(361,438,o),
(391,438,cs),
(428,438,o),
(458,429,o),
(458,388,cs),
(458,357,o),
(430,302,o),
(388,302,cs)
);
}
);
width = 593;
}
);
unicode = 222;
},
{
color = 10;
glyphname = Q;
lastChange = "2023-11-16 22:13:59 +0000";
layers = (
{
layerId = "49F060A0-2273-4F54-8B81-08E0B15B03EC";
shapes = (
{
closed = 1;
nodes = (
(786,98,o),
(737,93,cs),
(726,92,o),
(720,95,o),
(720,101,cs),
(720,106,o),
(722,108,o),
(728,114,cs),
(801,187,o),
(843,290,o),
(843,406,cs),
(843,633,o),
(658,815,o),
(440,815,cs),
(222,815,o),
(23,633,o),
(23,403,cs),
(23,168,o),
(220,-11,o),
(437,-11,cs),
(502,-11,o),
(577,0,o),
(611,0,cs),
(663,0,o),
(743,-15,o),
(764,-15,cs),
(823,-15,o),
(842,8,o),
(842,40,cs),
(842,93,o)
);
},
{
closed = 1;
nodes = (
(347,98,o),
(289,173,o),
(289,278,cs),
(289,382,o),
(347,457,o),
(433,457,cs),
(519,457,o),
(577,382,o),
(577,278,cs),
(577,173,o),
(519,98,o),
(433,98,cs)
);
}
);
width = 861;
}
);
unicode = 81;
},
{
color = 10;
glyphname = R;
lastChange = "2023-11-16 22:13:59 +0000";
layers = (
{
layerId = "49F060A0-2273-4F54-8B81-08E0B15B03EC";
shapes = (
{
closed = 1;
nodes = (
(352,283,o),
(298,315,o),
(298,376,cs),
(298,446,o),
(367,472,o),
(425,472,cs),
(499,472,o),
(552,429,o),
(552,370,cs),
(552,306,o),
(489,283,o),
(426,283,cs)
);
},
{
closed = 1;
nodes = (
(22,300,o),
(129,78,o),
(263,2,cs),
(279,-7,o),
(293,-13,o),
(306,-13,cs),
(316,-13,o),
(325,-9,o),
(333,-1,cs),
(341,7,o),
(346,16,o),
(346,33,cs),
(346,40,o),
(345,46,o),
(342,57,cs),
(332,95,ls),
(329,106,o),
(328,115,o),
(328,124,cs),
(328,168,o),
(363,182,o),
(392,182,cs),
(449,182,o),
(484,129,o),
(490,120,cs),
(513,86,o),
(549,36,o),
(560,22,cs),
(577,0,o),
(597,-13,o),
(617,-13,cs),
(655,-13,o),
(710,47,o),
(612,273,c),
(559,217,l),
(707,198,o),
(834,315,o),
(834,464,cs),
(834,465,ls),
(834,632,o),
(691,805,o),
(418,805,cs),
(179,805,o),
(22,672,o),
(22,468,cs)
);
}
);
width = 846;
}
);
unicode = 82;
},
{
glyphname = Racute;
lastChange = "2023-11-16 22:13:59 +0000";
layers = (
{
layerId = "49F060A0-2273-4F54-8B81-08E0B15B03EC";
shapes = (
{
ref = R;
},
{
closed = 1;
nodes = (
(452,891,o),
(399,866,o),
(355,860,cs),
(325,856,o),
(296,858,o),
(283,883,cs),
(267,915,o),
(287,939,o),
(327,959,cs),
(392,992,o),
(397,1045,o),
(443,1071,cs),
(473,1088,o),
(508,1083,o),
(533,1050,cs),
(564,1009,o),
(545,961,o),
(492,921,cs)
);
}
);
width = 846;
}
);
unicode = 340;
},
{
glyphname = Rcaron;
lastChange = "2023-11-16 22:13:59 +0000";
layers = (
{
anchors = (
{
name = top;
pos = (410,1082);
}
);
layerId = "49F060A0-2273-4F54-8B81-08E0B15B03EC";
shapes = (
{
ref = R;
},
{
closed = 1;
nodes = (
(430,984,o),
(440,993,o),
(458,1006,cs),
(479,1021,o),
(503,1039,o),
(516,1049,cs),
(550,1073,o),
(575,1091,o),
(594,1073,cs),
(609,1057,o),
(595,1038,o),
(577,1000,cs),
(564,975,o),
(547,943,o),
(527,908,cs),
(500,860,o),
(464,830,o),
(420,830,cs),
(376,830,o),
(340,860,o),
(313,908,cs),
(293,943,o),
(276,975,o),
(263,1000,cs),
(245,1038,o),
(231,1057,o),
(246,1073,cs),
(265,1091,o),
(290,1073,o),
(324,1049,c),
(377,1010,ls),
(401,993,o),
(410,984,o),
(420,984,cs)
);
}
);
width = 846;
}
);
unicode = 344;
},
{
glyphname = Rcommaaccent;
lastChange = "2023-11-16 22:13:59 +0000";
layers = (
{
anchors = (
{
name = bottom;
pos = (395,-33);
}
);
layerId = "49F060A0-2273-4F54-8B81-08E0B15B03EC";
shapes = (
{
ref = R;
},
{
closed = 1;
nodes = (
(430,-225,o),
(377,-250,o),
(333,-256,cs),
(303,-260,o),
(274,-258,o),
(261,-233,cs),
(245,-201,o),
(265,-177,o),
(305,-157,cs),
(370,-124,o),
(375,-71,o),
(421,-45,cs),
(451,-28,o),
(486,-33,o),
(511,-66,cs),
(542,-107,o),
(523,-155,o),
(470,-195,cs)
);
}
);
width = 846;
}
);
unicode = 342;
},
{
color = 10;
glyphname = S;
lastChange = "2023-11-16 22:13:59 +0000";
layers = (
{
backgroundImage = {
imagePath = "/Volumes/ADAM-DOC/DOCUMENTS/Google-project_african languages/20octobre/23 October2023/28 October2023/maremasie2/Scan 1.png";
locked = 1;
pos = (1052,-306);
scale = (-2.4331,2.4331);
};
guides = (
{
pos = (374,706);
}
);
hints = (
{
horizontal = 1;
place = (712, -20);
target = down;
type = TopGhost;
}
);
layerId = "49F060A0-2273-4F54-8B81-08E0B15B03EC";
shapes = (
{
closed = 1;
nodes = (
(138,185,o),
(60,327,o),
(60,468,cs),
(60,708,o),
(288,800,o),
(477,800,cs),
(643,800,o),
(775,729,o),
(775,590,cs),
(775,503,o),
(723,433,o),
(631,433,cs),
(565,433,o),
(508,469,o),
(438,469,cs),
(377,469,o),
(363,442,o),
(363,410,cs),
(363,369,o),
(386,341,o),
(435,343,cs),
(605,350,o),
(706,302,o),
(706,184,cs),
(706,69,o),
(611,-14,o),
(390,-14,cs),
(296,-14,o),
(244,1,o),
(213,14,cs),
(163,35,o),
(153,58,o),
(153,82,cs),
(153,130,o),
(192,145,o),
(251,132,cs),
(278,126,o),
(346,105,o),
(409,105,cs),
(481,105,o),
(517,132,o),
(517,165,cs),
(517,185,o),
(503,199,o),
(430,199,c)
);
}
);
width = 785;
}
);
unicode = 83;
},
{
glyphname = Sacute;
lastChange = "2023-11-16 22:13:59 +0000";
layers = (
{
layerId = "49F060A0-2273-4F54-8B81-08E0B15B03EC";
shapes = (
{
ref = S;
},
{
closed = 1;
nodes = (
(471,889,o),
(418,864,o),
(374,858,cs),
(344,854,o),
(315,856,o),
(302,881,cs),
(286,913,o),
(306,937,o),
(346,957,cs),
(411,990,o),
(416,1043,o),
(462,1069,cs),
(492,1086,o),
(527,1081,o),
(552,1048,cs),
(583,1007,o),
(564,959,o),
(511,919,cs)
);
}
);
width = 780;
}
);
unicode = 346;
},
{
glyphname = Scaron;
lastChange = "2023-11-16 22:13:59 +0000";
layers = (
{
anchors = (
{
name = top;
pos = (304,884);
}
);
layerId = "49F060A0-2273-4F54-8B81-08E0B15B03EC";
shapes = (
{
ref = s;
},
{
closed = 1;
nodes = (
(314,788,o),
(324,797,o),
(342,810,cs),
(363,825,o),
(387,843,o),
(400,853,cs),
(434,877,o),
(459,895,o),
(478,877,cs),
(493,861,o),
(479,842,o),
(461,804,cs),
(448,779,o),
(431,747,o),
(411,712,cs),
(384,664,o),
(348,634,o),
(304,634,cs),
(260,634,o),
(224,664,o),
(197,712,cs),
(177,747,o),
(160,779,o),
(147,804,cs),
(129,842,o),
(115,861,o),
(130,877,cs),
(149,895,o),
(174,877,o),
(208,853,c),
(261,814,ls),
(285,797,o),
(294,788,o),
(304,788,cs)
);
}
);
width = 589;
}
);
unicode = 352;
},
{
glyphname = Scedilla;
lastChange = "2023-11-16 22:13:59 +0000";
layers = (
{
layerId = "49F060A0-2273-4F54-8B81-08E0B15B03EC";
shapes = (
{
closed = 1;
nodes = (
(406,-174,o),
(427,-172,o),
(443,-166,cs),
(465,-157,o),
(480,-141,o),
(480,-112,c),
(480,-104,o),
(479,-91,o),
(475,-79,cs),
(459,-29,o),
(405,-5,o),
(377,-23,cs),
(367,-30,o),
(354,-43,o),
(354,-63,cs),
(354,-78,o),
(362,-86,o),
(372,-91,cs),
(383,-97,o),
(396,-99,o),
(405,-105,cs),
(410,-109,o),
(414,-115,o),
(414,-123,cs),
(414,-133,o),
(403,-141,o),
(378,-141,cs),
(365,-141,o),
(357,-146,o),
(357,-157,cs),
(357,-171,o),
(369,-174,o),
(389,-174,cs)
);
},
{
ref = S;
}
);
width = 780;
}
);
unicode = 350;
},
{
glyphname = Scommaaccent;
lastChange = "2023-11-16 22:13:59 +0000";
layers = (
{
anchors = (
{
name = bottom;
pos = (393,-32);
}
);
layerId = "49F060A0-2273-4F54-8B81-08E0B15B03EC";
shapes = (
{
ref = S;
},
{
closed = 1;
nodes = (
(402,-232,o),
(349,-257,o),
(305,-263,cs),
(275,-267,o),
(246,-265,o),
(233,-240,cs),
(217,-208,o),
(237,-184,o),
(277,-164,cs),
(342,-131,o),
(347,-78,o),
(393,-52,cs),
(423,-35,o),
(458,-40,o),
(483,-73,cs),
(514,-114,o),
(495,-162,o),
(442,-202,cs)
);
}
);
width = 780;
}
);
unicode = 536;
},
{
glyphname = Germandbls;
lastChange = "2023-11-16 22:13:59 +0000";
layers = (
{
layerId = "49F060A0-2273-4F54-8B81-08E0B15B03EC";
shapes = (
{
closed = 1;
nodes = (
(445,93,o),
(483,93,o),
(411,93,c),
(368,93,o),
(345,69,o),
(345,38,cs),
(345,8,o),
(368,-15,o),
(411,-15,c),
(475,-15,o),
(445,-15,o),
(487,-15,c),
(560,-15,o),
(621,-15,o),
(661,10,cs),
(705,38,o),
(712,92,o),
(712,139,cs),
(712,204,o),
(688,253,o),
(639,257,c),
(629,258,o),
(629,267,o),
(639,267,c),
(733,267,o),
(734,454,o),
(734,533,cs),
(734,665,o),
(706,809,o),
(482,809,cs),
(351,809,o),
(363,808,o),
(203,808,cs),
(92,808,o),
(14,744,o),
(14,560,cs),
(14,429,o),
(54,193,o),
(89,83,cs),
(111,14,o),
(135,-18,o),
(181,-18,cs),
(232,-18,o),
(261,22,o),
(277,83,cs),
(302,180,o),
(294,328,o),
(305,393,cs),
(323,502,o),
(420,503,o),
(473,503,cs),
(523,503,o),
(561,491,o),
(561,435,cs),
(561,410,o),
(549,392,o),
(524,379,c),
(478,355,o),
(457,324,o),
(457,279,c),
(457,247,o),
(479,222,o),
(529,183,c),
(541,174,o),
(549,162,o),
(549,149,c),
(549,116,o),
(548,93,o),
(483,93,c)
);
}
);
width = 763;
}
);
unicode = 7838;
},
{
color = 10;
glyphname = T;
lastChange = "2023-11-16 22:13:59 +0000";
layers = (
{
layerId = "49F060A0-2273-4F54-8B81-08E0B15B03EC";
shapes = (
{
closed = 1;
nodes = (
(140,804,o),
(3,733,o),
(3,596,cs),
(3,503,o),
(66,433,o),
(171,433,cs),
(189,433,o),
(264,435,o),
(265,435,cs),
(302,434,o),
(318,419,o),
(322,368,cs),
(338,127,o),
(339,106,o),
(345,58,cs),
(352,1,o),
(371,-22,o),
(410,-22,cs),
(443,-22,o),
(462,1,o),
(469,58,cs),
(475,106,o),
(476,127,o),
(492,368,cs),
(496,419,o),
(512,434,o),
(549,435,cs),
(550,435,o),
(625,433,o),
(643,433,cs),
(748,433,o),
(811,503,o),
(811,596,cs),
(811,733,o),
(674,804,o),
(407,804,cs)
);
}
);
width = 814;
}
);
unicode = 84;
},
{
glyphname = Tcaron;
lastChange = "2023-11-16 22:13:59 +0000";
layers = (
{
anchors = (
{
name = top;
pos = (386,1079);
}
);
layerId = "49F060A0-2273-4F54-8B81-08E0B15B03EC";
shapes = (
{
ref = T;
},
{
closed = 1;
nodes = (
(401,986,o),
(411,995,o),
(429,1008,cs),
(450,1023,o),
(474,1041,o),
(487,1051,cs),
(521,1075,o),
(546,1093,o),
(565,1075,cs),
(580,1059,o),
(566,1040,o),
(548,1002,cs),
(535,977,o),
(518,945,o),
(498,910,cs),
(471,862,o),
(435,832,o),
(391,832,cs),
(347,832,o),
(311,862,o),
(284,910,cs),
(264,945,o),
(247,977,o),
(234,1002,cs),
(216,1040,o),
(202,1059,o),
(217,1075,cs),
(236,1093,o),
(261,1075,o),
(295,1051,c),
(348,1012,ls),
(372,995,o),
(381,986,o),
(391,986,cs)
);
}
);
width = 814;
}
);
unicode = 356;
},
{
glyphname = Tcommaaccent;
lastChange = "2023-11-16 22:13:59 +0000";
layers = (
{
anchors = (
{
name = bottom;
pos = (446,-39);
}
);
layerId = "49F060A0-2273-4F54-8B81-08E0B15B03EC";
shapes = (
{
ref = T;
},
{
closed = 1;
nodes = (
(416,-225,o),
(363,-250,o),
(319,-256,cs),
(289,-260,o),
(260,-258,o),
(247,-233,cs),
(231,-201,o),
(251,-177,o),
(291,-157,cs),
(356,-124,o),
(361,-71,o),
(407,-45,cs),
(437,-28,o),
(472,-33,o),
(497,-66,cs),
(528,-107,o),
(509,-155,o),
(456,-195,cs)
);
}
);
width = 814;
}
);
unicode = 538;
},
{
color = 10;
glyphname = U;
lastChange = "2023-11-16 22:13:59 +0000";
layers = (
{
layerId = "49F060A0-2273-4F54-8B81-08E0B15B03EC";
shapes = (
{
closed = 1;
nodes = (
(696,-12,o),
(866,202,o),
(866,457,cs),
(866,686,o),
(788,800,o),
(645,800,cs),
(590,800,o),
(499,764,o),
(499,659,cs),
(499,615,o),
(524,523,o),
(553,433,cs),
(570,380,o),
(595,298,o),
(595,231,cs),
(595,136,o),
(546,96,o),
(447,96,cs),
(348,96,o),
(299,136,o),
(299,231,cs),
(299,298,o),
(324,380,o),
(341,433,cs),
(370,523,o),
(395,615,o),
(395,659,cs),
(395,764,o),
(304,800,o),
(249,800,cs),
(106,800,o),
(28,686,o),
(28,457,cs),
(28,202,o),
(198,-12,o),
(447,-12,cs)
);
}
);
width = 883;
}
);
unicode = 85;
},
{
glyphname = Uacute;
lastChange = "2023-11-16 22:13:59 +0000";
layers = (
{
anchors = (
{
name = top;
pos = (514,957);
}
);
layerId = "49F060A0-2273-4F54-8B81-08E0B15B03EC";
shapes = (
{
ref = U;
},
{
closed = 1;
nodes = (
(509,891,o),
(456,866,o),
(412,860,cs),
(382,856,o),
(353,858,o),
(340,883,cs),
(324,915,o),
(344,939,o),
(384,959,cs),
(449,992,o),
(454,1045,o),
(500,1071,cs),
(530,1088,o),
(565,1083,o),
(590,1050,cs),
(621,1009,o),
(602,961,o),
(549,921,cs)
);
}
);
width = 883;
}
);
unicode = 218;
},
{
glyphname = Ubreve;
lastChange = "2023-11-16 22:13:59 +0000";
layers = (
{
anchors = (
{
name = _top;
pos = (441,1040);
}
);
layerId = "49F060A0-2273-4F54-8B81-08E0B15B03EC";
shapes = (
{
ref = U;
},
{
closed = 1;
nodes = (
(333,851,o),
(267,859,o),
(239,937,cs),
(221,987,o),
(230,1035,o),
(277,1050,cs),
(302,1058,o),
(329,1054,o),
(340,1021,cs),
(345,1007,o),
(347,985,o),
(352,967,cs),
(370,902,o),
(389,887,o),
(438,887,cs),
(479,887,o),
(504,900,o),
(522,967,cs),
(529,992,o),
(530,1008,o),
(534,1021,cs),
(544,1054,o),
(572,1057,o),
(596,1050,cs),
(644,1036,o),
(653,987,o),
(635,936,cs),
(608,859,o),
(543,851,o),
(438,851,c)
);
}
);
width = 878;
}
);
unicode = 364;
},
{
glyphname = Ucircumflex;
lastChange = "2023-11-16 22:13:59 +0000";
layers = (
{
anchors = (
{
name = top;
pos = (436,1076);
}
);
layerId = "49F060A0-2273-4F54-8B81-08E0B15B03EC";
shapes = (
{
ref = U;
},
{
closed = 1;
nodes = (
(426,927,o),
(417,918,o),
(393,901,cs),
(340,862,l),
(306,838,o),
(281,820,o),
(262,838,cs),
(247,854,o),
(261,873,o),
(279,911,cs),
(292,936,o),
(309,968,o),
(329,1003,cs),
(356,1051,o),
(392,1081,o),
(436,1081,cs),
(480,1081,o),
(516,1051,o),
(543,1003,cs),
(563,968,o),
(580,936,o),
(593,911,cs),
(611,873,o),
(625,854,o),
(610,838,cs),
(591,820,o),
(566,838,o),
(532,862,cs),
(519,872,o),
(495,890,o),
(474,905,cs),
(456,918,o),
(446,927,o),
(436,927,cs)
);
}
);
width = 883;
}
);
unicode = 219;
},
{
glyphname = Udieresis;
lastChange = "2023-11-16 22:13:59 +0000";
layers = (
{
anchors = (
{
name = top;
pos = (437,1078);
}
);
layerId = "49F060A0-2273-4F54-8B81-08E0B15B03EC";
shapes = (
{
ref = U;
},
{
closed = 1;
nodes = (
(263,961,o),
(293,932,o),
(339,932,cs),
(385,932,o),
(415,961,o),
(415,1006,cs),
(415,1050,o),
(385,1078,o),
(339,1078,cs),
(293,1078,o),
(263,1050,o),
(263,1006,cs)
);
},
{
closed = 1;
nodes = (
(459,961,o),
(489,932,o),
(535,932,cs),
(581,932,o),
(611,961,o),
(611,1006,cs),
(611,1050,o),
(581,1078,o),
(535,1078,cs),
(489,1078,o),
(459,1050,o),
(459,1006,cs)
);
}
);
width = 883;
}
);
unicode = 220;
},
{
glyphname = Ugrave;
lastChange = "2023-11-16 22:13:59 +0000";
layers = (
{
anchors = (
{
name = "new anchor";
pos = (392,1077);
}
);
layerId = "49F060A0-2273-4F54-8B81-08E0B15B03EC";
shapes = (
{
ref = U;
},
{
closed = 1;
nodes = (
(303,961,o),
(284,1009,o),
(315,1050,cs),
(340,1083,o),
(375,1088,o),
(405,1071,cs),
(451,1045,o),
(456,992,o),
(521,959,cs),
(561,939,o),
(581,915,o),
(565,883,cs),
(552,858,o),
(523,856,o),
(493,860,cs),
(449,866,o),
(396,891,o),
(356,921,cs)
);
}
);
width = 878;
}
);
unicode = 217;
},
{
glyphname = Uhungarumlaut;
lastChange = "2023-11-16 22:13:59 +0000";
layers = (
{
anchors = (
{
name = top;
pos = (444,1076);
}
);
layerId = "49F060A0-2273-4F54-8B81-08E0B15B03EC";
shapes = (
{
ref = U;
},
{
closed = 1;
nodes = (
(471,1040,o),
(474,1001,o),
(432,955,cs),
(396,915,o),
(358,889,o),
(337,875,cs),
(288,843,o),
(266,838,o),
(249,852,cs),
(233,867,o),
(236,890,o),
(263,942,cs),
(275,964,o),
(297,1005,o),
(333,1045,cs),
(374,1091,o),
(413,1092,o),
(442,1066,cs)
);
},
{
closed = 1;
nodes = (
(677,1040,o),
(679,1001,o),
(638,955,cs),
(602,915,o),
(563,889,o),
(543,875,cs),
(494,843,o),
(471,837,o),
(455,852,cs),
(438,867,o),
(442,889,o),
(469,942,cs),
(480,964,o),
(502,1004,o),
(538,1045,cs),
(580,1091,o),
(619,1092,o),
(648,1066,cs)
);
}
);
width = 883;
}
);
unicode = 368;
},
{
glyphname = Umacron;
lastChange = "2023-11-16 22:13:59 +0000";
layers = (
{
anchors = (
{
name = top;
pos = (399,1082);
}
);
layerId = "49F060A0-2273-4F54-8B81-08E0B15B03EC";
shapes = (
{
ref = U;
},
{
closed = 1;
nodes = (
(237,918,o),
(199,951,o),
(199,998,cs),
(199,1043,o),
(235,1079,o),
(363,1079,cs),
(470,1079,o),
(555,1065,o),
(577,1061,cs),
(663,1044,o),
(690,1029,o),
(690,1003,cs),
(690,977,o),
(660,957,o),
(583,941,cs),
(547,933,o),
(461,918,o),
(367,918,cs)
);
}
);
width = 883;
}
);
unicode = 362;
},
{
glyphname = Uogonek;
lastChange = "2023-11-16 22:13:59 +0000";
layers = (
{
anchors = (
{
name = bottom;
pos = (467,-15);
}
);
layerId = "49F060A0-2273-4F54-8B81-08E0B15B03EC";
shapes = (
{
ref = U;
},
{
closed = 1;
nodes = (
(506,-185,o),
(517,-177,o),
(517,-165,cs),
(517,-153,o),
(506,-146,o),
(489,-146,cs),
(461,-146,o),
(445,-136,o),
(445,-116,cs),
(445,-103,o),
(458,-92,o),
(469,-83,cs),
(490,-65,o),
(500,-43,o),
(475,-19,cs),
(456,-1,o),
(421,-8,o),
(395,-37,cs),
(358,-79,o),
(364,-132,o),
(401,-165,cs),
(424,-186,o),
(452,-193,o),
(490,-187,c)
);
}
);
width = 883;
}
);
unicode = 370;
},
{
glyphname = Uring;
lastChange = "2023-11-16 22:13:59 +0000";
layers = (
{
anchors = (
{
name = top;
pos = (447,1081);
}
);
layerId = "49F060A0-2273-4F54-8B81-08E0B15B03EC";
shapes = (
{
ref = U;
},
{
closed = 1;
nodes = (
(508,848,o),
(561,899,o),
(561,966,cs),
(561,1030,o),
(508,1081,o),
(447,1081,cs),
(386,1081,o),
(330,1030,o),
(330,965,cs),
(330,899,o),
(386,848,o),
(445,848,cs)
);
},
{
closed = 1;
nodes = (
(420,882,o),
(403,905,o),
(403,935,cs),
(403,966,o),
(420,989,o),
(445,989,cs),
(471,989,o),
(488,966,o),
(488,935,cs),
(488,905,o),
(471,882,o),
(445,882,cs)
);
}
);
width = 883;
}
);
unicode = 366;
},
{
color = 10;
glyphname = V;
lastChange = "2023-11-16 22:13:59 +0000";
layers = (
{
layerId = "49F060A0-2273-4F54-8B81-08E0B15B03EC";
shapes = (
{
closed = 1;
nodes = (
(261,-15,o),
(97,223,o),
(36,446,cs),
(-28,684,o),
(59,811,o),
(200,811,cs),
(273,811,o),
(364,779,o),
(364,671,cs),
(364,613,o),
(339,513,o),
(339,434,cs),
(339,344,o),
(349,209,o),
(368,156,cs),
(379,124,o),
(398,100,o),
(428,100,cs),
(460,100,o),
(479,124,o),
(490,156,cs),
(509,209,o),
(519,344,o),
(519,434,cs),
(519,513,o),
(494,613,o),
(494,671,cs),
(494,779,o),
(585,811,o),
(658,811,cs),
(799,811,o),
(886,684,o),
(822,446,cs),
(761,223,o),
(597,-15,o),
(429,-15,cs)
);
}
);
width = 858;
},
{
associatedMasterId = "49F060A0-2273-4F54-8B81-08E0B15B03EC";
layerId = "7F796A00-EECF-4D6F-B602-CD86FD9445B2";
name = "3 Nov 23 at 01:24";
shapes = (
{
closed = 1;
nodes = (
(271,-17,o),
(110,216,o),
(51,435,cs),
(-12,668,o),
(73,793,o),
(211,793,cs),
(283,793,o),
(372,762,o),
(372,656,cs),
(372,599,o),
(348,501,o),
(348,423,cs),
(348,335,o),
(358,203,o),
(376,151,cs),
(387,119,o),
(406,96,o),
(435,96,cs),
(466,96,o),
(485,119,o),
(496,151,cs),
(514,203,o),
(524,335,o),
(524,423,cs),
(524,501,o),
(500,599,o),
(500,656,cs),
(500,762,o),
(589,793,o),
(661,793,cs),
(799,793,o),
(884,668,o),
(821,435,cs),
(762,216,o),
(601,-17,o),
(436,-17,cs)
);
}
);
width = 872;
}
);
unicode = 86;
},
{
color = 10;
glyphname = W;
lastChange = "2023-11-16 22:13:59 +0000";
layers = (
{
layerId = "49F060A0-2273-4F54-8B81-08E0B15B03EC";
shapes = (
{
closed = 1;
nodes = (
(381,311,o),
(377,363,o),
(380,416,cs),
(386,537,o),
(418,600,o),
(484,600,cs),
(550,600,o),
(582,537,o),
(588,416,cs),
(591,365,o),
(588,312,o),
(592,284,cs),
(594,269,o),
(600,245,o),
(625,245,cs),
(651,245,o),
(660,275,o),
(662,282,cs),
(671,314,o),
(668,366,o),
(656,423,cs),
(634,528,o),
(593,594,o),
(593,674,cs),
(593,764,o),
(646,811,o),
(736,811,cs),
(866,811,o),
(950,712,o),
(950,516,cs),
(950,245,o),
(790,-13,o),
(623,-13,cs),
(567,-13,o),
(533,10,o),
(533,67,cs),
(533,95,o),
(526,266,o),
(526,273,cs),
(526,318,o),
(516,350,o),
(485,350,cs),
(454,350,o),
(444,315,o),
(444,273,cs),
(444,255,o),
(437,95,o),
(437,67,cs),
(437,11,o),
(403,-15,o),
(349,-15,cs),
(178,-15,o),
(18,244,o),
(18,516,cs),
(18,713,o),
(102,811,o),
(232,811,cs),
(322,811,o),
(375,764,o),
(375,674,cs),
(375,594,o),
(334,528,o),
(312,423,cs),
(295,343,o),
(301,300,o),
(306,282,cs),
(308,275,o),
(317,245,o),
(343,245,cs),
(369,245,o),
(375,272,o),
(376,283,c)
);
}
);
width = 968;
}
);
unicode = 87;
},
{
glyphname = Wacute;
lastChange = "2023-11-16 22:13:59 +0000";
layers = (
{
layerId = "49F060A0-2273-4F54-8B81-08E0B15B03EC";
shapes = (
{
ref = W;
},
{
closed = 1;
nodes = (
(549,890,o),
(496,865,o),
(452,859,cs),
(422,855,o),
(393,857,o),
(380,882,cs),
(364,914,o),
(384,938,o),
(424,958,cs),
(489,991,o),
(494,1044,o),
(540,1070,cs),
(570,1087,o),
(605,1082,o),
(630,1049,cs),
(661,1008,o),
(642,960,o),
(589,920,cs)
);
}
);
width = 968;
}
);
unicode = 7810;
},
{
glyphname = Wcircumflex;
lastChange = "2023-11-16 22:13:59 +0000";
layers = (
{
anchors = (
{
name = top;
pos = (476,1082);
}
);
layerId = "49F060A0-2273-4F54-8B81-08E0B15B03EC";
shapes = (
{
ref = W;
},
{
closed = 1;
nodes = (
(466,929,o),
(457,920,o),
(433,903,cs),
(380,864,l),
(346,840,o),
(321,822,o),
(302,840,cs),
(287,856,o),
(301,875,o),
(319,913,cs),
(332,938,o),
(349,970,o),
(369,1005,cs),
(396,1053,o),
(432,1083,o),
(476,1083,cs),
(520,1083,o),
(556,1053,o),
(583,1005,cs),
(603,970,o),
(620,938,o),
(633,913,cs),
(651,875,o),
(665,856,o),
(650,840,cs),
(631,822,o),
(606,840,o),
(572,864,cs),
(559,874,o),
(535,892,o),
(514,907,cs),
(496,920,o),
(486,929,o),
(476,929,cs)
);
}
);
width = 910;
}
);
unicode = 372;
},
{
glyphname = Wdieresis;
lastChange = "2023-11-16 22:13:59 +0000";
layers = (
{
anchors = (
{
name = top;
pos = (481,1077);
}
);
layerId = "49F060A0-2273-4F54-8B81-08E0B15B03EC";
shapes = (
{
ref = W;
},
{
closed = 1;
nodes = (
(307,961,o),
(337,932,o),
(383,932,cs),
(429,932,o),
(459,961,o),
(459,1006,cs),
(459,1050,o),
(429,1078,o),
(383,1078,cs),
(337,1078,o),
(307,1050,o),
(307,1006,cs)
);
},
{
closed = 1;
nodes = (
(503,961,o),
(533,932,o),
(579,932,cs),
(625,932,o),
(655,961,o),
(655,1006,cs),
(655,1050,o),
(625,1078,o),
(579,1078,cs),
(533,1078,o),
(503,1050,o),
(503,1006,cs)
);
}
);
width = 968;
}
);
unicode = 7812;
},
{
glyphname = Wgrave;
lastChange = "2023-11-16 22:13:59 +0000";
layers = (
{
layerId = "49F060A0-2273-4F54-8B81-08E0B15B03EC";
shapes = (
{
ref = W;
},
{
closed = 1;
nodes = (
(362,960,o),
(343,1008,o),
(374,1049,cs),
(399,1082,o),
(434,1087,o),
(464,1070,cs),
(510,1044,o),
(515,991,o),
(580,958,cs),
(620,938,o),
(640,914,o),
(624,882,cs),
(611,857,o),
(582,855,o),
(552,859,cs),
(508,865,o),
(455,890,o),
(415,920,cs)
);
}
);
width = 968;
}
);
unicode = 7808;
},
{
color = 10;
glyphname = X;
lastChange = "2023-11-16 22:13:59 +0000";
layers = (
{
layerId = "49F060A0-2273-4F54-8B81-08E0B15B03EC";
shapes = (
{
closed = 0;
nodes = (
(-517,810,l)
);
},
{
closed = 0;
nodes = (
(466,174,l)
);
},
{
closed = 1;
nodes = (
(457,183,o),
(462,180,o),
(466,174,cs),
(491,136,o),
(503,124,o),
(531,98,cs),
(603,34,o),
(694,0,o),
(777,-10,cs),
(824,-16,o),
(850,-10,o),
(862,10,cs),
(874,28,o),
(874,55,o),
(844,80,cs),
(809,109,o),
(741,128,o),
(678,196,cs),
(651,225,o),
(625,264,o),
(625,308,cs),
(625,357,o),
(656,407,o),
(741,426,cs),
(835,448,o),
(901,511,o),
(901,611,cs),
(901,733,o),
(804,810,o),
(706,810,cs),
(625,810,o),
(556,758,o),
(521,709,cs),
(512,697,o),
(496,673,o),
(488,650,cs),
(481,630,o),
(480,621,o),
(479,610,cs),
(478,595,o),
(466,586,o),
(452,586,cs),
(438,586,o),
(426,595,o),
(425,610,cs),
(424,621,o),
(423,630,o),
(416,650,cs),
(408,673,o),
(392,697,o),
(383,709,cs),
(348,758,o),
(279,810,o),
(198,810,cs),
(100,810,o),
(3,733,o),
(3,611,cs),
(3,511,o),
(69,448,o),
(163,426,cs),
(248,407,o),
(279,357,o),
(279,308,cs),
(279,264,o),
(253,225,o),
(226,196,cs),
(163,128,o),
(95,109,o),
(60,80,cs),
(30,55,o),
(30,28,o),
(42,10,cs),
(54,-10,o),
(80,-16,o),
(127,-10,cs),
(210,0,o),
(301,34,o),
(373,98,cs),
(401,124,o),
(413,136,o),
(438,174,cs),
(442,180,o),
(447,183,o),
(452,183,cs)
);
}
);
width = 904;
}
);
unicode = 88;
},
{
color = 10;
glyphname = Y;
lastChange = "2023-11-16 22:13:59 +0000";
layers = (
{
guides = (
{
pos = (352,-79);
}
);
layerId = "49F060A0-2273-4F54-8B81-08E0B15B03EC";
shapes = (
{
closed = 1;
nodes = (
(357,180,o),
(375,163,o),
(375,137,cs),
(375,111,o),
(356,90,o),
(306,90,cs),
(280,90,o),
(214,96,o),
(193,96,cs),
(156,96,o),
(134,77,o),
(134,47,cs),
(134,19,o),
(154,5,o),
(184,-2,cs),
(206,-7,o),
(265,-16,o),
(310,-16,cs),
(538,-16,o),
(633,217,o),
(672,377,cs),
(743,670,o),
(645,810,o),
(523,810,cs),
(471,810,o),
(405,785,o),
(405,704,cs),
(405,661,o),
(424,552,o),
(424,476,cs),
(424,423,o),
(415,357,o),
(402,322,cs),
(392,295,o),
(377,280,o),
(352,280,cs),
(327,280,o),
(312,296,o),
(302,322,cs),
(290,353,o),
(279,413,o),
(279,470,cs),
(279,545,o),
(298,660,o),
(298,704,cs),
(298,787,o),
(230,810,o),
(179,810,cs),
(73,810,o),
(13,712,o),
(13,559,cs),
(13,333,o),
(148,180,o),
(324,181,c)
);
}
);
width = 724;
}
);
unicode = 89;
},
{
glyphname = Yacute;
lastChange = "2023-11-16 22:13:59 +0000";
layers = (
{
anchors = (
{
name = top;
pos = (485,1058);
}
);
layerId = "49F060A0-2273-4F54-8B81-08E0B15B03EC";
shapes = (
{
ref = Y;
},
{
closed = 1;
nodes = (
(402,891,o),
(349,866,o),
(305,860,cs),
(275,856,o),
(246,858,o),
(233,883,cs),
(217,915,o),
(237,939,o),
(277,959,cs),
(342,992,o),
(347,1045,o),
(393,1071,cs),
(423,1088,o),
(458,1083,o),
(483,1050,cs),
(514,1009,o),
(495,961,o),
(442,921,cs)
);
}
);
width = 724;
}
);
unicode = 221;
},
{
glyphname = Ycircumflex;
lastChange = "2023-11-16 22:13:59 +0000";
layers = (
{
anchors = (
{
name = top;
pos = (347,1078);
}
);
layerId = "49F060A0-2273-4F54-8B81-08E0B15B03EC";
shapes = (
{
ref = Y;
},
{
closed = 1;
nodes = (
(333,928,o),
(323,920,o),
(300,902,cs),
(300,902,o),
(272,881,o),
(247,863,cs),
(213,839,o),
(188,821,o),
(169,839,cs),
(154,855,o),
(168,874,o),
(186,912,cs),
(199,937,o),
(216,969,o),
(236,1004,cs),
(263,1052,o),
(299,1082,o),
(343,1082,cs),
(387,1082,o),
(423,1052,o),
(450,1004,cs),
(470,969,o),
(487,937,o),
(500,912,cs),
(518,874,o),
(532,855,o),
(517,839,cs),
(498,821,o),
(473,839,o),
(439,863,cs),
(414,881,o),
(386,902,o),
(386,902,cs),
(363,920,o),
(352,928,o),
(343,928,cs)
);
}
);
width = 724;
}
);
unicode = 374;
},
{
glyphname = Ydieresis;
lastChange = "2023-11-16 22:13:59 +0000";
layers = (
{
anchors = (
{
name = top;
pos = (357,1080);
}
);
layerId = "49F060A0-2273-4F54-8B81-08E0B15B03EC";
shapes = (
{
ref = Y;
},
{
closed = 1;
nodes = (
(183,965,o),
(213,936,o),
(259,936,cs),
(305,936,o),
(335,965,o),
(335,1010,cs),
(335,1054,o),
(305,1082,o),
(259,1082,cs),
(213,1082,o),
(183,1054,o),
(183,1010,cs)
);
},
{
closed = 1;
nodes = (
(379,965,o),
(409,936,o),
(455,936,cs),
(501,936,o),
(531,965,o),
(531,1010,cs),
(531,1054,o),
(501,1082,o),
(455,1082,cs),
(409,1082,o),
(379,1054,o),
(379,1010,cs)
);
}
);
width = 724;
}
);
unicode = 376;
},
{
glyphname = Ygrave;
lastChange = "2023-11-16 22:13:59 +0000";
layers = (
{
layerId = "49F060A0-2273-4F54-8B81-08E0B15B03EC";
shapes = (
{
ref = Y;
},
{
closed = 1;
nodes = (
(225,961,o),
(206,1009,o),
(237,1050,cs),
(262,1083,o),
(297,1088,o),
(327,1071,cs),
(373,1045,o),
(378,992,o),
(443,959,cs),
(483,939,o),
(503,915,o),
(487,883,cs),
(474,858,o),
(445,856,o),
(415,860,cs),
(371,866,o),
(318,891,o),
(278,921,cs)
);
}
);
width = 724;
}
);
unicode = 7922;
},
{
color = 10;
glyphname = Z;
lastChange = "2023-11-16 22:13:59 +0000";
layers = (
{
layerId = "49F060A0-2273-4F54-8B81-08E0B15B03EC";
shapes = (
{
closed = 1;
nodes = (
(414,93,o),
(342,89,o),
(342,109,cs),
(342,119,o),
(350,124,o),
(366,132,cs),
(494,192,o),
(574,244,o),
(645,348,cs),
(687,410,o),
(699,487,o),
(699,537,cs),
(699,688,o),
(590,810,o),
(353,810,cs),
(153,810,o),
(13,725,o),
(13,584,cs),
(13,498,o),
(67,428,o),
(156,428,cs),
(220,428,o),
(291,465,o),
(355,465,cs),
(413,465,o),
(447,436,o),
(447,390,cs),
(447,364,o),
(436,348,o),
(419,330,cs),
(393,303,o),
(371,291,o),
(335,271,cs),
(161,174,o),
(138,139,o),
(138,94,cs),
(138,-2,o),
(245,-16,o),
(377,-16,cs),
(476,-16,o),
(519,-8,o),
(535,-4,cs),
(565,4,o),
(586,18,o),
(586,46,cs),
(586,76,o),
(562,97,o),
(519,97,cs),
(503,97,o),
(447,94,o),
(430,93,cs)
);
}
);
width = 707;
}
);
unicode = 90;
},
{
glyphname = Zacute;
lastChange = "2023-11-16 22:13:59 +0000";
layers = (
{
layerId = "49F060A0-2273-4F54-8B81-08E0B15B03EC";
shapes = (
{
ref = Z;
},
{
closed = 1;
nodes = (
(398,891,o),
(345,866,o),
(301,860,cs),
(271,856,o),
(242,858,o),
(229,883,cs),
(213,915,o),
(233,939,o),
(273,959,cs),
(338,992,o),
(343,1045,o),
(389,1071,cs),
(419,1088,o),
(454,1083,o),
(479,1050,cs),
(510,1009,o),
(491,961,o),
(438,921,cs)
);
}
);
width = 707;
}
);
unicode = 377;
},
{
glyphname = Zcaron;
lastChange = "2023-11-16 22:13:59 +0000";
layers = (
{
anchors = (
{
name = top;
pos = (349,1082);
}
);
layerId = "49F060A0-2273-4F54-8B81-08E0B15B03EC";
shapes = (
{
ref = Z;
},
{
closed = 1;
nodes = (
(366,985,o),
(376,994,o),
(394,1007,cs),
(415,1022,o),
(439,1040,o),
(452,1050,cs),
(486,1074,o),
(511,1092,o),
(530,1074,cs),
(545,1058,o),
(531,1039,o),
(513,1001,cs),
(500,976,o),
(483,944,o),
(463,909,cs),
(436,861,o),
(400,831,o),
(356,831,cs),
(312,831,o),
(276,861,o),
(249,909,cs),
(229,944,o),
(212,976,o),
(199,1001,cs),
(181,1039,o),
(167,1058,o),
(182,1074,cs),
(201,1092,o),
(226,1074,o),
(260,1050,c),
(313,1011,ls),
(337,994,o),
(346,985,o),
(356,985,cs)
);
}
);
width = 707;
}
);
unicode = 381;
},
{
glyphname = Zdotaccent;
lastChange = "2023-11-16 22:13:59 +0000";
layers = (
{
anchors = (
{
name = top;
pos = (326,1076);
}
);
layerId = "49F060A0-2273-4F54-8B81-08E0B15B03EC";
shapes = (
{
ref = Z;
},
{
closed = 1;
nodes = (
(256,965,o),
(286,936,o),
(332,936,cs),
(378,936,o),
(408,965,o),
(408,1010,cs),
(408,1054,o),
(378,1082,o),
(332,1082,cs),
(286,1082,o),
(256,1054,o),
(256,1010,cs)
);
}
);
width = 707;
}
);
unicode = 379;
},
{
color = 10;
glyphname = a;
lastChange = "2023-11-16 22:13:59 +0000";
layers = (
{
anchors = (
{
name = bottom;
pos = (361,0);
},
{
name = ogonek;
pos = (655,10);
},
{
name = top;
pos = (361,600);
}
);
layerId = "49F060A0-2273-4F54-8B81-08E0B15B03EC";
shapes = (
{
closed = 1;
nodes = (
(349,136,o),
(320,184,o),
(318,216,cs),
(316,253,o),
(337,272,o),
(380,272,cs),
(419,274,o),
(435,255,o),
(442,209,cs),
(449,160,o),
(426,136,o),
(388,136,cs)
);
},
{
closed = 1;
nodes = (
(431,541,o),
(427,533,o),
(416,533,cs),
(406,533,o),
(400,541,o),
(394,548,cs),
(360,590,o),
(307,614,o),
(237,614,cs),
(111,614,o),
(29,518,o),
(29,361,cs),
(29,271,o),
(67,165,o),
(128,89,cs),
(175,31,o),
(235,-9,o),
(303,-12,cs),
(356,-14,o),
(403,9,o),
(434,50,cs),
(440,58,o),
(447,65,o),
(457,65,cs),
(468,65,o),
(476,59,o),
(479,50,cs),
(492,10,o),
(512,-14,o),
(547,-14,cs),
(584,-14,o),
(604,14,o),
(618,62,cs),
(645,153,o),
(676,301,o),
(676,447,cs),
(676,554,o),
(616,614,o),
(547,614,c),
(506,614,o),
(466,594,o),
(438,552,cs)
);
}
);
width = 721;
},
{
associatedMasterId = "49F060A0-2273-4F54-8B81-08E0B15B03EC";
backgroundImage = {
imagePath = "Source-Glyphs/Scan 14.png";
locked = 1;
pos = (-329,-812);
scale = (2.3783,2.3783);
};
layerId = "8128A1CE-A9D8-44E1-BBD5-1E38E1A92DE7";
name = "1 Nov 23 at 23:38";
shapes = (
{
closed = 1;
nodes = (
(542,-16,o),
(578,117,o),
(578,263,cs),
(578,491,o),
(491,612,o),
(317,612,cs),
(189,612,o),
(30,546,o),
(30,413,cs),
(30,334,o),
(86,286,o),
(157,286,cs),
(201,286,o),
(246,304,o),
(314,304,cs),
(359,304,o),
(378,296,o),
(378,278,cs),
(378,251,o),
(336,251,o),
(301,251,cs),
(170,251,o),
(91,218,o),
(91,128,cs),
(91,44,o),
(159,-13,o),
(267,-13,cs),
(351,-13,o),
(388,21,o),
(415,81,c),
(435,12,o),
(457,-16,o),
(484,-16,cs)
);
},
{
closed = 1;
nodes = (
(310,85,o),
(302,125,o),
(302,150,cs),
(302,188,o),
(321,193,o),
(393,193,c),
(396,174,o),
(400,143,o),
(404,122,c),
(395,91,o),
(361,85,o),
(347,85,cs)
);
}
);
width = 618;
}
);
unicode = 97;
},
{
glyphname = aacute;
lastChange = "2023-11-16 22:13:59 +0000";
layers = (
{
anchors = (
{
name = top;
pos = (437,889);
}
);
layerId = "49F060A0-2273-4F54-8B81-08E0B15B03EC";
shapes = (
{
ref = a;
},
{
closed = 1;
nodes = (
(416,692,o),
(363,667,o),
(319,661,cs),
(289,657,o),
(260,659,o),
(247,684,cs),
(231,716,o),
(251,740,o),
(291,760,cs),
(356,793,o),
(361,846,o),
(407,872,cs),
(437,889,o),
(472,884,o),
(497,851,cs),
(528,810,o),
(509,762,o),
(456,722,cs)
);
}
);
width = 721;
}
);
unicode = 225;
},
{
glyphname = abreve;
lastChange = "2023-11-16 22:13:59 +0000";
layers = (
{
anchors = (
{
name = top;
pos = (352,884);
}
);
layerId = "49F060A0-2273-4F54-8B81-08E0B15B03EC";
shapes = (
{
ref = a;
},
{
closed = 1;
nodes = (
(244,642,o),
(164,678,o),
(136,745,cs),
(111,807,o),
(130,864,o),
(182,881,cs),
(215,893,o),
(247,877,o),
(258,846,cs),
(264,829,o),
(266,803,o),
(272,781,cs),
(289,720,o),
(326,708,o),
(375,708,cs),
(423,708,o),
(459,720,o),
(476,781,cs),
(484,811,o),
(486,831,o),
(490,846,cs),
(500,877,o),
(531,892,o),
(565,881,cs),
(618,864,o),
(637,807,o),
(612,744,cs),
(584,676,o),
(500,642,o),
(375,642,cs)
);
}
);
width = 721;
}
);
unicode = 259;
},
{
glyphname = acircumflex;
lastChange = "2023-11-16 22:13:59 +0000";
layers = (
{
anchors = (
{
name = top;
pos = (387,881);
}
);
layerId = "49F060A0-2273-4F54-8B81-08E0B15B03EC";
shapes = (
{
ref = a;
},
{
closed = 1;
nodes = (
(374,730,o),
(365,721,o),
(341,704,cs),
(288,665,l),
(254,641,o),
(229,623,o),
(210,641,cs),
(195,657,o),
(209,676,o),
(227,714,cs),
(240,739,o),
(257,771,o),
(277,806,cs),
(304,854,o),
(340,884,o),
(384,884,cs),
(428,884,o),
(464,854,o),
(491,806,cs),
(511,771,o),
(528,739,o),
(541,714,cs),
(559,676,o),
(573,657,o),
(558,641,cs),
(539,623,o),
(514,641,o),
(480,665,cs),
(467,675,o),
(443,693,o),
(422,708,cs),
(404,721,o),
(394,730,o),
(384,730,cs)
);
}
);
width = 721;
}
);
unicode = 226;
},
{
glyphname = adieresis;
lastChange = "2023-11-16 22:13:59 +0000";
layers = (
{
anchors = (
{
name = top;
pos = (372,872);
}
);
layerId = "49F060A0-2273-4F54-8B81-08E0B15B03EC";
shapes = (
{
ref = a;
},
{
closed = 1;
nodes = (
(201,763,o),
(231,734,o),
(277,734,cs),
(323,734,o),
(353,763,o),
(353,808,cs),
(353,852,o),
(323,880,o),
(277,880,cs),
(231,880,o),
(201,852,o),
(201,808,cs)
);
},
{
closed = 1;
nodes = (
(397,763,o),
(427,734,o),
(473,734,cs),
(519,734,o),
(549,763,o),
(549,808,cs),
(549,852,o),
(519,880,o),
(473,880,cs),
(427,880,o),
(397,852,o),
(397,808,cs)
);
}
);
width = 721;
}
);
unicode = 228;
},
{
glyphname = agrave;
lastChange = "2023-11-16 22:13:59 +0000";
layers = (
{
layerId = "49F060A0-2273-4F54-8B81-08E0B15B03EC";
shapes = (
{
ref = a;
},
{
closed = 1;
nodes = (
(229,768,o),
(210,816,o),
(241,857,cs),
(266,890,o),
(301,895,o),
(331,878,cs),
(377,852,o),
(382,799,o),
(447,766,cs),
(487,746,o),
(507,722,o),
(491,690,cs),
(478,665,o),
(449,663,o),
(419,667,cs),
(375,673,o),
(322,698,o),
(282,728,cs)
);
}
);
width = 721;
}
);
unicode = 224;
},
{
glyphname = amacron;
lastChange = "2023-11-16 22:13:59 +0000";
layers = (
{
anchors = (
{
name = top;
pos = (365,873);
}
);
layerId = "49F060A0-2273-4F54-8B81-08E0B15B03EC";
shapes = (
{
ref = a;
},
{
closed = 1;
nodes = (
(174,724,o),
(136,757,o),
(136,804,cs),
(136,849,o),
(172,885,o),
(300,885,cs),
(407,885,o),
(492,871,o),
(514,867,cs),
(600,850,o),
(627,835,o),
(627,809,cs),
(627,783,o),
(597,763,o),
(520,747,cs),
(484,739,o),
(398,724,o),
(304,724,cs)
);
}
);
width = 721;
}
);
unicode = 257;
},
{
glyphname = aogonek;
lastChange = "2023-11-16 22:13:59 +0000";
layers = (
{
anchors = (
{
name = bottom;
pos = (405,-15);
}
);
layerId = "49F060A0-2273-4F54-8B81-08E0B15B03EC";
shapes = (
{
ref = a;
},
{
closed = 1;
nodes = (
(583,-176,o),
(594,-168,o),
(594,-156,cs),
(594,-144,o),
(583,-137,o),
(566,-137,cs),
(538,-137,o),
(522,-127,o),
(522,-107,cs),
(522,-94,o),
(535,-83,o),
(546,-74,cs),
(567,-56,o),
(577,-34,o),
(552,-10,cs),
(533,8,o),
(498,1,o),
(472,-28,cs),
(435,-70,o),
(441,-123,o),
(478,-156,cs),
(501,-177,o),
(529,-184,o),
(567,-178,c)
);
}
);
width = 587;
}
);
unicode = 261;
},
{
glyphname = aring;
lastChange = "2023-11-16 22:13:59 +0000";
layers = (
{
anchors = (
{
name = top;
pos = (394,884);
}
);
layerId = "49F060A0-2273-4F54-8B81-08E0B15B03EC";
shapes = (
{
ref = a;
},
{
closed = 1;
nodes = (
(455,651,o),
(508,702,o),
(508,769,cs),
(508,833,o),
(455,884,o),
(394,884,cs),
(333,884,o),
(277,833,o),
(277,768,cs),
(277,702,o),
(333,651,o),
(392,651,cs)
);
},
{
closed = 1;
nodes = (
(367,685,o),
(350,708,o),
(350,738,cs),
(350,769,o),
(367,792,o),
(392,792,cs),
(418,792,o),
(435,769,o),
(435,738,cs),
(435,708,o),
(418,685,o),
(392,685,cs)
);
}
);
width = 721;
}
);
unicode = 229;
},
{
glyphname = atilde;
lastChange = "2023-11-16 22:13:59 +0000";
layers = (
{
anchors = (
{
name = top;
pos = (285,877);
}
);
layerId = "49F060A0-2273-4F54-8B81-08E0B15B03EC";
shapes = (
{
ref = a;
},
{
closed = 1;
nodes = (
(427,658,o),
(492,643,o),
(557,684,cs),
(617,722,o),
(637,784,o),
(607,834,cs),
(588,862,o),
(554,871,o),
(527,853,cs),
(513,844,o),
(485,817,o),
(471,807,cs),
(448,794,o),
(432,793,o),
(417,805,cs),
(315,884,o),
(250,899,o),
(184,855,cs),
(124,821,o),
(103,757,o),
(134,707,cs),
(152,680,o),
(185,670,o),
(214,689,cs),
(226,697,o),
(256,724,o),
(270,732,cs),
(291,749,o),
(306,749,o),
(323,736,cs)
);
}
);
width = 721;
}
);
unicode = 227;
},
{
glyphname = ae;
lastChange = "2023-11-16 22:13:59 +0000";
layers = (
{
layerId = "49F060A0-2273-4F54-8B81-08E0B15B03EC";
shapes = (
{
closed = 0;
nodes = (
(766,119,l)
);
},
{
closed = 1;
nodes = (
(727,619,o),
(668,613,o),
(637,582,cs),
(635,580,o),
(632,579,o),
(629,579,cs),
(624,579,o),
(624,582,o),
(622,583,cs),
(601,602,o),
(574,612,o),
(546,612,cs),
(499,612,o),
(460,584,o),
(438,550,cs),
(432,541,o),
(428,531,o),
(416,531,cs),
(406,531,o),
(400,539,o),
(394,546,cs),
(359,587,o),
(307,612,o),
(241,612,cs),
(104,612,o),
(29,506,o),
(29,367,cs),
(29,269,o),
(66,163,o),
(128,87,cs),
(175,29,o),
(235,-11,o),
(303,-14,cs),
(356,-16,o),
(403,7,o),
(434,48,cs),
(440,56,o),
(447,63,o),
(457,63,cs),
(468,63,o),
(476,57,o),
(479,48,cs),
(492,8,o),
(512,-16,o),
(547,-16,cs),
(584,-16,o),
(604,12,o),
(618,60,cs),
(621,72,o),
(622,76,o),
(623,78,cs),
(624,80,o),
(625,81,o),
(627,81,cs),
(630,81,o),
(631,80,o),
(633,78,c),
(682,30,o),
(756,-12,o),
(862,-12,cs),
(902,-12,o),
(954,-6,o),
(989,12,cs),
(1024,30,o),
(1039,59,o),
(1029,81,cs),
(1020,101,o),
(989,120,o),
(956,98,cs),
(920,74,o),
(902,63,o),
(870,63,cs),
(825,63,o),
(786,84,o),
(766,116,cs),
(761,124,o),
(760,128,o),
(764,132,cs),
(769,137,o),
(775,136,o),
(780,134,cs),
(796,128,o),
(813,119,o),
(853,119,cs),
(989,119,o),
(1083,218,o),
(1083,362,cs),
(1083,492,o),
(980,620,o),
(780,620,cs)
);
},
{
closed = 0;
nodes = (
(777,118,l)
);
},
{
closed = 1;
nodes = (
(727,212,o),
(708,240,o),
(708,272,cs),
(708,308,o),
(732,347,o),
(774,347,cs),
(806,347,o),
(826,325,o),
(826,294,cs),
(826,260,o),
(801,212,o),
(759,212,cs)
);
},
{
closed = 1;
nodes = (
(349,136,o),
(320,184,o),
(318,216,cs),
(316,253,o),
(337,272,o),
(380,272,cs),
(419,274,o),
(435,255,o),
(442,209,cs),
(449,160,o),
(426,136,o),
(388,136,cs)
);
}
);
width = 1119;
}
);
unicode = 230;
},
{
color = 10;
glyphname = b;
lastChange = "2023-11-16 22:13:59 +0000";
layers = (
{
hints = (
{
horizontal = 1;
place = (686, 34);
place = (686, 34);
type = Stem;
}
);
layerId = "49F060A0-2273-4F54-8B81-08E0B15B03EC";
shapes = (
{
closed = 1;
nodes = (
(342,737,o),
(276,808,o),
(198,808,cs),
(119,808,o),
(41,737,o),
(41,595,cs),
(41,403,o),
(76,205,o),
(104,84,cs),
(119,21,o),
(142,-16,o),
(185,-16,cs),
(219,-16,o),
(240,7,o),
(255,47,cs),
(259,57,o),
(267,63,o),
(278,63,cs),
(288,63,o),
(295,56,o),
(301,48,cs),
(332,7,o),
(379,-16,o),
(432,-14,cs),
(500,-11,o),
(560,29,o),
(607,87,cs),
(668,163,o),
(706,269,o),
(706,359,cs),
(706,516,o),
(624,612,o),
(498,612,cs),
(452,612,o),
(411,602,o),
(382,581,c),
(376,576,o),
(371,571,o),
(363,571,cs),
(352,571,o),
(342,577,o),
(342,593,cs)
);
},
{
closed = 1;
nodes = (
(309,134,o),
(286,158,o),
(293,207,cs),
(300,253,o),
(316,272,o),
(355,270,cs),
(398,270,o),
(419,251,o),
(417,214,cs),
(415,182,o),
(386,134,o),
(347,134,cs)
);
}
);
width = 734;
}
);
unicode = 98;
},
{
color = 10;
glyphname = c;
lastChange = "2023-11-16 22:13:59 +0000";
layers = (
{
backgroundImage = {
angle = -91;
imagePath = "/Volumes/ADAM-DOC/DOCUMENTS/Google-project_african languages/20octobre/23 October2023/28 October2023/maremasie2/Scan 4.png";
locked = 1;
pos = (-1754,1350);
scale = (17.3141,17.3141);
};
layerId = "49F060A0-2273-4F54-8B81-08E0B15B03EC";
shapes = (
{
closed = 1;
nodes = (
(595,544,o),
(493,623,o),
(352,618,cs),
(210,613,o),
(23,522,o),
(23,308,cs),
(23,115,o),
(175,-13,o),
(345,-13,cs),
(388,-13,o),
(434,-5,o),
(465,9,cs),
(511,30,o),
(523,63,o),
(512,86,cs),
(502,107,o),
(472,125,o),
(439,103,cs),
(403,79,o),
(385,68,o),
(352,68,cs),
(277,68,o),
(214,123,o),
(214,187,cs),
(214,233,o),
(247,295,o),
(313,295,cs),
(372,295,o),
(385,247,o),
(451,247,cs),
(535,247,o),
(595,325,o),
(595,420,cs)
);
}
);
width = 608;
}
);
unicode = 99;
},
{
glyphname = cacute;
lastChange = "2023-11-16 22:13:59 +0000";
layers = (
{
layerId = "49F060A0-2273-4F54-8B81-08E0B15B03EC";
shapes = (
{
ref = c;
},
{
closed = 1;
nodes = (
(354,697,o),
(301,672,o),
(257,666,cs),
(227,662,o),
(198,664,o),
(185,689,cs),
(169,721,o),
(189,745,o),
(229,765,cs),
(294,798,o),
(299,851,o),
(345,877,cs),
(375,894,o),
(410,889,o),
(435,856,cs),
(466,815,o),
(447,767,o),
(394,727,cs)
);
}
);
width = 595;
}
);
unicode = 263;
},
{
glyphname = ccaron;
lastChange = "2023-11-16 22:13:59 +0000";
layers = (
{
anchors = (
{
name = top;
pos = (300,877);
}
);
layerId = "49F060A0-2273-4F54-8B81-08E0B15B03EC";
shapes = (
{
ref = c;
},
{
closed = 1;
nodes = (
(323,791,o),
(333,800,o),
(351,813,cs),
(372,828,o),
(396,846,o),
(409,856,cs),
(443,880,o),
(468,898,o),
(487,880,cs),
(502,864,o),
(488,845,o),
(470,807,cs),
(457,782,o),
(440,750,o),
(420,715,cs),
(393,667,o),
(357,637,o),
(313,637,cs),
(269,637,o),
(233,667,o),
(206,715,cs),
(186,750,o),
(169,782,o),
(156,807,cs),
(138,845,o),
(124,864,o),
(139,880,cs),
(158,898,o),
(183,880,o),
(217,856,c),
(270,817,ls),
(294,800,o),
(303,791,o),
(313,791,cs)
);
}
);
width = 595;
}
);
unicode = 269;
},
{
glyphname = ccedilla;
lastChange = "2023-11-16 22:13:59 +0000";
layers = (
{
layerId = "49F060A0-2273-4F54-8B81-08E0B15B03EC";
shapes = (
{
ref = c;
},
{
closed = 1;
nodes = (
(396,-106,o),
(395,-93,o),
(391,-81,cs),
(375,-31,o),
(321,-7,o),
(293,-25,cs),
(283,-32,o),
(270,-45,o),
(270,-65,cs),
(270,-80,o),
(278,-88,o),
(288,-93,cs),
(299,-99,o),
(312,-101,o),
(321,-107,cs),
(326,-111,o),
(330,-117,o),
(330,-125,cs),
(330,-135,o),
(319,-143,o),
(294,-143,cs),
(281,-143,o),
(273,-148,o),
(273,-159,cs),
(273,-173,o),
(285,-176,o),
(305,-176,cs),
(322,-176,o),
(343,-174,o),
(359,-168,cs),
(381,-159,o),
(396,-143,o),
(396,-114,c)
);
}
);
width = 595;
}
);
unicode = 231;
},
{
glyphname = cdotaccent;
lastChange = "2023-11-16 22:13:59 +0000";
layers = (
{
anchors = (
{
name = top;
pos = (335,877);
}
);
layerId = "49F060A0-2273-4F54-8B81-08E0B15B03EC";
shapes = (
{
ref = c;
},
{
closed = 1;
nodes = (
(248,766,o),
(278,737,o),
(324,737,cs),
(370,737,o),
(400,766,o),
(400,811,cs),
(400,855,o),
(370,883,o),
(324,883,cs),
(278,883,o),
(248,855,o),
(248,811,cs)
);
}
);
width = 595;
}
);
unicode = 267;
},
{
color = 10;
glyphname = d;
lastChange = "2023-11-16 22:13:59 +0000";
layers = (
{
layerId = "49F060A0-2273-4F54-8B81-08E0B15B03EC";
shapes = (
{
closed = 1;
nodes = (
(398,580,o),
(388,574,o),
(377,574,cs),
(369,574,o),
(364,579,o),
(358,584,c),
(329,605,o),
(288,615,o),
(242,615,cs),
(116,615,o),
(34,519,o),
(34,362,cs),
(34,272,o),
(72,166,o),
(133,90,cs),
(180,32,o),
(240,-8,o),
(308,-11,cs),
(361,-13,o),
(408,10,o),
(439,51,cs),
(445,59,o),
(452,66,o),
(462,66,cs),
(473,66,o),
(481,60,o),
(485,50,cs),
(500,10,o),
(521,-13,o),
(555,-13,cs),
(598,-13,o),
(621,24,o),
(636,87,cs),
(664,208,o),
(699,406,o),
(699,598,cs),
(699,740,o),
(621,811,o),
(542,811,cs),
(464,811,o),
(398,740,o),
(398,596,cs)
);
},
{
closed = 1;
nodes = (
(353,136,o),
(324,184,o),
(322,216,cs),
(320,253,o),
(341,272,o),
(384,272,cs),
(423,274,o),
(439,255,o),
(446,209,cs),
(453,160,o),
(430,136,o),
(392,136,cs)
);
}
);
width = 755;
}
);
unicode = 100;
},
{
glyphname = dcaron;
lastChange = "2023-11-16 22:13:59 +0000";
layers = (
{
anchors = (
{
name = top;
pos = (804,828);
}
);
layerId = "49F060A0-2273-4F54-8B81-08E0B15B03EC";
shapes = (
{
ref = d;
},
{
closed = 1;
nodes = (
(840,812,o),
(868,785,o),
(868,723,cs),
(868,669,o),
(857,624,o),
(851,600,cs),
(836,543,o),
(823,524,o),
(801,524,cs),
(779,524,o),
(766,543,o),
(751,600,cs),
(745,624,o),
(734,669,o),
(734,723,cs),
(734,785,o),
(762,812,o),
(801,812,cs)
);
}
);
width = 881;
}
);
unicode = 271;
},
{
glyphname = dcroat;
lastChange = "2023-11-16 22:13:59 +0000";
layers = (
{
layerId = "49F060A0-2273-4F54-8B81-08E0B15B03EC";
shapes = (
{
closed = 1;
nodes = (
(626,791,o),
(584,811,o),
(542,811,cs),
(505,811,o),
(470,795,o),
(444,762,cs),
(440,757,o),
(437,757,o),
(432,757,cs),
(336,757,o),
(307,717,o),
(307,677,cs),
(307,642,o),
(328,615,o),
(391,603,cs),
(396,602,o),
(398,601,o),
(398,596,cs),
(398,580,o),
(388,574,o),
(377,574,cs),
(369,574,o),
(364,579,o),
(358,584,c),
(329,605,o),
(288,615,o),
(242,615,cs),
(116,615,o),
(34,519,o),
(34,362,cs),
(34,272,o),
(72,166,o),
(133,90,cs),
(180,32,o),
(240,-8,o),
(308,-11,cs),
(361,-13,o),
(408,10,o),
(439,51,cs),
(445,59,o),
(452,66,o),
(462,66,cs),
(473,66,o),
(481,60,o),
(485,50,cs),
(500,10,o),
(521,-13,o),
(555,-13,cs),
(598,-13,o),
(621,24,o),
(636,87,cs),
(664,208,o),
(699,406,o),
(699,598,cs),
(699,603,o),
(699,607,o),
(699,613,cs),
(699,619,o),
(700,622,o),
(705,623,cs),
(772,639,o),
(798,658,o),
(798,682,cs),
(798,708,o),
(771,723,o),
(685,740,cs),
(681,741,o),
(676,742,o),
(669,743,c),
(663,744,o),
(660,744,o),
(655,751,c)
);
},
{
closed = 0;
nodes = (
(669,743,l)
);
},
{
closed = 1;
nodes = (
(354,136,o),
(325,184,o),
(323,216,cs),
(321,253,o),
(342,272,o),
(385,272,cs),
(424,274,o),
(440,255,o),
(447,209,cs),
(454,160,o),
(431,136,o),
(393,136,cs)
);
}
);
width = 827;
}
);
unicode = 273;
},
{
glyphname = eth;
lastChange = "2023-11-16 22:13:59 +0000";
layers = (
{
layerId = "49F060A0-2273-4F54-8B81-08E0B15B03EC";
shapes = (
{
closed = 0;
nodes = (
(268,495,l)
);
},
{
closed = 1;
nodes = (
(261,501,o),
(263,500,o),
(268,495,cs),
(276,487,o),
(282,479,o),
(288,469,cs),
(309,434,o),
(308,426,o),
(304,421,cs),
(294,409,o),
(283,425,o),
(268,436,cs),
(249,450,o),
(219,454,o),
(195,454,cs),
(94,454,o),
(34,383,o),
(34,271,cs),
(34,195,o),
(62,120,o),
(106,65,cs),
(142,20,o),
(190,-12,o),
(279,-12,cs),
(363,-12,o),
(438,16,o),
(514,111,cs),
(584,199,o),
(651,343,o),
(609,533,cs),
(598,582,o),
(582,624,o),
(568,650,cs),
(561,662,o),
(561,667,o),
(565,672,c),
(568,674,o),
(576,681,o),
(578,683,cs),
(623,721,o),
(629,756,o),
(616,774,cs),
(598,800,o),
(510,769,o),
(489,761,cs),
(480,758,o),
(476,759,o),
(471,764,cs),
(435,802,o),
(369,817,o),
(304,795,cs),
(234,771,o),
(186,711,o),
(198,649,cs),
(200,636,o),
(192,632,o),
(188,629,cs),
(131,588,o),
(123,551,o),
(143,517,cs),
(159,490,o),
(191,467,o),
(248,495,cs)
);
},
{
closed = 1;
nodes = (
(251,121,o),
(225,164,o),
(224,194,cs),
(222,227,o),
(241,245,o),
(280,245,cs),
(315,247,o),
(330,229,o),
(337,188,cs),
(343,143,o),
(322,121,o),
(287,121,cs)
);
}
);
width = 638;
}
);
unicode = 240;
},
{
color = 10;
glyphname = e;
lastChange = "2023-11-16 22:13:59 +0000";
layers = (
{
layerId = "49F060A0-2273-4F54-8B81-08E0B15B03EC";
shapes = (
{
closed = 1;
nodes = (
(230,213,o),
(211,241,o),
(211,273,cs),
(211,309,o),
(235,348,o),
(277,348,cs),
(309,348,o),
(329,326,o),
(329,295,cs),
(329,261,o),
(304,213,o),
(262,213,cs)
);
},
{
closed = 1;
nodes = (
(402,-14,o),
(453,-7,o),
(486,10,cs),
(521,28,o),
(536,57,o),
(526,78,cs),
(517,98,o),
(486,117,o),
(453,95,cs),
(417,71,o),
(400,61,o),
(368,61,cs),
(323,61,o),
(284,81,o),
(264,113,cs),
(259,121,o),
(258,125,o),
(262,129,cs),
(267,134,o),
(273,133,o),
(278,131,cs),
(294,125,o),
(311,116,o),
(352,116,cs),
(488,116,o),
(613,215,o),
(613,359,cs),
(613,489,o),
(510,617,o),
(310,617,cs),
(112,617,o),
(33,474,o),
(33,335,cs),
(33,102,o),
(207,-14,o),
(363,-14,cs)
);
}
);
width = 640;
},
{
associatedMasterId = "49F060A0-2273-4F54-8B81-08E0B15B03EC";
layerId = "B7D7E82B-DF8C-4018-977C-E49B44DCF1C8";
name = "16 Nov 23 at 18:25";
shapes = (
{
closed = 0;
nodes = (
(274,113,l)
);
},
{
closed = 1;
nodes = (
(249,207,o),
(227,213,o),
(215,241,cs),
(212,249,o),
(213,256,o),
(214,263,cs),
(220,304,ls),
(223,325,o),
(239,343,o),
(278,343,cs),
(315,343,o),
(340,333,o),
(340,287,cs),
(340,255,o),
(309,207,o),
(270,207,cs)
);
},
{
closed = 1;
nodes = (
(411,-15,o),
(466,-8,o),
(497,9,cs),
(534,29,o),
(547,56,o),
(537,78,cs),
(529,97,o),
(498,117,o),
(463,95,cs),
(431,72,o),
(411,60,o),
(377,60,cs),
(333,60,o),
(296,80,o),
(274,113,cs),
(270,118,o),
(268,125,o),
(272,129,cs),
(277,134,o),
(283,133,o),
(288,131,cs),
(311,121,o),
(334,116,o),
(359,116,cs),
(499,116,o),
(600,217,o),
(600,352,cs),
(600,491,o),
(522,616,o),
(297,616,cs),
(122,616,o),
(40,515,o),
(40,358,cs),
(40,268,o),
(55,178,o),
(116,102,cs),
(163,44,o),
(246,-15,o),
(369,-15,cs)
);
}
);
width = 634;
}
);
unicode = 101;
},
{
glyphname = eacute;
lastChange = "2023-11-16 22:13:59 +0000";
layers = (
{
anchors = (
{
name = top;
pos = (341,814);
}
);
layerId = "49F060A0-2273-4F54-8B81-08E0B15B03EC";
shapes = (
{
ref = e;
},
{
closed = 1;
nodes = (
(345,700,o),
(292,675,o),
(248,669,cs),
(218,665,o),
(189,667,o),
(176,692,cs),
(160,724,o),
(180,748,o),
(220,768,cs),
(285,801,o),
(290,854,o),
(336,880,cs),
(366,897,o),
(401,892,o),
(426,859,cs),
(457,818,o),
(438,770,o),
(385,730,cs)
);
}
);
width = 620;
}
);
unicode = 233;
},
{
glyphname = ecaron;
lastChange = "2023-11-16 22:13:59 +0000";
layers = (
{
anchors = (
{
name = top;
pos = (293,796);
}
);
layerId = "49F060A0-2273-4F54-8B81-08E0B15B03EC";
shapes = (
{
ref = e;
},
{
closed = 1;
nodes = (
(313,789,o),
(323,798,o),
(341,811,cs),
(362,826,o),
(386,844,o),
(399,854,cs),
(433,878,o),
(458,896,o),
(477,878,cs),
(492,862,o),
(478,843,o),
(460,805,cs),
(447,780,o),
(430,748,o),
(410,713,cs),
(383,665,o),
(347,635,o),
(303,635,cs),
(259,635,o),
(223,665,o),
(196,713,cs),
(176,748,o),
(159,780,o),
(146,805,cs),
(128,843,o),
(114,862,o),
(129,878,cs),
(148,896,o),
(173,878,o),
(207,854,c),
(260,815,ls),
(284,798,o),
(293,789,o),
(303,789,cs)
);
}
);
width = 620;
}
);
unicode = 283;
},
{
glyphname = ecircumflex;
lastChange = "2023-11-16 22:13:59 +0000";
layers = (
{
anchors = (
{
name = top;
pos = (312,884);
}
);
layerId = "49F060A0-2273-4F54-8B81-08E0B15B03EC";
shapes = (
{
ref = e;
},
{
closed = 1;
nodes = (
(302,730,o),
(293,721,o),
(269,704,cs),
(216,665,l),
(182,641,o),
(157,623,o),
(138,641,cs),
(123,657,o),
(137,676,o),
(155,714,cs),
(168,739,o),
(185,771,o),
(205,806,cs),
(232,854,o),
(268,884,o),
(312,884,cs),
(356,884,o),
(392,854,o),
(419,806,cs),
(439,771,o),
(456,739,o),
(469,714,cs),
(487,676,o),
(501,657,o),
(486,641,cs),
(467,623,o),
(442,641,o),
(408,665,cs),
(395,675,o),
(371,693,o),
(350,708,cs),
(332,721,o),
(322,730,o),
(312,730,cs)
);
}
);
width = 620;
}
);
unicode = 234;
},
{
glyphname = edieresis;
lastChange = "2023-11-16 22:13:59 +0000";
layers = (
{
anchors = (
{
name = top;
pos = (315,814);
}
);
layerId = "49F060A0-2273-4F54-8B81-08E0B15B03EC";
shapes = (
{
ref = e;
},
{
closed = 1;
nodes = (
(120,765,o),
(150,736,o),
(196,736,cs),
(242,736,o),
(272,765,o),
(272,810,cs),
(272,854,o),
(242,882,o),
(196,882,cs),
(150,882,o),
(120,854,o),
(120,810,cs)
);
},
{
closed = 1;
nodes = (
(316,765,o),
(346,736,o),
(392,736,cs),
(438,736,o),
(468,765,o),
(468,810,cs),
(468,854,o),
(438,882,o),
(392,882,cs),
(346,882,o),
(316,854,o),
(316,810,cs)
);
}
);
width = 620;
}
);
unicode = 235;
},
{
glyphname = edotaccent;
lastChange = "2023-11-16 22:13:59 +0000";
layers = (
{
anchors = (
{
name = top;
pos = (277,886);
}
);
layerId = "49F060A0-2273-4F54-8B81-08E0B15B03EC";
shapes = (
{
ref = e;
},
{
closed = 1;
nodes = (
(201,769,o),
(231,740,o),
(277,740,cs),
(323,740,o),
(353,769,o),
(353,814,cs),
(353,858,o),
(323,886,o),
(277,886,cs),
(231,886,o),
(201,858,o),
(201,814,cs)
);
}
);
width = 620;
}
);
unicode = 279;
},
{
glyphname = egrave;
lastChange = "2023-11-16 22:13:59 +0000";
layers = (
{
anchors = (
{
name = top;
pos = (262,933);
}
);
layerId = "49F060A0-2273-4F54-8B81-08E0B15B03EC";
shapes = (
{
ref = e;
},
{
closed = 1;
nodes = (
(192,781,o),
(173,829,o),
(204,870,cs),
(229,903,o),
(264,908,o),
(294,891,cs),
(340,865,o),
(345,812,o),
(410,779,cs),
(450,759,o),
(470,735,o),
(454,703,cs),
(441,678,o),
(412,676,o),
(382,680,cs),
(338,686,o),
(285,711,o),
(245,741,cs)
);
}
);
width = 599;
}
);
unicode = 232;
},
{
glyphname = emacron;
lastChange = "2023-11-16 22:13:59 +0000";
layers = (
{
anchors = (
{
name = top;
pos = (294,885);
}
);
layerId = "49F060A0-2273-4F54-8B81-08E0B15B03EC";
shapes = (
{
ref = e;
},
{
closed = 1;
nodes = (
(120,723,o),
(82,756,o),
(82,803,cs),
(82,848,o),
(118,884,o),
(246,884,cs),
(353,884,o),
(438,870,o),
(460,866,cs),
(546,849,o),
(573,834,o),
(573,808,cs),
(573,782,o),
(543,762,o),
(466,746,cs),
(430,738,o),
(344,723,o),
(250,723,cs)
);
}
);
width = 620;
}
);
unicode = 275;
},
{
glyphname = eogonek;
lastChange = "2023-11-16 22:13:59 +0000";
layers = (
{
anchors = (
{
name = bottom;
pos = (447,23);
}
);
layerId = "49F060A0-2273-4F54-8B81-08E0B15B03EC";
shapes = (
{
ref = e;
},
{
closed = 1;
nodes = (
(429,-176,o),
(440,-168,o),
(440,-156,cs),
(440,-144,o),
(429,-137,o),
(412,-137,cs),
(384,-137,o),
(368,-127,o),
(368,-107,cs),
(368,-94,o),
(381,-83,o),
(392,-74,cs),
(413,-56,o),
(423,-34,o),
(398,-10,cs),
(379,8,o),
(344,1,o),
(318,-28,cs),
(281,-70,o),
(287,-123,o),
(324,-156,cs),
(347,-177,o),
(375,-184,o),
(413,-178,c)
);
}
);
width = 620;
}
);
unicode = 281;
},
{
color = 10;
glyphname = f;
lastChange = "2023-11-16 22:13:59 +0000";
layers = (
{
layerId = "49F060A0-2273-4F54-8B81-08E0B15B03EC";
shapes = (
{
closed = 1;
nodes = (
(75,815,o),
(-3,736,o),
(-3,594,cs),
(-3,403,o),
(38,208,o),
(73,89,cs),
(91,26,o),
(117,-11,o),
(168,-11,cs),
(206,-11,o),
(228,21,o),
(228,54,cs),
(228,79,o),
(220,131,o),
(217,149,cs),
(207,220,o),
(213,278,o),
(232,308,cs),
(251,338,o),
(277,354,o),
(318,354,cs),
(340,354,o),
(312,354,o),
(375,354,cs),
(419,354,o),
(443,377,o),
(443,408,cs),
(443,439,o),
(419,462,o),
(375,462,cs),
(312,462,o),
(340,462,o),
(312,462,cs),
(279,462,o),
(270,472,o),
(270,500,cs),
(270,532,o),
(298,556,o),
(335,556,cs),
(358,556,o),
(396,548,o),
(425,548,cs),
(456,548,o),
(513,569,o),
(513,674,cs),
(513,763,o),
(440,815,o),
(302,815,c)
);
}
);
width = 478;
}
);
unicode = 102;
},
{
color = 10;
glyphname = g;
lastChange = "2023-11-16 22:13:59 +0000";
layers = (
{
layerId = "49F060A0-2273-4F54-8B81-08E0B15B03EC";
shapes = (
{
closed = 1;
nodes = (
(385,-183,o),
(413,-199,o),
(450,-199,cs),
(666,-200,o),
(709,117,o),
(709,333,cs),
(709,505,o),
(679,614,o),
(565,614,cs),
(524,614,o),
(484,594,o),
(456,552,cs),
(449,541,o),
(445,533,o),
(434,533,cs),
(424,533,o),
(418,541,o),
(412,548,cs),
(378,590,o),
(325,614,o),
(255,614,cs),
(129,614,o),
(47,518,o),
(47,361,cs),
(47,271,o),
(85,165,o),
(146,89,cs),
(193,31,o),
(253,-11,o),
(321,-11,cs),
(374,-11,o),
(421,9,o),
(449,50,cs),
(455,58,o),
(461,65,o),
(470,65,cs),
(480,65,o),
(490,59,o),
(491,45,cs),
(497,-3,o),
(491,-34,o),
(473,-53,cs),
(452,-75,o),
(422,-79,o),
(405,-73,cs),
(371,-60,o),
(344,-76,o),
(335,-101,cs),
(326,-128,o),
(338,-149,o),
(366,-169,cs)
);
},
{
closed = 1;
nodes = (
(367,136,o),
(338,184,o),
(336,216,cs),
(334,253,o),
(355,272,o),
(398,272,cs),
(437,274,o),
(453,255,o),
(460,209,cs),
(467,160,o),
(444,136,o),
(406,136,cs)
);
}
);
width = 743;
},
{
associatedMasterId = "49F060A0-2273-4F54-8B81-08E0B15B03EC";
layerId = "E8DB0691-68D0-431B-B1F1-83C4658121A8";
name = "2 Nov 23 at 01:11";
shapes = (
{
closed = 1;
nodes = (
(275,171,o),
(285,180,o),
(323,183,cs),
(342,185,o),
(355,184,o),
(377,182,c),
(381,147,o),
(384,112,o),
(389,81,c),
(371,55,o),
(336,52,o),
(322,53,cs),
(279,56,o),
(271,106,o),
(273,140,cs)
);
},
{
closed = 0;
nodes = (
(399,38,l)
);
},
{
closed = 1;
nodes = (
(423,-41,o),
(350,-78,o),
(322,-78,cs),
(308,-78,o),
(282,-67,o),
(269,-67,cs),
(254,-67,o),
(241,-80,o),
(241,-104,cs),
(241,-148,o),
(284,-200,o),
(364,-200,cs),
(559,-200,o),
(617,112,o),
(617,328,cs),
(617,500,o),
(591,616,o),
(497,616,cs),
(465,616,o),
(441,602,o),
(423,578,c),
(386,602,o),
(339,616,o),
(279,616,cs),
(108,616,o),
(48,505,o),
(31,404,cs),
(19,333,o),
(21,225,o),
(69,133,cs),
(120,35,o),
(203,-2,o),
(281,-2,cs),
(325,-2,o),
(363,9,o),
(399,38,c)
);
},
{
closed = 1;
nodes = (
(275,171,o),
(285,180,o),
(323,183,cs),
(342,185,o),
(355,184,o),
(377,182,c),
(381,147,o),
(384,112,o),
(389,81,c),
(371,55,o),
(336,52,o),
(322,53,cs),
(279,56,o),
(271,106,o),
(273,140,cs)
);
},
{
closed = 0;
nodes = (
(399,38,l)
);
},
{
closed = 1;
nodes = (
(423,-41,o),
(350,-78,o),
(322,-78,cs),
(308,-78,o),
(282,-67,o),
(269,-67,cs),
(254,-67,o),
(241,-80,o),
(241,-104,cs),
(241,-148,o),
(284,-200,o),
(364,-200,cs),
(559,-200,o),
(617,112,o),
(617,328,cs),
(617,500,o),
(591,616,o),
(497,616,cs),
(465,616,o),
(441,602,o),
(423,578,c),
(386,602,o),
(339,616,o),
(279,616,cs),
(108,616,o),
(48,505,o),
(31,404,cs),
(19,333,o),
(21,225,o),
(69,133,cs),
(120,35,o),
(203,-2,o),
(281,-2,cs),
(325,-2,o),
(363,9,o),
(399,38,c)
);
}
);
width = 652;
}
);
unicode = 103;
},
{
glyphname = gbreve;
lastChange = "2023-11-16 22:13:59 +0000";
layers = (
{
anchors = (
{
name = top;
pos = (381,882);
}
);
layerId = "49F060A0-2273-4F54-8B81-08E0B15B03EC";
shapes = (
{
ref = g;
},
{
closed = 1;
nodes = (
(265,642,o),
(185,678,o),
(157,745,cs),
(132,807,o),
(151,864,o),
(203,881,cs),
(236,893,o),
(268,877,o),
(279,846,cs),
(285,829,o),
(287,803,o),
(293,781,cs),
(310,720,o),
(347,708,o),
(396,708,cs),
(444,708,o),
(480,720,o),
(497,781,cs),
(505,811,o),
(507,831,o),
(511,846,cs),
(521,877,o),
(552,892,o),
(586,881,cs),
(639,864,o),
(658,807,o),
(633,744,cs),
(605,676,o),
(521,642,o),
(396,642,cs)
);
}
);
width = 743;
}
);
unicode = 287;
},
{
glyphname = gcommaaccent;
lastChange = "2023-11-16 22:13:59 +0000";
layers = (
{
anchors = (
{
name = top;
pos = (343,882);
}
);
layerId = "49F060A0-2273-4F54-8B81-08E0B15B03EC";
shapes = (
{
ref = g;
},
{
closed = 1;
nodes = (
(429,698,o),
(376,673,o),
(332,667,cs),
(302,663,o),
(273,665,o),
(260,690,cs),
(244,722,o),
(264,746,o),
(304,766,cs),
(369,799,o),
(374,852,o),
(420,878,cs),
(450,895,o),
(485,890,o),
(510,857,cs),
(541,816,o),
(522,768,o),
(469,728,cs)
);
}
);
width = 743;
}
);
unicode = 291;
},
{
glyphname = gdotaccent;
lastChange = "2023-11-16 22:13:59 +0000";
layers = (
{
anchors = (
{
name = top;
pos = (411,873);
}
);
layerId = "49F060A0-2273-4F54-8B81-08E0B15B03EC";
shapes = (
{
ref = g;
},
{
closed = 1;
nodes = (
(328,765,o),
(358,736,o),
(404,736,cs),
(450,736,o),
(480,765,o),
(480,810,cs),
(480,854,o),
(450,882,o),
(404,882,cs),
(358,882,o),
(328,854,o),
(328,810,cs)
);
}
);
width = 743;
}
);
unicode = 289;
},
{
color = 10;
glyphname = h;
lastChange = "2023-11-16 22:13:59 +0000";
layers = (
{
layerId = "49F060A0-2273-4F54-8B81-08E0B15B03EC";
shapes = (
{
closed = 1;
nodes = (
(311,245,o),
(326,248,o),
(339,248,cs),
(413,248,o),
(423,157,o),
(423,83,cs),
(423,10,o),
(449,-14,o),
(474,-14,cs),
(550,-14,o),
(707,143,o),
(707,360,cs),
(707,523,o),
(586,610,o),
(499,610,cs),
(446,610,o),
(417,586,o),
(374,547,cs),
(366,540,o),
(354,531,o),
(343,531,cs),
(335,531,o),
(329,537,o),
(329,548,cs),
(329,571,o),
(329,582,o),
(329,593,cs),
(329,735,o),
(260,813,o),
(180,813,cs),
(99,813,o),
(30,735,o),
(30,593,cs),
(30,402,o),
(66,206,o),
(97,87,cs),
(113,24,o),
(137,-13,o),
(180,-13,cs),
(223,-13,o),
(246,24,o),
(262,87,cs),
(270,119,o),
(279,158,o),
(289,203,cs),
(291,212,o),
(293,222,o),
(299,230,cs)
);
}
);
width = 742;
}
);
unicode = 104;
},
{
glyphname = hbar;
lastChange = "2023-11-16 22:13:59 +0000";
layers = (
{
layerId = "49F060A0-2273-4F54-8B81-08E0B15B03EC";
shapes = (
{
closed = 0;
nodes = (
(96,578,l)
);
},
{
closed = 1;
nodes = (
(92,590,o),
(96,586,o),
(96,578,cs),
(96,393,o),
(137,180,o),
(163,89,cs),
(182,22,o),
(203,-11,o),
(245,-11,cs),
(290,-11,o),
(312,26,o),
(328,89,cs),
(333,108,o),
(349,178,o),
(355,205,cs),
(357,214,o),
(359,224,o),
(365,232,cs),
(376,247,o),
(393,250,o),
(406,250,cs),
(479,250,o),
(489,157,o),
(489,85,cs),
(489,12,o),
(514,-12,o),
(542,-12,cs),
(616,-12,o),
(773,151,o),
(773,353,cs),
(773,531,o),
(652,612,o),
(562,612,cs),
(529,612,o),
(494,601,o),
(441,550,cs),
(427,537,o),
(426,533,o),
(413,533,cs),
(403,533,o),
(395,539,o),
(395,550,cs),
(395,573,o),
(395,584,o),
(395,595,cs),
(395,599,o),
(395,604,o),
(400,605,cs),
(477,620,o),
(507,641,o),
(507,667,cs),
(507,693,o),
(479,708,o),
(395,725,cs),
(393,725,o),
(386,726,o),
(381,727,cs),
(370,729,o),
(367,732,o),
(363,739,cs),
(336,788,o),
(292,815,o),
(246,815,cs),
(203,815,o),
(164,793,o),
(136,752,cs),
(132,746,o),
(129,741,o),
(121,740,cs),
(40,730,o),
(16,699,o),
(16,662,cs),
(16,630,o),
(34,604,o),
(87,591,c)
);
}
);
width = 801;
}
);
unicode = 295;
},
{
color = 10;
glyphname = i;
lastChange = "2023-11-16 22:13:59 +0000";
layers = (
{
layerId = "49F060A0-2273-4F54-8B81-08E0B15B03EC";
shapes = (
{
closed = 1;
nodes = (
(49,628,o),
(99,590,o),
(178,590,cs),
(260,590,o),
(310,628,o),
(310,697,cs),
(310,766,o),
(260,802,o),
(178,802,cs),
(99,802,o),
(49,766,o),
(49,697,cs)
);
},
{
closed = 1;
nodes = (
(109,535,o),
(50,483,o),
(50,388,cs),
(50,260,o),
(81,129,o),
(107,49,cs),
(122,7,o),
(141,-18,o),
(179,-18,cs),
(217,-18,o),
(236,7,o),
(251,49,cs),
(277,129,o),
(308,260,o),
(308,388,cs),
(308,483,o),
(249,535,o),
(179,535,c)
);
}
);
width = 359;
}
);
unicode = 105;
},
{
glyphname = idotless;
lastChange = "2023-11-16 22:13:59 +0000";
layers = (
{
layerId = "49F060A0-2273-4F54-8B81-08E0B15B03EC";
shapes = (
{
closed = 1;
nodes = (
(71,539,o),
(114,506,o),
(182,506,cs),
(253,506,o),
(296,539,o),
(296,598,cs),
(296,658,o),
(253,689,o),
(182,689,cs),
(114,689,o),
(71,658,o),
(71,598,cs)
);
},
{
closed = 1;
nodes = (
(123,459,o),
(72,414,o),
(72,332,cs),
(72,222,o),
(99,109,o),
(121,40,cs),
(134,4,o),
(150,-18,o),
(183,-18,cs),
(216,-18,o),
(232,4,o),
(245,40,cs),
(268,109,o),
(294,222,o),
(294,332,cs),
(294,414,o),
(243,459,o),
(183,459,c)
);
}
);
width = 359;
}
);
unicode = 305;
},
{
glyphname = iacute;
lastChange = "2023-11-16 22:13:59 +0000";
layers = (
{
anchors = (
{
name = top;
pos = (210,1071);
}
);
layerId = "49F060A0-2273-4F54-8B81-08E0B15B03EC";
shapes = (
{
ref = i;
},
{
closed = 1;
nodes = (
(214,891,o),
(161,866,o),
(117,860,cs),
(87,856,o),
(58,858,o),
(45,883,cs),
(29,915,o),
(49,939,o),
(89,959,cs),
(154,992,o),
(159,1045,o),
(205,1071,cs),
(235,1088,o),
(270,1083,o),
(295,1050,cs),
(326,1009,o),
(307,961,o),
(254,921,cs)
);
}
);
width = 359;
}
);
unicode = 237;
},
{
glyphname = icircumflex;
lastChange = "2023-11-16 22:13:59 +0000";
layers = (
{
anchors = (
{
name = top;
pos = (180,1076);
}
);
layerId = "49F060A0-2273-4F54-8B81-08E0B15B03EC";
shapes = (
{
ref = i;
},
{
closed = 1;
nodes = (
(174,925,o),
(165,916,o),
(141,899,cs),
(88,860,l),
(54,836,o),
(29,818,o),
(10,836,cs),
(-5,852,o),
(9,871,o),
(27,909,cs),
(40,934,o),
(57,966,o),
(77,1001,cs),
(104,1049,o),
(140,1079,o),
(184,1079,cs),
(228,1079,o),
(264,1049,o),
(291,1001,cs),
(311,966,o),
(328,934,o),
(341,909,cs),
(359,871,o),
(373,852,o),
(358,836,cs),
(339,818,o),
(314,836,o),
(280,860,cs),
(267,870,o),
(243,888,o),
(222,903,cs),
(204,916,o),
(194,925,o),
(184,925,cs)
);
}
);
width = 368;
}
);
unicode = 238;
},
{
glyphname = idieresis;
lastChange = "2023-11-16 22:13:59 +0000";
layers = (
{
anchors = (
{
name = top;
pos = (178,1075);
}
);
layerId = "49F060A0-2273-4F54-8B81-08E0B15B03EC";
shapes = (
{
closed = 1;
nodes = (
(109,535,o),
(50,483,o),
(50,388,cs),
(50,260,o),
(81,129,o),
(107,49,cs),
(122,7,o),
(141,-18,o),
(179,-18,cs),
(217,-18,o),
(236,7,o),
(251,49,cs),
(277,129,o),
(308,260,o),
(308,388,cs),
(308,483,o),
(249,535,o),
(179,535,c)
);
},
{
closed = 1;
nodes = (
(4,961,o),
(34,932,o),
(80,932,cs),
(126,932,o),
(156,961,o),
(156,1006,cs),
(156,1050,o),
(126,1078,o),
(80,1078,cs),
(34,1078,o),
(4,1050,o),
(4,1006,cs)
);
},
{
closed = 1;
nodes = (
(200,961,o),
(230,932,o),
(276,932,cs),
(322,932,o),
(352,961,o),
(352,1006,cs),
(352,1050,o),
(322,1078,o),
(276,1078,cs),
(230,1078,o),
(200,1050,o),
(200,1006,cs)
);
},
{
closed = 1;
nodes = (
(49,628,o),
(99,590,o),
(178,590,cs),
(260,590,o),
(310,628,o),
(310,697,cs),
(310,766,o),
(260,802,o),
(178,802,cs),
(99,802,o),
(49,766,o),
(49,697,cs)
);
}
);
width = 356;
}
);
unicode = 239;
},
{
glyphname = idotaccent;
lastChange = "2023-11-16 22:13:59 +0000";
layers = (
{
anchors = (
{
name = top;
pos = (149,1070);
}
);
layerId = "49F060A0-2273-4F54-8B81-08E0B15B03EC";
shapes = (
{
ref = i;
},
{
closed = 1;
nodes = (
(102,961,o),
(132,932,o),
(178,932,cs),
(224,932,o),
(254,961,o),
(254,1006,cs),
(254,1050,o),
(224,1078,o),
(178,1078,cs),
(132,1078,o),
(102,1050,o),
(102,1006,cs)
);
}
);
width = 359;
}
);
},
{
glyphname = igrave;
lastChange = "2023-11-16 22:13:59 +0000";
layers = (
{
anchors = (
{
name = top;
pos = (135,1077);
}
);
layerId = "49F060A0-2273-4F54-8B81-08E0B15B03EC";
shapes = (
{
ref = i;
},
{
closed = 1;
nodes = (
(57,961,o),
(38,1009,o),
(69,1050,cs),
(94,1083,o),
(129,1088,o),
(159,1071,cs),
(205,1045,o),
(210,992,o),
(275,959,cs),
(315,939,o),
(335,915,o),
(319,883,cs),
(306,858,o),
(277,856,o),
(247,860,cs),
(203,866,o),
(150,891,o),
(110,921,cs)
);
}
);
width = 359;
}
);
unicode = 236;
},
{
glyphname = imacron;
lastChange = "2023-11-16 22:13:59 +0000";
layers = (
{
anchors = (
{
name = top;
pos = (180,1080);
}
);
layerId = "49F060A0-2273-4F54-8B81-08E0B15B03EC";
shapes = (
{
ref = i;
},
{
closed = 1;
nodes = (
(-8,918,o),
(-46,951,o),
(-46,998,cs),
(-46,1043,o),
(-10,1079,o),
(118,1079,cs),
(225,1079,o),
(310,1065,o),
(332,1061,cs),
(418,1044,o),
(445,1029,o),
(445,1003,cs),
(445,977,o),
(415,957,o),
(338,941,cs),
(302,933,o),
(216,918,o),
(122,918,cs)
);
}
);
width = 359;
}
);
unicode = 299;
},
{
glyphname = iogonek;
lastChange = "2023-11-16 22:13:59 +0000";
layers = (
{
anchors = (
{
name = bottom;
pos = (158,-19);
}
);
layerId = "49F060A0-2273-4F54-8B81-08E0B15B03EC";
shapes = (
{
ref = i;
},
{
closed = 1;
nodes = (
(241,-176,o),
(252,-168,o),
(252,-156,cs),
(252,-144,o),
(241,-137,o),
(224,-137,cs),
(196,-137,o),
(180,-127,o),
(180,-107,cs),
(180,-94,o),
(193,-83,o),
(204,-74,cs),
(225,-56,o),
(235,-34,o),
(210,-10,cs),
(191,8,o),
(156,1,o),
(130,-28,cs),
(93,-70,o),
(99,-123,o),
(136,-156,cs),
(159,-177,o),
(187,-184,o),
(225,-178,c)
);
}
);
width = 359;
}
);
unicode = 303;
},
{
color = 10;
glyphname = j;
lastChange = "2023-11-16 22:13:59 +0000";
layers = (
{
guides = (
{
pos = (-81,715);
}
);
layerId = "49F060A0-2273-4F54-8B81-08E0B15B03EC";
shapes = (
{
closed = 1;
nodes = (
(115,105,o),
(122,-54,o),
(99,-89,cs),
(86,-110,o),
(42,-116,o),
(11,-116,cs),
(-20,-116,o),
(-34,-139,o),
(-34,-156,cs),
(-34,-186,o),
(-13,-196,o),
(14,-200,cs),
(30,-202,o),
(103,-209,o),
(157,-185,cs),
(264,-137,o),
(346,26,o),
(346,253,cs),
(346,433,o),
(273,532,o),
(174,532,cs),
(106,532,o),
(31,498,o),
(31,420,cs),
(31,371,o),
(60,289,o),
(80,222,cs)
);
},
{
closed = 1;
nodes = (
(44,629,o),
(94,591,o),
(173,591,cs),
(255,591,o),
(305,629,o),
(305,698,cs),
(305,767,o),
(255,803,o),
(173,803,cs),
(94,803,o),
(44,767,o),
(44,698,cs)
);
}
);
width = 374;
}
);
unicode = 106;
},
{
glyphname = jdotless;
lastChange = "2023-11-16 22:13:59 +0000";
layers = (
{
layerId = "49F060A0-2273-4F54-8B81-08E0B15B03EC";
shapes = (
{
closed = 1;
nodes = (
(98,70,o),
(104,-71,o),
(84,-103,cs),
(72,-121,o),
(33,-126,o),
(6,-126,cs),
(-22,-126,o),
(-34,-147,o),
(-34,-162,cs),
(-34,-189,o),
(-16,-197,o),
(8,-201,cs),
(23,-203,o),
(87,-209,o),
(135,-188,cs),
(230,-145,o),
(303,0,o),
(303,201,cs),
(303,361,o),
(238,449,o),
(150,449,cs),
(90,449,o),
(23,418,o),
(23,349,cs),
(23,306,o),
(49,233,o),
(67,173,cs)
);
},
{
closed = 1;
nodes = (
(35,535,o),
(79,501,o),
(149,501,cs),
(222,501,o),
(267,535,o),
(267,596,cs),
(267,657,o),
(222,689,o),
(149,689,cs),
(79,689,o),
(35,657,o),
(35,596,cs)
);
}
);
width = 331;
}
);
unicode = 567;
},
{
color = 10;
glyphname = k;
lastChange = "2023-11-16 22:13:59 +0000";
layers = (
{
layerId = "49F060A0-2273-4F54-8B81-08E0B15B03EC";
shapes = (
{
closed = 1;
nodes = (
(560,582,o),
(451,524,o),
(425,416,cs),
(418,385,o),
(395,317,o),
(336,352,cs),
(315,364,o),
(313,393,o),
(322,417,cs),
(343,471,o),
(418,517,o),
(418,618,cs),
(418,724,o),
(341,798,o),
(239,798,cs),
(155,798,o),
(13,728,o),
(13,532,cs),
(13,274,o),
(144,81,o),
(220,14,cs),
(245,-8,o),
(269,-23,o),
(297,-9,cs),
(325,5,o),
(332,37,o),
(322,68,cs),
(312,99,o),
(306,130,o),
(306,147,cs),
(306,167,o),
(316,192,o),
(332,203,cs),
(358,222,o),
(397,220,o),
(424,167,cs),
(447,122,o),
(506,39,o),
(520,24,cs),
(542,0,o),
(577,-34,o),
(619,-2,cs),
(644,17,o),
(671,63,o),
(617,114,cs),
(607,123,o),
(585,137,o),
(572,151,cs),
(508,216,o),
(555,249,o),
(583,265,cs),
(733,352,o),
(696,480,o),
(645,518,cs)
);
}
);
width = 698;
},
{
associatedMasterId = "49F060A0-2273-4F54-8B81-08E0B15B03EC";
layerId = "A7002D93-2047-4F5D-AC6E-23367EBD1C11";
name = "2 Nov 23 at 06:37";
shapes = (
{
closed = 1;
nodes = (
(221,-14,o),
(258,61,o),
(280,176,c),
(299,194,o),
(324,208,o),
(349,208,cs),
(410,208,o),
(419,125,o),
(419,64,cs),
(419,0,o),
(450,-14,o),
(467,-14,cs),
(522,-14,o),
(595,133,o),
(595,259,cs),
(595,351,o),
(556,393,o),
(510,405,c),
(543,444,o),
(551,488,o),
(545,526,cs),
(541,551,o),
(531,572,o),
(517,591,c),
(502,605,o),
(486,611,o),
(469,611,cs),
(457,611,o),
(446,603,o),
(439,596,cs),
(407,565,o),
(415,491,o),
(375,442,cs),
(353,415,o),
(326,407,o),
(305,407,c),
(306,435,o),
(307,464,o),
(307,501,cs),
(307,707,o),
(275,812,o),
(179,812,cs),
(83,812,o),
(45,706,o),
(45,480,cs),
(45,218,o),
(96,-14,o),
(176,-14,cs)
);
}
);
width = 693;
}
);
unicode = 107;
},
{
glyphname = kcommaaccent;
lastChange = "2023-11-16 22:13:59 +0000";
layers = (
{
anchors = (
{
name = bottom;
pos = (376,-33);
}
);
layerId = "49F060A0-2273-4F54-8B81-08E0B15B03EC";
shapes = (
{
ref = k;
},
{
closed = 1;
nodes = (
(372,-224,o),
(319,-249,o),
(275,-255,cs),
(245,-259,o),
(216,-257,o),
(203,-232,cs),
(187,-200,o),
(207,-176,o),
(247,-156,cs),
(312,-123,o),
(317,-70,o),
(363,-44,cs),
(393,-27,o),
(428,-32,o),
(453,-65,cs),
(484,-106,o),
(465,-154,o),
(412,-194,cs)
);
}
);
width = 677;
}
);
unicode = 311;
},
{
color = 10;
glyphname = l;
lastChange = "2023-11-16 22:13:59 +0000";
layers = (
{
layerId = "49F060A0-2273-4F54-8B81-08E0B15B03EC";
shapes = (
{
closed = 1;
nodes = (
(69,66,o),
(33,305,o),
(33,546,cs),
(33,694,o),
(69,814,o),
(176,814,cs),
(282,814,o),
(318,694,o),
(318,546,cs),
(318,402,o),
(298,231,o),
(272,143,cs),
(255,84,o),
(333,70,o),
(365,70,cs),
(396,70,o),
(410,47,o),
(410,30,cs),
(410,0,o),
(389,-10,o),
(362,-14,cs),
(346,-16,o),
(273,-23,o),
(219,1,c)
);
}
);
width = 408;
}
);
unicode = 108;
},
{
glyphname = lacute;
lastChange = "2023-11-16 22:13:59 +0000";
layers = (
{
anchors = (
{
name = top;
pos = (201,1071);
}
);
layerId = "49F060A0-2273-4F54-8B81-08E0B15B03EC";
shapes = (
{
ref = l;
},
{
closed = 1;
nodes = (
(207,891,o),
(154,866,o),
(110,860,cs),
(80,856,o),
(51,858,o),
(38,883,cs),
(22,915,o),
(42,939,o),
(82,959,cs),
(147,992,o),
(152,1045,o),
(198,1071,cs),
(228,1088,o),
(263,1083,o),
(288,1050,cs),
(319,1009,o),
(300,961,o),
(247,921,cs)
);
}
);
width = 351;
}
);
unicode = 314;
},
{
glyphname = lcaron;
lastChange = "2023-11-16 22:13:59 +0000";
layers = (
{
layerId = "49F060A0-2273-4F54-8B81-08E0B15B03EC";
shapes = (
{
ref = l;
},
{
closed = 1;
nodes = (
(455,812,o),
(483,785,o),
(483,723,cs),
(483,669,o),
(472,624,o),
(466,600,cs),
(451,543,o),
(438,524,o),
(416,524,cs),
(394,524,o),
(381,543,o),
(366,600,cs),
(360,624,o),
(349,669,o),
(349,723,cs),
(349,785,o),
(377,812,o),
(416,812,cs)
);
}
);
width = 486;
}
);
unicode = 318;
},
{
glyphname = lcommaaccent;
lastChange = "2023-11-16 22:13:59 +0000";
layers = (
{
layerId = "49F060A0-2273-4F54-8B81-08E0B15B03EC";
shapes = (
{
ref = l;
},
{
closed = 1;
nodes = (
(252,-223,o),
(199,-248,o),
(155,-254,cs),
(125,-258,o),
(96,-256,o),
(83,-231,cs),
(67,-199,o),
(87,-175,o),
(127,-155,cs),
(192,-122,o),
(197,-69,o),
(243,-43,cs),
(273,-26,o),
(308,-31,o),
(333,-64,cs),
(364,-105,o),
(345,-153,o),
(292,-193,cs)
);
}
);
width = 351;
}
);
unicode = 316;
},
{
glyphname = lslash;
lastChange = "2023-11-16 22:13:59 +0000";
layers = (
{
background = {
shapes = (
{
pos = (42,0);
ref = l;
}
);
};
layerId = "49F060A0-2273-4F54-8B81-08E0B15B03EC";
shapes = (
{
closed = 1;
nodes = (
(12,397,o),
(-1,366,o),
(13,344,cs),
(22,329,o),
(41,325,o),
(73,334,cs),
(82,337,o),
(86,334,o),
(88,320,cs),
(107,181,o),
(157,46,o),
(261,1,cs),
(315,-23,o),
(388,-16,o),
(404,-14,cs),
(431,-10,o),
(452,0,o),
(452,30,cs),
(452,47,o),
(438,70,o),
(407,70,cs),
(375,70,o),
(297,84,o),
(314,143,cs),
(335,216,o),
(353,345,o),
(359,471,cs),
(359,477,o),
(362,482,o),
(367,486,cs),
(438,541,o),
(443,592,o),
(422,624,cs),
(409,644,o),
(389,648,o),
(364,645,cs),
(358,644,o),
(353,648,o),
(352,653,cs),
(336,748,o),
(296,814,o),
(218,814,cs),
(111,814,o),
(75,694,o),
(75,546,cs),
(75,519,o),
(76,487,o),
(77,467,cs),
(77,464,o),
(76,461,o),
(73,458,cs)
);
}
);
width = 460;
}
);
unicode = 322;
},
{
color = 10;
glyphname = m;
lastChange = "2023-11-16 22:13:59 +0000";
layers = (
{
layerId = "49F060A0-2273-4F54-8B81-08E0B15B03EC";
shapes = (
{
closed = 1;
nodes = (
(538,591,o),
(483,610,o),
(440,610,cs),
(387,610,o),
(358,586,o),
(323,554,cs),
(308,541,o),
(303,532,o),
(293,532,cs),
(282,532,o),
(278,540,o),
(271,551,cs),
(243,593,o),
(203,613,o),
(162,613,cs),
(93,613,o),
(33,553,o),
(33,446,cs),
(33,300,o),
(64,152,o),
(91,61,cs),
(105,13,o),
(125,-15,o),
(162,-15,cs),
(205,-15,o),
(228,22,o),
(244,85,cs),
(252,117,o),
(261,156,o),
(270,197,cs),
(273,210,o),
(275,220,o),
(281,228,cs),
(293,243,o),
(308,246,o),
(321,246,cs),
(395,246,o),
(405,155,o),
(405,81,cs),
(405,8,o),
(431,-16,o),
(456,-16,cs),
(510,-16,o),
(553,64,o),
(587,199,cs),
(589,208,o),
(591,218,o),
(597,226,cs),
(609,241,o),
(624,244,o),
(637,244,cs),
(711,244,o),
(721,153,o),
(721,79,cs),
(721,6,o),
(747,-18,o),
(772,-18,cs),
(848,-18,o),
(970,141,o),
(970,358,cs),
(970,521,o),
(843,608,o),
(756,608,cs),
(703,608,o),
(674,584,o),
(639,552,cs),
(624,539,o),
(619,530,o),
(609,530,cs),
(598,530,o),
(587,539,o),
(578,548,cs)
);
}
);
width = 995;
}
);
unicode = 109;
},
{
color = 10;
glyphname = n;
lastChange = "2023-11-16 22:13:59 +0000";
layers = (
{
layerId = "49F060A0-2273-4F54-8B81-08E0B15B03EC";
shapes = (
{
closed = 1;
nodes = (
(532,-16,o),
(654,143,o),
(654,360,cs),
(654,523,o),
(527,610,o),
(440,610,cs),
(387,610,o),
(358,586,o),
(323,554,cs),
(308,541,o),
(303,532,o),
(293,532,cs),
(282,532,o),
(278,540,o),
(271,551,cs),
(243,593,o),
(203,613,o),
(162,613,cs),
(93,613,o),
(33,553,o),
(33,446,cs),
(33,300,o),
(64,152,o),
(91,61,cs),
(105,13,o),
(125,-15,o),
(162,-15,cs),
(205,-15,o),
(228,22,o),
(244,85,cs),
(252,117,o),
(261,156,o),
(271,201,cs),
(273,210,o),
(275,220,o),
(281,228,cs),
(293,243,o),
(308,246,o),
(321,246,cs),
(395,246,o),
(405,155,o),
(405,81,cs),
(405,8,o),
(431,-16,o),
(456,-16,c)
);
}
);
width = 679;
}
);
unicode = 110;
},
{
glyphname = nacute;
lastChange = "2023-11-16 22:13:59 +0000";
layers = (
{
layerId = "49F060A0-2273-4F54-8B81-08E0B15B03EC";
shapes = (
{
ref = n;
},
{
closed = 1;
nodes = (
(364,700,o),
(311,675,o),
(267,669,cs),
(237,665,o),
(208,667,o),
(195,692,cs),
(179,724,o),
(199,748,o),
(239,768,cs),
(304,801,o),
(309,854,o),
(355,880,cs),
(385,897,o),
(420,892,o),
(445,859,cs),
(476,818,o),
(457,770,o),
(404,730,cs)
);
}
);
width = 679;
}
);
unicode = 324;
},
{
glyphname = ncaron;
lastChange = "2023-11-16 22:13:59 +0000";
layers = (
{
anchors = (
{
name = top;
pos = (291,786);
}
);
layerId = "49F060A0-2273-4F54-8B81-08E0B15B03EC";
shapes = (
{
ref = n;
},
{
closed = 1;
nodes = (
(308,785,o),
(318,794,o),
(336,807,cs),
(357,822,o),
(381,840,o),
(394,850,cs),
(428,874,o),
(453,892,o),
(472,874,cs),
(487,858,o),
(473,839,o),
(455,801,cs),
(442,776,o),
(425,744,o),
(405,709,cs),
(378,661,o),
(342,631,o),
(298,631,cs),
(254,631,o),
(218,661,o),
(191,709,cs),
(171,744,o),
(154,776,o),
(141,801,cs),
(123,839,o),
(109,858,o),
(124,874,cs),
(143,892,o),
(168,874,o),
(202,850,c),
(255,811,ls),
(279,794,o),
(288,785,o),
(298,785,cs)
);
}
);
width = 683;
}
);
unicode = 328;
},
{
glyphname = ncommaaccent;
lastChange = "2023-11-16 22:13:59 +0000";
layers = (
{
anchors = (
{
name = bottom;
pos = (401,-30);
}
);
layerId = "49F060A0-2273-4F54-8B81-08E0B15B03EC";
shapes = (
{
ref = n;
},
{
closed = 1;
nodes = (
(301,-221,o),
(248,-246,o),
(204,-252,cs),
(174,-256,o),
(145,-254,o),
(132,-229,cs),
(116,-197,o),
(136,-173,o),
(176,-153,cs),
(241,-120,o),
(246,-67,o),
(292,-41,cs),
(322,-24,o),
(357,-29,o),
(382,-62,cs),
(413,-103,o),
(394,-151,o),
(341,-191,cs)
);
}
);
width = 679;
}
);
unicode = 326;
},
{
glyphname = ntilde;
lastChange = "2023-11-16 22:13:59 +0000";
layers = (
{
anchors = (
{
name = top;
pos = (335,887);
}
);
layerId = "49F060A0-2273-4F54-8B81-08E0B15B03EC";
shapes = (
{
ref = n;
},
{
closed = 1;
nodes = (
(378,667,o),
(457,649,o),
(519,687,cs),
(588,730,o),
(605,780,o),
(570,838,cs),
(527,905,o),
(497,858,o),
(433,811,cs),
(409,799,o),
(391,797,o),
(378,807,cs),
(283,882,o),
(204,900,o),
(142,861,cs),
(73,820,o),
(57,769,o),
(93,711,cs),
(113,678,o),
(139,672,o),
(173,691,cs),
(187,700,o),
(215,727,o),
(229,736,cs),
(250,749,o),
(268,751,o),
(283,741,cs)
);
}
);
width = 679;
}
);
unicode = 241;
},
{
glyphname = eng;
lastChange = "2023-11-16 22:13:59 +0000";
layers = (
{
layerId = "49F060A0-2273-4F54-8B81-08E0B15B03EC";
shapes = (
{
closed = 1;
nodes = (
(654,523,o),
(527,610,o),
(440,610,cs),
(387,610,o),
(358,586,o),
(323,554,cs),
(308,541,o),
(303,532,o),
(293,532,cs),
(282,532,o),
(278,540,o),
(271,551,cs),
(243,593,o),
(203,613,o),
(162,613,cs),
(93,613,o),
(33,553,o),
(33,446,cs),
(33,300,o),
(64,152,o),
(91,61,cs),
(105,13,o),
(125,-15,o),
(162,-15,cs),
(205,-15,o),
(228,22,o),
(244,85,cs),
(252,117,o),
(261,156,o),
(271,201,cs),
(273,210,o),
(275,220,o),
(281,228,cs),
(293,243,o),
(308,246,o),
(321,246,cs),
(395,246,o),
(402,155,o),
(406,82,cs),
(411,5,o),
(411,-64,o),
(397,-86,cs),
(384,-107,o),
(340,-113,o),
(309,-113,cs),
(278,-113,o),
(264,-136,o),
(264,-153,cs),
(264,-183,o),
(285,-193,o),
(312,-197,cs),
(328,-199,o),
(401,-206,o),
(455,-182,cs),
(562,-134,o),
(654,29,o),
(654,308,cs)
);
}
);
width = 682;
}
);
unicode = 331;
},
{
color = 10;
glyphname = o;
lastChange = "2023-11-16 22:13:59 +0000";
layers = (
{
layerId = "49F060A0-2273-4F54-8B81-08E0B15B03EC";
shapes = (
{
closed = 1;
nodes = (
(114,616,o),
(25,519,o),
(25,341,cs),
(25,127,o),
(157,-14,o),
(319,-14,cs),
(475,-14,o),
(603,126,o),
(603,339,cs),
(603,518,o),
(514,616,o),
(313,616,cs)
);
},
{
closed = 1;
nodes = (
(274,129,o),
(254,155,o),
(254,201,cs),
(254,247,o),
(274,273,o),
(315,273,cs),
(354,273,o),
(374,247,o),
(374,201,cs),
(374,155,o),
(354,129,o),
(315,129,cs)
);
}
);
width = 628;
}
);
unicode = 111;
},
{
glyphname = oacute;
lastChange = "2023-11-16 22:13:59 +0000";
layers = (
{
layerId = "49F060A0-2273-4F54-8B81-08E0B15B03EC";
shapes = (
{
ref = o;
},
{
closed = 1;
nodes = (
(343,700,o),
(290,675,o),
(246,669,cs),
(216,665,o),
(187,667,o),
(174,692,cs),
(158,724,o),
(178,748,o),
(218,768,cs),
(283,801,o),
(288,854,o),
(334,880,cs),
(364,897,o),
(399,892,o),
(424,859,cs),
(455,818,o),
(436,770,o),
(383,730,cs)
);
}
);
width = 628;
}
);
unicode = 243;
},
{
glyphname = ocircumflex;
lastChange = "2023-11-16 22:13:59 +0000";
layers = (
{
layerId = "49F060A0-2273-4F54-8B81-08E0B15B03EC";
shapes = (
{
ref = o;
},
{
closed = 1;
nodes = (
(303,730,o),
(294,721,o),
(270,704,cs),
(217,665,l),
(183,641,o),
(158,623,o),
(139,641,cs),
(124,657,o),
(138,676,o),
(156,714,cs),
(169,739,o),
(186,771,o),
(206,806,cs),
(233,854,o),
(269,884,o),
(313,884,cs),
(357,884,o),
(393,854,o),
(420,806,cs),
(440,771,o),
(457,739,o),
(470,714,cs),
(488,676,o),
(502,657,o),
(487,641,cs),
(468,623,o),
(443,641,o),
(409,665,cs),
(396,675,o),
(372,693,o),
(351,708,cs),
(333,721,o),
(323,730,o),
(313,730,cs)
);
}
);
width = 628;
}
);
unicode = 244;
},
{
glyphname = odieresis;
lastChange = "2023-11-16 22:13:59 +0000";
layers = (
{
anchors = (
{
name = top;
pos = (322,816);
}
);
layerId = "49F060A0-2273-4F54-8B81-08E0B15B03EC";
shapes = (
{
closed = 1;
nodes = (
(447,738,o),
(477,767,o),
(477,812,cs),
(477,856,o),
(447,884,o),
(401,884,cs),
(355,884,o),
(325,856,o),
(325,812,cs),
(325,767,o),
(355,738,o),
(401,738,cs)
);
},
{
ref = o;
},
{
closed = 1;
nodes = (
(251,738,o),
(281,767,o),
(281,812,cs),
(281,856,o),
(251,884,o),
(205,884,cs),
(159,884,o),
(129,856,o),
(129,812,cs),
(129,767,o),
(159,738,o),
(205,738,cs)
);
}
);
width = 628;
}
);
unicode = 246;
},
{
glyphname = ograve;
lastChange = "2023-11-16 22:13:59 +0000";
layers = (
{
layerId = "49F060A0-2273-4F54-8B81-08E0B15B03EC";
shapes = (
{
ref = o;
},
{
closed = 1;
nodes = (
(183,767,o),
(164,815,o),
(195,856,cs),
(220,889,o),
(255,894,o),
(285,877,cs),
(331,851,o),
(336,798,o),
(401,765,cs),
(441,745,o),
(461,721,o),
(445,689,cs),
(432,664,o),
(403,662,o),
(373,666,cs),
(329,672,o),
(276,697,o),
(236,727,cs)
);
}
);
width = 628;
}
);
unicode = 242;
},
{
glyphname = omacron;
lastChange = "2023-11-16 22:13:59 +0000";
layers = (
{
anchors = (
{
name = "top ";
pos = (297,877);
}
);
layerId = "49F060A0-2273-4F54-8B81-08E0B15B03EC";
shapes = (
{
ref = o;
},
{
closed = 1;
nodes = (
(116,702,o),
(78,735,o),
(78,782,cs),
(78,827,o),
(114,863,o),
(242,863,cs),
(349,863,o),
(434,849,o),
(456,845,cs),
(542,828,o),
(569,813,o),
(569,787,cs),
(569,761,o),
(539,741,o),
(462,725,cs),
(426,717,o),
(340,702,o),
(246,702,cs)
);
}
);
width = 628;
}
);
unicode = 333;
},
{
glyphname = oslash;
lastChange = "2023-11-16 22:13:59 +0000";
layers = (
{
layerId = "49F060A0-2273-4F54-8B81-08E0B15B03EC";
shapes = (
{
closed = 1;
nodes = (
(252,129,o),
(232,155,o),
(232,201,cs),
(232,247,o),
(252,273,o),
(293,273,cs),
(332,273,o),
(352,247,o),
(352,201,cs),
(352,155,o),
(332,129,o),
(293,129,cs)
);
},
{
closed = 1;
nodes = (
(60,89,o),
(52,77,o),
(45,66,c),
(22,30,o),
(22,12,o),
(39,-2,cs),
(57,-17,o),
(74,-12,o),
(106,17,c),
(113,24,o),
(120,31,o),
(126,37,cs),
(129,40,o),
(134,40,o),
(139,37,cs),
(185,4,o),
(239,-14,o),
(297,-14,cs),
(453,-14,o),
(581,126,o),
(581,339,cs),
(581,394,o),
(573,441,o),
(555,480,cs),
(553,484,o),
(553,487,o),
(558,492,cs),
(567,500,o),
(574,510,o),
(581,518,cs),
(651,604,o),
(644,657,o),
(602,691,cs),
(560,725,o),
(506,721,o),
(436,636,cs),
(430,627,o),
(422,618,o),
(416,609,cs),
(413,605,o),
(405,602,o),
(399,604,cs),
(367,613,o),
(332,616,o),
(291,616,cs),
(92,616,o),
(3,519,o),
(3,341,cs),
(3,251,o),
(26,174,o),
(65,115,c),
(69,111,o),
(70,106,o),
(67,100,cs)
);
}
);
width = 637;
}
);
unicode = 248;
},
{
glyphname = otilde;
lastChange = "2023-11-16 22:13:59 +0000";
layers = (
{
anchors = (
{
name = top;
pos = (300,879);
}
);
layerId = "49F060A0-2273-4F54-8B81-08E0B15B03EC";
shapes = (
{
ref = o;
},
{
closed = 1;
nodes = (
(366,663,o),
(431,648,o),
(496,689,cs),
(556,727,o),
(576,789,o),
(546,839,cs),
(527,867,o),
(493,876,o),
(466,858,cs),
(452,849,o),
(424,822,o),
(410,812,cs),
(387,799,o),
(371,798,o),
(356,810,cs),
(254,889,o),
(189,904,o),
(123,860,cs),
(63,826,o),
(42,762,o),
(73,712,cs),
(91,685,o),
(124,675,o),
(153,694,cs),
(165,702,o),
(195,729,o),
(209,737,cs),
(230,754,o),
(245,754,o),
(262,741,cs)
);
}
);
width = 628;
}
);
unicode = 245;
},
{
glyphname = oe;
lastChange = "2023-11-16 22:13:59 +0000";
layers = (
{
layerId = "49F060A0-2273-4F54-8B81-08E0B15B03EC";
shapes = (
{
closed = 1;
nodes = (
(114,616,o),
(25,519,o),
(25,342,cs),
(25,127,o),
(157,-14,o),
(318,-14,cs),
(398,-14,o),
(467,21,o),
(519,82,c),
(568,31,o),
(645,-15,o),
(756,-15,cs),
(802,-15,o),
(851,-7,o),
(882,9,cs),
(909,23,o),
(925,45,o),
(925,63,cs),
(925,68,o),
(924,73,o),
(922,78,cs),
(917,90,o),
(900,105,o),
(879,105,cs),
(865,105,o),
(858,101,o),
(847,94,cs),
(815,73,o),
(799,60,o),
(764,60,cs),
(719,60,o),
(679,81,o),
(659,113,cs),
(657,116,o),
(655,120,o),
(655,123,cs),
(655,126,o),
(655,127,o),
(657,129,cs),
(660,132,o),
(663,133,o),
(666,133,cs),
(669,133,o),
(670,132,o),
(673,131,cs),
(701,119,o),
(723,116,o),
(747,116,cs),
(886,116,o),
(985,217,o),
(985,359,cs),
(985,485,o),
(907,616,o),
(685,616,cs),
(608,616,o),
(555,600,o),
(509,565,c),
(462,599,o),
(398,616,o),
(314,616,cs)
);
},
{
closed = 1;
nodes = (
(254,247,o),
(274,273,o),
(315,273,cs),
(354,273,o),
(374,247,o),
(374,201,cs),
(374,155,o),
(354,129,o),
(315,129,cs),
(274,129,o),
(254,155,o),
(254,201,cs)
);
},
{
closed = 0;
nodes = (
(659,113,l)
);
},
{
closed = 1;
nodes = (
(616,207,o),
(593,231,o),
(600,280,cs),
(607,326,o),
(623,345,o),
(662,343,cs),
(705,343,o),
(726,324,o),
(724,287,cs),
(722,255,o),
(693,207,o),
(654,207,cs)
);
}
);
width = 1012;
}
);
unicode = 339;
},
{
color = 10;
glyphname = p;
lastChange = "2023-11-16 22:13:59 +0000";
layers = (
{
layerId = "49F060A0-2273-4F54-8B81-08E0B15B03EC";
shapes = (
{
closed = 1;
nodes = (
(486,616,o),
(451,604,o),
(424,588,cs),
(403,576,o),
(386,557,o),
(379,546,cs),
(371,533,o),
(365,527,o),
(357,527,cs),
(346,527,o),
(343,533,o),
(336,545,cs),
(308,595,o),
(258,618,o),
(207,618,cs),
(117,618,o),
(63,541,o),
(63,401,cs),
(63,213,o),
(95,18,o),
(128,-99,cs),
(147,-162,o),
(163,-198,o),
(210,-198,cs),
(258,-198,o),
(279,-160,o),
(297,-97,cs),
(306,-68,o),
(314,-34,o),
(323,3,cs),
(326,15,o),
(335,22,o),
(347,22,cs),
(356,22,o),
(366,14,o),
(381,2,cs),
(402,-15,o),
(427,-24,o),
(453,-24,cs),
(529,-24,o),
(587,31,o),
(634,89,cs),
(695,165,o),
(733,271,o),
(733,361,cs),
(733,518,o),
(651,614,o),
(521,616,cs)
);
},
{
closed = 1;
nodes = (
(359,122,o),
(336,146,o),
(343,195,cs),
(350,241,o),
(366,260,o),
(405,258,cs),
(448,258,o),
(469,239,o),
(467,202,cs),
(465,170,o),
(436,122,o),
(397,122,cs)
);
}
);
width = 765;
}
);
unicode = 112;
},
{
glyphname = thorn;
lastChange = "2023-11-16 22:13:59 +0000";
layers = (
{
layerId = "49F060A0-2273-4F54-8B81-08E0B15B03EC";
shapes = (
{
closed = 1;
nodes = (
(260,-199,o),
(281,-166,o),
(305,-99,cs),
(314,-75,o),
(328,-20,o),
(342,11,cs),
(346,20,o),
(352,26,o),
(361,26,cs),
(369,26,o),
(377,19,o),
(387,11,cs),
(405,-3,o),
(433,-13,o),
(456,-13,cs),
(511,-13,o),
(554,27,o),
(596,79,cs),
(645,139,o),
(668,224,o),
(668,295,cs),
(668,398,o),
(611,478,o),
(533,497,cs),
(487,508,o),
(436,486,o),
(415,455,cs),
(405,440,o),
(401,435,o),
(394,435,cs),
(386,435,o),
(380,439,o),
(378,449,cs),
(372,472,o),
(369,494,o),
(360,518,cs),
(333,590,o),
(274,627,o),
(211,627,c),
(120,627,o),
(42,549,o),
(42,407,cs),
(42,216,o),
(83,20,o),
(117,-99,cs),
(136,-162,o),
(162,-199,o),
(211,-199,cs)
);
},
{
closed = 1;
nodes = (
(365,122,o),
(342,146,o),
(349,195,cs),
(356,241,o),
(372,260,o),
(411,258,cs),
(454,258,o),
(475,239,o),
(473,202,cs),
(471,170,o),
(442,122,o),
(403,122,cs)
);
}
);
width = 700;
}
);
unicode = 254;
},
{
color = 10;
glyphname = q;
lastChange = "2023-11-16 22:13:59 +0000";
layers = (
{
layerId = "49F060A0-2273-4F54-8B81-08E0B15B03EC";
shapes = (
{
closed = 1;
nodes = (
(120,614,o),
(38,518,o),
(38,361,cs),
(38,271,o),
(76,165,o),
(137,89,cs),
(184,31,o),
(242,-24,o),
(318,-24,cs),
(344,-24,o),
(369,-15,o),
(390,2,cs),
(406,15,o),
(416,23,o),
(426,22,cs),
(437,21,o),
(445,14,o),
(448,3,cs),
(457,-34,o),
(465,-68,o),
(474,-97,cs),
(492,-160,o),
(513,-198,o),
(561,-198,cs),
(608,-198,o),
(624,-162,o),
(643,-99,cs),
(676,18,o),
(708,213,o),
(708,401,cs),
(708,541,o),
(654,618,o),
(564,618,cs),
(513,618,o),
(463,595,o),
(435,545,cs),
(428,533,o),
(425,527,o),
(414,527,cs),
(406,527,o),
(400,533,o),
(392,546,cs),
(385,557,o),
(368,576,o),
(347,588,cs),
(320,604,o),
(285,616,o),
(250,616,cs)
);
},
{
closed = 1;
nodes = (
(322,139,o),
(293,187,o),
(291,219,cs),
(289,256,o),
(310,275,o),
(353,275,cs),
(392,277,o),
(408,258,o),
(415,212,cs),
(422,163,o),
(399,139,o),
(361,139,cs)
);
}
);
width = 736;
}
);
unicode = 113;
},
{
color = 10;
glyphname = r;
lastChange = "2023-11-16 22:13:59 +0000";
layers = (
{
layerId = "49F060A0-2273-4F54-8B81-08E0B15B03EC";
shapes = (
{
closed = 1;
nodes = (
(414,615,o),
(366,530,o),
(321,430,cs),
(318,423,o),
(313,409,o),
(304,409,cs),
(296,409,o),
(295,416,o),
(295,430,cs),
(295,567,o),
(250,614,o),
(167,614,cs),
(98,614,o),
(38,554,o),
(38,447,cs),
(38,301,o),
(69,153,o),
(96,62,cs),
(110,14,o),
(133,-14,o),
(165,-14,cs),
(240,-14,o),
(280,152,o),
(291,200,cs),
(302,250,o),
(340,259,o),
(377,259,cs),
(395,259,o),
(413,259,o),
(426,259,cs),
(502,259,o),
(551,277,o),
(585,321,cs),
(616,361,o),
(631,412,o),
(631,461,cs),
(631,542,o),
(589,615,o),
(509,615,c)
);
}
);
width = 624;
}
);
unicode = 114;
},
{
glyphname = racute;
lastChange = "2023-11-16 22:13:59 +0000";
layers = (
{
layerId = "49F060A0-2273-4F54-8B81-08E0B15B03EC";
shapes = (
{
ref = r;
},
{
closed = 1;
nodes = (
(343,700,o),
(290,675,o),
(246,669,cs),
(216,665,o),
(187,667,o),
(174,692,cs),
(158,724,o),
(178,748,o),
(218,768,cs),
(283,801,o),
(288,854,o),
(334,880,cs),
(364,897,o),
(399,892,o),
(424,859,cs),
(455,818,o),
(436,770,o),
(383,730,cs)
);
}
);
width = 624;
}
);
unicode = 341;
},
{
glyphname = rcaron;
lastChange = "2023-11-16 22:13:59 +0000";
layers = (
{
anchors = (
{
name = top;
pos = (311,884);
}
);
layerId = "49F060A0-2273-4F54-8B81-08E0B15B03EC";
shapes = (
{
ref = r;
},
{
closed = 1;
nodes = (
(321,787,o),
(331,796,o),
(349,809,cs),
(370,824,o),
(394,842,o),
(407,852,cs),
(441,876,o),
(466,894,o),
(485,876,cs),
(500,860,o),
(486,841,o),
(468,803,cs),
(455,778,o),
(438,746,o),
(418,711,cs),
(391,663,o),
(355,633,o),
(311,633,cs),
(267,633,o),
(231,663,o),
(204,711,cs),
(184,746,o),
(167,778,o),
(154,803,cs),
(136,841,o),
(122,860,o),
(137,876,cs),
(156,894,o),
(181,876,o),
(215,852,c),
(268,813,ls),
(292,796,o),
(301,787,o),
(311,787,cs)
);
}
);
width = 624;
}
);
unicode = 345;
},
{
glyphname = rcommaaccent;
lastChange = "2023-11-16 22:13:59 +0000";
layers = (
{
anchors = (
{
name = bottom;
pos = (250,-31);
}
);
layerId = "49F060A0-2273-4F54-8B81-08E0B15B03EC";
shapes = (
{
ref = r;
},
{
closed = 1;
nodes = (
(229,-228,o),
(176,-253,o),
(132,-259,cs),
(102,-263,o),
(73,-261,o),
(60,-236,cs),
(44,-204,o),
(64,-180,o),
(104,-160,cs),
(169,-127,o),
(174,-74,o),
(220,-48,cs),
(250,-31,o),
(285,-36,o),
(310,-69,cs),
(341,-110,o),
(322,-158,o),
(269,-198,cs)
);
}
);
width = 624;
}
);
unicode = 343;
},
{
color = 10;
glyphname = s;
lastChange = "2023-11-16 22:13:59 +0000";
layers = (
{
layerId = "49F060A0-2273-4F54-8B81-08E0B15B03EC";
shapes = (
{
closed = 1;
nodes = (
(100,145,o),
(25,239,o),
(25,350,cs),
(25,524,o),
(199,602,o),
(309,602,cs),
(460,602,o),
(559,540,o),
(559,435,cs),
(559,371,o),
(520,319,o),
(451,319,cs),
(400,319,o),
(362,345,o),
(306,346,cs),
(261,346,o),
(240,326,o),
(240,299,cs),
(240,272,o),
(261,251,o),
(306,251,cs),
(433,252,o),
(497,208,o),
(497,122,cs),
(497,31,o),
(408,-18,o),
(276,-17,cs),
(189,-16,o),
(152,-7,o),
(125,6,cs),
(79,27,o),
(69,53,o),
(77,72,cs),
(84,91,o),
(106,112,o),
(141,94,cs),
(185,72,o),
(243,67,o),
(280,69,cs),
(342,72,o),
(359,87,o),
(359,110,cs),
(359,127,o),
(342,145,o),
(301,145,c)
);
}
);
width = 589;
}
);
unicode = 115;
},
{
glyphname = sacute;
lastChange = "2023-11-16 22:13:59 +0000";
layers = (
{
anchors = (
{
name = top;
pos = (335,886);
}
);
layerId = "49F060A0-2273-4F54-8B81-08E0B15B03EC";
shapes = (
{
ref = s;
},
{
closed = 1;
nodes = (
(345,665,o),
(292,640,o),
(248,634,cs),
(218,630,o),
(189,632,o),
(176,657,cs),
(160,689,o),
(180,713,o),
(220,733,cs),
(285,766,o),
(290,819,o),
(336,845,cs),
(366,862,o),
(401,857,o),
(426,824,cs),
(457,783,o),
(438,735,o),
(385,695,cs)
);
}
);
width = 589;
}
);
unicode = 347;
},
{
glyphname = scaron;
lastChange = "2023-11-16 22:13:59 +0000";
layers = (
{
anchors = (
{
name = top;
pos = (305,884);
}
);
layerId = "49F060A0-2273-4F54-8B81-08E0B15B03EC";
shapes = (
{
ref = s;
},
{
closed = 1;
nodes = (
(315,787,o),
(325,796,o),
(343,809,cs),
(364,824,o),
(388,842,o),
(401,852,cs),
(435,876,o),
(460,894,o),
(479,876,cs),
(494,860,o),
(480,841,o),
(462,803,cs),
(449,778,o),
(432,746,o),
(412,711,cs),
(385,663,o),
(349,633,o),
(305,633,cs),
(261,633,o),
(225,663,o),
(198,711,cs),
(178,746,o),
(161,778,o),
(148,803,cs),
(130,841,o),
(116,860,o),
(131,876,cs),
(150,894,o),
(175,876,o),
(209,852,c),
(262,813,ls),
(286,796,o),
(295,787,o),
(305,787,cs)
);
}
);
width = 589;
}
);
unicode = 353;
},
{
glyphname = scedilla;
lastChange = "2023-11-16 22:13:59 +0000";
layers = (
{
layerId = "49F060A0-2273-4F54-8B81-08E0B15B03EC";
shapes = (
{
ref = s;
},
{
closed = 1;
nodes = (
(339,-107,o),
(338,-94,o),
(334,-82,cs),
(318,-32,o),
(264,-8,o),
(236,-26,cs),
(226,-33,o),
(213,-46,o),
(213,-66,cs),
(213,-81,o),
(221,-89,o),
(231,-94,cs),
(242,-100,o),
(255,-102,o),
(264,-108,cs),
(269,-112,o),
(273,-118,o),
(273,-126,cs),
(273,-136,o),
(262,-144,o),
(237,-144,cs),
(224,-144,o),
(216,-149,o),
(216,-160,cs),
(216,-174,o),
(228,-177,o),
(248,-177,cs),
(265,-177,o),
(286,-175,o),
(302,-169,cs),
(324,-160,o),
(339,-144,o),
(339,-115,c)
);
}
);
width = 589;
}
);
unicode = 351;
},
{
glyphname = scommaaccent;
lastChange = "2023-11-16 22:13:59 +0000";
layers = (
{
anchors = (
{
name = bottom;
pos = (450,-103);
}
);
layerId = "49F060A0-2273-4F54-8B81-08E0B15B03EC";
shapes = (
{
ref = s;
},
{
closed = 1;
nodes = (
(268,-223,o),
(215,-248,o),
(171,-254,cs),
(141,-258,o),
(112,-256,o),
(99,-231,cs),
(83,-199,o),
(103,-175,o),
(143,-155,cs),
(208,-122,o),
(213,-69,o),
(259,-43,cs),
(289,-26,o),
(324,-31,o),
(349,-64,cs),
(380,-105,o),
(361,-153,o),
(308,-193,cs)
);
}
);
width = 589;
}
);
unicode = 537;
},
{
glyphname = germandbls;
lastChange = "2023-11-16 22:13:59 +0000";
layers = (
{
layerId = "49F060A0-2273-4F54-8B81-08E0B15B03EC";
shapes = (
{
closed = 1;
nodes = (
(341,66,o),
(370,66,o),
(316,66,c),
(283,66,o),
(265,48,o),
(265,25,cs),
(265,1,o),
(283,-16,o),
(316,-16,c),
(363,-16,o),
(341,-16,o),
(373,-16,c),
(428,-16,o),
(475,-16,o),
(505,3,cs),
(538,25,o),
(544,65,o),
(544,101,cs),
(544,151,o),
(526,188,o),
(488,191,c),
(481,191,o),
(481,198,o),
(488,198,c),
(559,198,o),
(561,341,o),
(561,401,cs),
(561,500,o),
(539,610,o),
(370,610,cs),
(270,610,o),
(279,609,o),
(157,609,cs),
(73,609,o),
(14,560,o),
(14,421,cs),
(14,321,o),
(44,142,o),
(71,58,cs),
(87,6,o),
(105,-18,o),
(141,-18,cs),
(180,-18,o),
(202,12,o),
(214,58,cs),
(232,132,o),
(226,245,o),
(234,294,cs),
(249,377,o),
(322,377,o),
(362,377,cs),
(400,377,o),
(429,368,o),
(429,326,cs),
(429,307,o),
(420,293,o),
(401,284,c),
(366,265,o),
(350,242,o),
(350,208,c),
(350,183,o),
(366,164,o),
(405,134,c),
(414,127,o),
(420,119,o),
(420,109,c),
(420,84,o),
(419,66,o),
(370,66,c)
);
}
);
width = 586;
}
);
unicode = 223;
},
{
color = 10;
glyphname = t;
lastChange = "2023-11-16 22:13:59 +0000";
layers = (
{
layerId = "49F060A0-2273-4F54-8B81-08E0B15B03EC";
shapes = (
{
closed = 1;
nodes = (
(403,603,o),
(416,594,o),
(429,594,cs),
(444,594,o),
(403,594,o),
(465,594,cs),
(508,594,o),
(531,571,o),
(531,541,cs),
(531,511,o),
(508,488,o),
(465,488,cs),
(360,488,o),
(401,488,o),
(386,488,cs),
(373,488,o),
(363,481,o),
(358,469,cs),
(352,456,o),
(347,444,o),
(342,432,cs),
(215,130,o),
(334,99,o),
(382,99,cs),
(410,99,o),
(438,100,o),
(459,100,cs),
(494,100,o),
(515,77,o),
(515,50,cs),
(515,-3,o),
(422,-15,o),
(376,-14,cs),
(321,-13,o),
(279,-3,o),
(243,20,cs),
(128,95,o),
(28,275,o),
(28,494,cs),
(28,711,o),
(141,811,o),
(258,811,cs),
(339,811,o),
(418,759,o),
(418,671,cs),
(418,644,o),
(411,626,o),
(407,615,cs)
);
}
);
width = 529;
}
);
unicode = 116;
},
{
glyphname = tcaron;
lastChange = "2023-11-16 22:13:59 +0000";
layers = (
{
anchors = (
{
name = top;
pos = (581,811);
}
);
layerId = "49F060A0-2273-4F54-8B81-08E0B15B03EC";
shapes = (
{
ref = t;
},
{
closed = 1;
nodes = (
(562,655,o),
(528,654,o),
(528,626,cs),
(528,594,o),
(566,585,o),
(589,585,cs),
(659,585,o),
(717,635,o),
(717,715,cs),
(717,794,o),
(679,811,o),
(646,811,cs),
(619,811,o),
(595,795,o),
(595,764,cs),
(595,752,o),
(601,722,o),
(601,709,cs),
(601,692,o),
(593,682,o),
(583,673,cs)
);
}
);
width = 730;
}
);
unicode = 357;
},
{
glyphname = tcommaaccent;
lastChange = "2023-11-16 22:13:59 +0000";
layers = (
{
anchors = (
{
name = bottom;
pos = (269,-38);
}
);
layerId = "49F060A0-2273-4F54-8B81-08E0B15B03EC";
shapes = (
{
ref = t;
},
{
closed = 1;
nodes = (
(328,-226,o),
(275,-251,o),
(231,-257,cs),
(201,-261,o),
(172,-259,o),
(159,-234,cs),
(143,-202,o),
(163,-178,o),
(203,-158,cs),
(268,-125,o),
(273,-72,o),
(319,-46,cs),
(349,-29,o),
(384,-34,o),
(409,-67,cs),
(440,-108,o),
(421,-156,o),
(368,-196,cs)
);
}
);
width = 529;
}
);
unicode = 539;
},
{
color = 10;
glyphname = u;
lastChange = "2023-11-16 22:13:59 +0000";
layers = (
{
guides = (
{
pos = (-719,175);
}
);
layerId = "49F060A0-2273-4F54-8B81-08E0B15B03EC";
shapes = (
{
closed = 1;
nodes = (
(108,615,o),
(25,519,o),
(25,372,cs),
(25,274,o),
(62,168,o),
(124,92,cs),
(171,34,o),
(231,-11,o),
(299,-11,cs),
(352,-11,o),
(399,12,o),
(430,53,cs),
(436,61,o),
(443,68,o),
(453,68,cs),
(464,68,o),
(472,62,o),
(475,53,cs),
(488,13,o),
(508,-11,o),
(543,-11,cs),
(580,-11,o),
(599,16,o),
(614,65,cs),
(633,126,o),
(672,304,o),
(672,423,cs),
(672,556,o),
(624,613,o),
(545,613,cs),
(464,613,o),
(418,554,o),
(418,421,cs),
(418,342,o),
(434,258,o),
(447,191,cs),
(448,188,o),
(448,185,o),
(448,180,cs),
(448,176,o),
(448,172,o),
(446,167,cs),
(437,142,o),
(412,133,o),
(393,133,cs),
(352,133,o),
(310,173,o),
(310,274,cs),
(310,370,o),
(348,462,o),
(348,516,cs),
(348,579,o),
(295,615,o),
(233,615,cs)
);
}
);
width = 705;
}
);
unicode = 117;
},
{
glyphname = uacute;
lastChange = "2023-11-16 22:13:59 +0000";
layers = (
{
layerId = "49F060A0-2273-4F54-8B81-08E0B15B03EC";
shapes = (
{
ref = u;
},
{
closed = 1;
nodes = (
(412,700,o),
(359,675,o),
(315,669,cs),
(285,665,o),
(256,667,o),
(243,692,cs),
(227,724,o),
(247,748,o),
(287,768,cs),
(352,801,o),
(357,854,o),
(403,880,cs),
(433,897,o),
(468,892,o),
(493,859,cs),
(524,818,o),
(505,770,o),
(452,730,cs)
);
}
);
width = 705;
}
);
unicode = 250;
},
{
glyphname = ubreve;
lastChange = "2023-11-16 22:13:59 +0000";
layers = (
{
anchors = (
{
name = top;
pos = (347,884);
}
);
layerId = "49F060A0-2273-4F54-8B81-08E0B15B03EC";
shapes = (
{
ref = u;
},
{
closed = 1;
nodes = (
(240,641,o),
(160,677,o),
(132,744,cs),
(107,806,o),
(126,863,o),
(178,880,cs),
(211,892,o),
(243,876,o),
(254,845,cs),
(260,828,o),
(262,802,o),
(268,780,cs),
(285,719,o),
(322,707,o),
(371,707,cs),
(419,707,o),
(455,719,o),
(472,780,cs),
(480,810,o),
(482,830,o),
(486,845,cs),
(496,876,o),
(527,891,o),
(561,880,cs),
(614,863,o),
(633,806,o),
(608,743,cs),
(580,675,o),
(496,641,o),
(371,641,cs)
);
}
);
width = 705;
}
);
unicode = 365;
},
{
glyphname = ucircumflex;
lastChange = "2023-11-16 22:13:59 +0000";
layers = (
{
anchors = (
{
name = top;
pos = (355,884);
}
);
layerId = "49F060A0-2273-4F54-8B81-08E0B15B03EC";
shapes = (
{
ref = u;
},
{
closed = 1;
nodes = (
(342,730,o),
(333,721,o),
(309,704,cs),
(256,665,l),
(222,641,o),
(197,623,o),
(178,641,cs),
(163,657,o),
(177,676,o),
(195,714,cs),
(208,739,o),
(225,771,o),
(245,806,cs),
(272,854,o),
(308,884,o),
(352,884,cs),
(396,884,o),
(432,854,o),
(459,806,cs),
(479,771,o),
(496,739,o),
(509,714,cs),
(527,676,o),
(541,657,o),
(526,641,cs),
(507,623,o),
(482,641,o),
(448,665,cs),
(435,675,o),
(411,693,o),
(390,708,cs),
(372,721,o),
(362,730,o),
(352,730,cs)
);
}
);
width = 705;
}
);
unicode = 251;
},
{
glyphname = udieresis;
lastChange = "2023-11-16 22:13:59 +0000";
layers = (
{
layerId = "49F060A0-2273-4F54-8B81-08E0B15B03EC";
shapes = (
{
ref = u;
},
{
closed = 1;
nodes = (
(199,693,o),
(229,664,o),
(275,664,cs),
(321,664,o),
(351,693,o),
(351,738,cs),
(351,782,o),
(321,810,o),
(275,810,cs),
(229,810,o),
(199,782,o),
(199,738,cs)
);
},
{
closed = 1;
nodes = (
(395,693,o),
(425,664,o),
(471,664,cs),
(517,664,o),
(547,693,o),
(547,738,cs),
(547,782,o),
(517,810,o),
(471,810,cs),
(425,810,o),
(395,782,o),
(395,738,cs)
);
}
);
width = 705;
}
);
unicode = 252;
},
{
glyphname = ugrave;
lastChange = "2023-11-16 22:13:59 +0000";
layers = (
{
anchors = (
{
name = top;
pos = (557,853);
}
);
layerId = "49F060A0-2273-4F54-8B81-08E0B15B03EC";
shapes = (
{
ref = u;
},
{
closed = 1;
nodes = (
(240,770,o),
(221,818,o),
(252,859,cs),
(277,892,o),
(312,897,o),
(342,880,cs),
(388,854,o),
(393,801,o),
(458,768,cs),
(498,748,o),
(518,724,o),
(502,692,cs),
(489,667,o),
(460,665,o),
(430,669,cs),
(386,675,o),
(333,700,o),
(293,730,cs)
);
}
);
width = 705;
}
);
unicode = 249;
},
{
glyphname = uhungarumlaut;
lastChange = "2023-11-16 22:13:59 +0000";
layers = (
{
anchors = (
{
name = top;
pos = (367,884);
}
);
layerId = "49F060A0-2273-4F54-8B81-08E0B15B03EC";
shapes = (
{
ref = u;
},
{
closed = 1;
nodes = (
(394,840,o),
(397,801,o),
(355,755,cs),
(319,715,o),
(281,689,o),
(260,675,cs),
(211,643,o),
(189,638,o),
(172,652,cs),
(156,667,o),
(159,690,o),
(186,742,cs),
(198,764,o),
(220,805,o),
(256,845,cs),
(297,891,o),
(336,892,o),
(365,866,cs)
);
},
{
closed = 1;
nodes = (
(600,840,o),
(602,801,o),
(561,755,cs),
(525,715,o),
(486,689,o),
(466,675,cs),
(417,643,o),
(394,637,o),
(378,652,cs),
(361,667,o),
(365,689,o),
(392,742,cs),
(403,764,o),
(425,804,o),
(461,845,cs),
(503,891,o),
(542,892,o),
(571,866,cs)
);
}
);
width = 705;
}
);
unicode = 369;
},
{
glyphname = umacron;
lastChange = "2023-11-16 22:13:59 +0000";
layers = (
{
anchors = (
{
name = top;
pos = (323,830);
}
);
layerId = "49F060A0-2273-4F54-8B81-08E0B15B03EC";
shapes = (
{
ref = u;
},
{
closed = 1;
nodes = (
(170,666,o),
(132,699,o),
(132,746,cs),
(132,791,o),
(168,827,o),
(296,827,cs),
(403,827,o),
(488,813,o),
(510,809,cs),
(596,792,o),
(623,777,o),
(623,751,cs),
(623,725,o),
(593,705,o),
(516,689,cs),
(480,681,o),
(394,666,o),
(300,666,cs)
);
}
);
width = 705;
}
);
unicode = 363;
},
{
glyphname = uogonek;
lastChange = "2023-11-16 22:13:59 +0000";
layers = (
{
layerId = "49F060A0-2273-4F54-8B81-08E0B15B03EC";
shapes = (
{
ref = u;
},
{
closed = 1;
nodes = (
(662,-129,o),
(674,-114,o),
(669,-97,cs),
(664,-81,o),
(646,-75,o),
(623,-81,cs),
(585,-92,o),
(560,-86,o),
(552,-58,cs),
(545,-35,o),
(558,-20,o),
(570,-3,cs),
(592,29,o),
(598,64,o),
(553,88,cs),
(520,105,o),
(475,81,o),
(451,31,cs),
(417,-42,o),
(446,-112,o),
(509,-142,cs),
(549,-163,o),
(590,-161,o),
(641,-139,c)
);
}
);
width = 683;
}
);
unicode = 371;
},
{
glyphname = uring;
lastChange = "2023-11-16 22:13:59 +0000";
layers = (
{
anchors = (
{
name = top;
pos = (382,863);
}
);
layerId = "49F060A0-2273-4F54-8B81-08E0B15B03EC";
shapes = (
{
ref = u;
},
{
closed = 1;
nodes = (
(441,648,o),
(494,699,o),
(494,766,cs),
(494,830,o),
(441,881,o),
(380,881,cs),
(319,881,o),
(263,830,o),
(263,765,cs),
(263,699,o),
(319,648,o),
(378,648,cs)
);
},
{
closed = 1;
nodes = (
(353,682,o),
(336,705,o),
(336,735,cs),
(336,766,o),
(353,789,o),
(378,789,cs),
(404,789,o),
(421,766,o),
(421,735,cs),
(421,705,o),
(404,682,o),
(378,682,cs)
);
}
);
width = 705;
}
);
unicode = 367;
},
{
color = 10;
glyphname = v;
lastChange = "2023-11-16 22:13:59 +0000";
layers = (
{
layerId = "49F060A0-2273-4F54-8B81-08E0B15B03EC";
shapes = (
{
closed = 1;
nodes = (
(442,-14,o),
(537,27,o),
(594,88,cs),
(661,159,o),
(729,260,o),
(729,368,cs),
(729,515,o),
(646,612,o),
(521,612,cs),
(459,612,o),
(406,575,o),
(406,512,cs),
(406,458,o),
(444,366,o),
(444,270,cs),
(444,159,o),
(402,138,o),
(377,138,cs),
(352,138,o),
(310,159,o),
(310,270,cs),
(310,366,o),
(348,458,o),
(348,512,cs),
(348,575,o),
(294,612,o),
(232,612,cs),
(107,612,o),
(24,515,o),
(24,368,cs),
(24,260,o),
(92,159,o),
(159,88,cs),
(216,27,o),
(312,-14,o),
(377,-14,cs)
);
}
);
width = 754;
}
);
unicode = 118;
},
{
color = 10;
glyphname = w;
lastChange = "2023-11-16 22:13:59 +0000";
layers = (
{
layerId = "49F060A0-2273-4F54-8B81-08E0B15B03EC";
shapes = (
{
closed = 1;
nodes = (
(640,458,o),
(673,407,o),
(677,305,cs),
(681,281,o),
(677,235,o),
(681,213,c),
(683,204,o),
(688,184,o),
(719,184,cs),
(753,184,o),
(761,204,o),
(763,211,cs),
(772,234,o),
(772,253,o),
(756,319,cs),
(744,377,o),
(697,446,o),
(697,491,cs),
(697,578,o),
(765,611,o),
(840,611,cs),
(957,611,o),
(1053,549,o),
(1053,368,cs),
(1053,196,o),
(902,-13,o),
(723,-13,cs),
(655,-13,o),
(628,6,o),
(622,49,cs),
(619,70,o),
(615,191,o),
(615,205,cs),
(615,237,o),
(608,271,o),
(539,271,cs),
(470,271,o),
(463,237,o),
(463,205,cs),
(463,191,o),
(459,70,o),
(456,49,cs),
(450,6,o),
(423,-13,o),
(355,-13,cs),
(176,-13,o),
(25,196,o),
(25,368,cs),
(25,549,o),
(121,611,o),
(238,611,cs),
(313,611,o),
(381,578,o),
(381,491,cs),
(381,446,o),
(334,377,o),
(322,319,cs),
(306,253,o),
(306,234,o),
(315,211,cs),
(317,204,o),
(325,184,o),
(359,184,cs),
(390,184,o),
(395,204,o),
(397,213,c),
(401,235,o),
(397,281,o),
(401,305,cs),
(405,407,o),
(438,458,o),
(539,458,cs)
);
}
);
width = 1078;
}
);
unicode = 119;
},
{
glyphname = wacute;
lastChange = "2023-11-16 22:13:59 +0000";
layers = (
{
layerId = "49F060A0-2273-4F54-8B81-08E0B15B03EC";
shapes = (
{
ref = w;
},
{
closed = 1;
nodes = (
(580,700,o),
(527,675,o),
(483,669,cs),
(453,665,o),
(424,667,o),
(411,692,cs),
(395,724,o),
(415,748,o),
(455,768,cs),
(520,801,o),
(525,854,o),
(571,880,cs),
(601,897,o),
(636,892,o),
(661,859,cs),
(692,818,o),
(673,770,o),
(620,730,cs)
);
}
);
width = 1090;
}
);
unicode = 7811;
},
{
glyphname = wcircumflex;
lastChange = "2023-11-16 22:13:59 +0000";
layers = (
{
anchors = (
{
name = top;
pos = (545,881);
}
);
layerId = "49F060A0-2273-4F54-8B81-08E0B15B03EC";
shapes = (
{
ref = w;
},
{
closed = 1;
nodes = (
(531,731,o),
(522,722,o),
(498,705,cs),
(445,666,l),
(411,642,o),
(386,624,o),
(367,642,cs),
(352,658,o),
(366,677,o),
(384,715,cs),
(397,740,o),
(414,772,o),
(434,807,cs),
(461,855,o),
(497,885,o),
(541,885,cs),
(585,885,o),
(621,855,o),
(648,807,cs),
(668,772,o),
(685,740,o),
(698,715,cs),
(716,677,o),
(730,658,o),
(715,642,cs),
(696,624,o),
(671,642,o),
(637,666,cs),
(624,676,o),
(600,694,o),
(579,709,cs),
(561,722,o),
(551,731,o),
(541,731,cs)
);
}
);
width = 1090;
}
);
unicode = 373;
},
{
glyphname = wdieresis;
lastChange = "2023-11-16 22:13:59 +0000";
layers = (
{
anchors = (
{
name = top;
pos = (538,809);
}
);
layerId = "49F060A0-2273-4F54-8B81-08E0B15B03EC";
shapes = (
{
ref = w;
},
{
closed = 1;
nodes = (
(364,694,o),
(394,665,o),
(440,665,cs),
(486,665,o),
(516,694,o),
(516,739,cs),
(516,783,o),
(486,811,o),
(440,811,cs),
(394,811,o),
(364,783,o),
(364,739,cs)
);
},
{
closed = 1;
nodes = (
(560,694,o),
(590,665,o),
(636,665,cs),
(682,665,o),
(712,694,o),
(712,739,cs),
(712,783,o),
(682,811,o),
(636,811,cs),
(590,811,o),
(560,783,o),
(560,739,cs)
);
}
);
width = 1090;
}
);
unicode = 7813;
},
{
glyphname = wgrave;
lastChange = "2023-11-16 22:13:59 +0000";
layers = (
{
layerId = "49F060A0-2273-4F54-8B81-08E0B15B03EC";
shapes = (
{
ref = w;
},
{
closed = 1;
nodes = (
(430,770,o),
(411,818,o),
(442,859,cs),
(467,892,o),
(502,897,o),
(532,880,cs),
(578,854,o),
(583,801,o),
(648,768,cs),
(688,748,o),
(708,724,o),
(692,692,cs),
(679,667,o),
(650,665,o),
(620,669,cs),
(576,675,o),
(523,700,o),
(483,730,cs)
);
}
);
width = 1090;
}
);
unicode = 7809;
},
{
color = 10;
glyphname = x;
lastChange = "2023-11-16 22:13:59 +0000";
layers = (
{
layerId = "49F060A0-2273-4F54-8B81-08E0B15B03EC";
shapes = (
{
closed = 0;
nodes = (
(-1234,592,l)
);
},
{
closed = 0;
nodes = (
(404,127,l)
);
},
{
closed = 1;
nodes = (
(397,134,o),
(401,132,o),
(404,127,cs),
(423,98,o),
(432,89,o),
(454,69,cs),
(509,19,o),
(579,-7,o),
(643,-14,cs),
(679,-19,o),
(699,-14,o),
(708,1,cs),
(717,15,o),
(717,36,o),
(694,55,cs),
(667,77,o),
(615,92,o),
(567,144,cs),
(546,166,o),
(526,196,o),
(526,230,cs),
(526,267,o),
(550,306,o),
(615,320,cs),
(687,337,o),
(738,386,o),
(738,463,cs),
(738,556,o),
(664,615,o),
(588,615,cs),
(526,615,o),
(473,575,o),
(446,538,cs),
(439,529,o),
(427,510,o),
(421,492,cs),
(415,477,o),
(415,470,o),
(414,462,cs),
(413,450,o),
(404,443,o),
(393,443,cs),
(382,443,o),
(373,450,o),
(372,462,cs),
(372,470,o),
(371,477,o),
(366,492,cs),
(359,510,o),
(347,529,o),
(340,538,cs),
(313,575,o),
(260,615,o),
(198,615,cs),
(123,615,o),
(48,556,o),
(48,463,cs),
(48,386,o),
(99,337,o),
(171,320,cs),
(237,306,o),
(260,267,o),
(260,230,cs),
(260,196,o),
(240,166,o),
(220,144,cs),
(171,92,o),
(119,77,o),
(92,55,cs),
(69,36,o),
(69,15,o),
(78,1,cs),
(88,-14,o),
(107,-19,o),
(144,-14,cs),
(207,-7,o),
(277,19,o),
(333,69,cs),
(354,89,o),
(363,98,o),
(382,127,cs),
(385,132,o),
(389,134,o),
(393,134,cs)
);
}
);
width = 783;
}
);
unicode = 120;
},
{
color = 10;
glyphname = y;
lastChange = "2023-11-16 22:13:59 +0000";
layers = (
{
layerId = "49F060A0-2273-4F54-8B81-08E0B15B03EC";
shapes = (
{
closed = 1;
nodes = (
(544,614,ls),
(463,614,o),
(417,549,o),
(417,428,cs),
(417,331,o),
(447,188,o),
(447,179,cs),
(447,175,o),
(447,171,o),
(445,166,cs),
(436,141,o),
(411,132,o),
(392,132,cs),
(351,132,o),
(309,172,o),
(309,273,cs),
(309,369,o),
(347,461,o),
(347,515,cs),
(347,574,o),
(302,614,o),
(227,614,cs),
(108,614,o),
(25,513,o),
(25,367,cs),
(25,271,o),
(61,168,o),
(124,89,cs),
(172,29,o),
(231,-11,o),
(304,-11,cs),
(371,-11,o),
(406,23,o),
(427,50,cs),
(434,58,o),
(437,65,o),
(448,65,cs),
(458,65,o),
(467,59,o),
(469,45,cs),
(470,36,o),
(471,21,o),
(471,10,cs),
(471,-17,o),
(465,-38,o),
(451,-53,cs),
(436,-69,o),
(416,-76,o),
(399,-76,cs),
(390,-76,o),
(386,-74,o),
(383,-73,cs),
(377,-71,o),
(367,-68,o),
(357,-68,cs),
(330,-68,o),
(310,-91,o),
(310,-118,cs),
(310,-137,o),
(320,-151,o),
(344,-169,cs),
(364,-184,o),
(390,-199,o),
(435,-199,cs),
(641,-199,o),
(687,117,o),
(687,332,cs),
(687,505,o),
(657,614,o),
(544,614,cs),
(543,614,l)
);
}
);
width = 720;
}
);
unicode = 121;
},
{
glyphname = yacute;
lastChange = "2023-11-16 22:13:59 +0000";
layers = (
{
layerId = "49F060A0-2273-4F54-8B81-08E0B15B03EC";
shapes = (
{
ref = y;
},
{
closed = 1;
nodes = (
(429,699,o),
(376,674,o),
(332,668,cs),
(302,664,o),
(273,666,o),
(260,691,cs),
(244,723,o),
(264,747,o),
(304,767,cs),
(369,800,o),
(374,853,o),
(420,879,cs),
(450,896,o),
(485,891,o),
(510,858,cs),
(541,817,o),
(522,769,o),
(469,729,cs)
);
}
);
width = 720;
}
);
unicode = 253;
},
{
glyphname = ycircumflex;
lastChange = "2023-11-16 22:13:59 +0000";
layers = (
{
anchors = (
{
name = top;
pos = (377,885);
}
);
layerId = "49F060A0-2273-4F54-8B81-08E0B15B03EC";
shapes = (
{
ref = y;
},
{
closed = 1;
nodes = (
(368,730,o),
(359,721,o),
(335,704,cs),
(282,665,l),
(248,641,o),
(223,623,o),
(204,641,cs),
(189,657,o),
(203,676,o),
(221,714,cs),
(234,739,o),
(251,771,o),
(271,806,cs),
(298,854,o),
(334,884,o),
(378,884,cs),
(422,884,o),
(458,854,o),
(485,806,cs),
(505,771,o),
(522,739,o),
(535,714,cs),
(553,676,o),
(567,657,o),
(552,641,cs),
(533,623,o),
(508,641,o),
(474,665,cs),
(461,675,o),
(437,693,o),
(416,708,cs),
(398,721,o),
(388,730,o),
(378,730,cs)
);
}
);
width = 720;
}
);
unicode = 375;
},
{
glyphname = ydieresis;
lastChange = "2023-11-16 22:13:59 +0000";
layers = (
{
anchors = (
{
name = top;
pos = (378,811);
}
);
layerId = "49F060A0-2273-4F54-8B81-08E0B15B03EC";
shapes = (
{
ref = y;
},
{
closed = 1;
nodes = (
(204,692,o),
(234,663,o),
(280,663,cs),
(326,663,o),
(356,692,o),
(356,737,cs),
(356,781,o),
(326,809,o),
(280,809,cs),
(234,809,o),
(204,781,o),
(204,737,cs)
);
},
{
closed = 1;
nodes = (
(400,692,o),
(430,663,o),
(476,663,cs),
(522,663,o),
(552,692,o),
(552,737,cs),
(552,781,o),
(522,809,o),
(476,809,cs),
(430,809,o),
(400,781,o),
(400,737,cs)
);
}
);
width = 720;
}
);
unicode = 255;
},
{
glyphname = ygrave;
lastChange = "2023-11-16 22:13:59 +0000";
layers = (
{
layerId = "49F060A0-2273-4F54-8B81-08E0B15B03EC";
shapes = (
{
ref = y;
},
{
closed = 1;
nodes = (
(251,770,o),
(232,818,o),
(263,859,cs),
(288,892,o),
(323,897,o),
(353,880,cs),
(399,854,o),
(404,801,o),
(469,768,cs),
(509,748,o),
(529,724,o),
(513,692,cs),
(500,667,o),
(471,665,o),
(441,669,cs),
(397,675,o),
(344,700,o),
(304,730,cs)
);
}
);
width = 720;
}
);
unicode = 7923;
},
{
color = 10;
glyphname = z;
lastChange = "2023-11-16 22:13:59 +0000";
layers = (
{
layerId = "49F060A0-2273-4F54-8B81-08E0B15B03EC";
shapes = (
{
closed = 1;
nodes = (
(264,64,o),
(264,79,cs),
(264,87,o),
(270,91,o),
(282,97,cs),
(380,143,o),
(441,182,o),
(495,262,cs),
(527,309,o),
(536,368,o),
(536,406,cs),
(536,521,o),
(453,614,o),
(272,614,cs),
(120,614,o),
(13,549,o),
(13,442,cs),
(13,376,o),
(54,323,o),
(122,323,cs),
(171,323,o),
(225,351,o),
(274,351,cs),
(318,351,o),
(344,329,o),
(344,294,cs),
(344,274,o),
(336,262,o),
(323,248,cs),
(303,227,o),
(286,218,o),
(259,203,cs),
(126,129,o),
(108,102,o),
(108,68,cs),
(108,-5,o),
(190,-16,o),
(291,-16,cs),
(366,-16,o),
(399,-10,o),
(411,-7,cs),
(434,-1,o),
(450,10,o),
(450,31,cs),
(450,54,o),
(432,70,o),
(399,70,cs),
(387,70,o),
(344,68,o),
(331,67,cs),
(319,67,o)
);
}
);
width = 549;
}
);
unicode = 122;
},
{
glyphname = zacute;
lastChange = "2023-11-16 22:13:59 +0000";
layers = (
{
anchors = (
{
name = top;
pos = (432,859);
}
);
layerId = "49F060A0-2273-4F54-8B81-08E0B15B03EC";
shapes = (
{
ref = z;
},
{
closed = 1;
nodes = (
(317,700,o),
(264,675,o),
(220,669,cs),
(190,665,o),
(161,667,o),
(148,692,cs),
(132,724,o),
(152,748,o),
(192,768,cs),
(257,801,o),
(262,854,o),
(308,880,cs),
(338,897,o),
(373,892,o),
(398,859,cs),
(429,818,o),
(410,770,o),
(357,730,cs)
);
}
);
width = 549;
}
);
unicode = 378;
},
{
glyphname = zcaron;
lastChange = "2023-11-16 22:13:59 +0000";
layers = (
{
anchors = (
{
name = top;
pos = (276,878);
}
);
layerId = "49F060A0-2273-4F54-8B81-08E0B15B03EC";
shapes = (
{
ref = z;
},
{
closed = 1;
nodes = (
(287,788,o),
(297,797,o),
(315,810,cs),
(336,825,o),
(360,843,o),
(373,853,cs),
(407,877,o),
(432,895,o),
(451,877,cs),
(466,861,o),
(452,842,o),
(434,804,cs),
(421,779,o),
(404,747,o),
(384,712,cs),
(357,664,o),
(321,634,o),
(277,634,cs),
(233,634,o),
(197,664,o),
(170,712,cs),
(150,747,o),
(133,779,o),
(120,804,cs),
(102,842,o),
(88,861,o),
(103,877,cs),
(122,895,o),
(147,877,o),
(181,853,c),
(234,814,ls),
(258,797,o),
(267,788,o),
(277,788,cs)
);
}
);
width = 591;
}
);
unicode = 382;
},
{
glyphname = zdotaccent;
lastChange = "2023-11-16 22:13:59 +0000";
layers = (
{
anchors = (
{
name = top;
pos = (264,883);
}
);
layerId = "49F060A0-2273-4F54-8B81-08E0B15B03EC";
shapes = (
{
ref = z;
},
{
closed = 1;
nodes = (
(188,766,o),
(218,737,o),
(264,737,cs),
(310,737,o),
(340,766,o),
(340,811,cs),
(340,855,o),
(310,883,o),
(264,883,cs),
(218,883,o),
(188,855,o),
(188,811,cs)
);
}
);
width = 549;
}
);
unicode = 380;
},
{
glyphname = ordfeminine;
lastChange = "2023-11-16 22:13:59 +0000";
layers = (
{
layerId = "49F060A0-2273-4F54-8B81-08E0B15B03EC";
shapes = (
{
closed = 1;
nodes = (
(179,690,o),
(178,687,o),
(173,687,cs),
(170,687,o),
(167,690,o),
(165,692,cs),
(153,708,o),
(133,717,o),
(106,717,cs),
(60,717,o),
(29,681,o),
(29,623,cs),
(29,588,o),
(43,549,o),
(66,521,cs),
(83,499,o),
(105,484,o),
(131,483,cs),
(151,482,o),
(169,491,o),
(180,506,cs),
(182,509,o),
(185,512,o),
(189,512,cs),
(193,512,o),
(196,509,o),
(197,506,cs),
(202,492,o),
(209,482,o),
(223,482,cs),
(237,482,o),
(244,492,o),
(249,511,cs),
(259,544,o),
(271,600,o),
(271,654,cs),
(271,695,o),
(248,717,o),
(223,717,c),
(207,717,o),
(192,710,o),
(182,694,cs)
);
},
{
closed = 1;
nodes = (
(148,538,o),
(138,555,o),
(138,568,cs),
(136,581,o),
(144,589,o),
(160,589,cs),
(174,590,o),
(180,582,o),
(183,566,cs),
(186,548,o),
(177,538,o),
(164,538,cs)
);
}
);
width = 316;
}
);
unicode = 170;
},
{
glyphname = ordmasculine;
lastChange = "2023-11-16 22:13:59 +0000";
layers = (
{
layerId = "49F060A0-2273-4F54-8B81-08E0B15B03EC";
shapes = (
{
closed = 1;
nodes = (
(203,484,o),
(256,535,o),
(256,602,cs),
(256,666,o),
(203,717,o),
(142,717,cs),
(81,717,o),
(25,666,o),
(25,601,cs),
(25,535,o),
(81,484,o),
(140,484,cs)
);
},
{
closed = 1;
nodes = (
(115,518,o),
(98,541,o),
(98,571,cs),
(98,602,o),
(115,625,o),
(140,625,cs),
(166,625,o),
(183,602,o),
(183,571,cs),
(183,541,o),
(166,518,o),
(140,518,cs)
);
}
);
width = 281;
}
);
unicode = 186;
},
{
color = 10;
glyphname = zero;
lastChange = "2023-11-16 22:13:59 +0000";
layers = (
{
layerId = "49F060A0-2273-4F54-8B81-08E0B15B03EC";
shapes = (
{
closed = 1;
nodes = (
(20,105,o),
(145,-16,o),
(325,-16,cs),
(511,-16,o),
(629,106,o),
(629,389,cs),
(629,685,o),
(553,784,o),
(325,784,cs),
(96,784,o),
(20,685,o),
(20,389,c)
);
},
{
closed = 1;
nodes = (
(408,123,o),
(378,94,o),
(323,94,cs),
(267,94,o),
(240,123,o),
(240,261,cs),
(240,401,o),
(266,432,o),
(324,432,cs),
(385,432,o),
(408,400,o),
(408,262,cs)
);
}
);
width = 650;
}
);
unicode = 48;
},
{
color = 10;
glyphname = one;
lastChange = "2023-11-16 22:13:59 +0000";
layers = (
{
layerId = "49F060A0-2273-4F54-8B81-08E0B15B03EC";
shapes = (
{
closed = 1;
nodes = (
(491,784,o),
(565,708,o),
(565,570,cs),
(565,385,o),
(526,196,o),
(495,80,cs),
(477,19,o),
(453,-16,o),
(407,-16,cs),
(361,-16,o),
(337,19,o),
(319,80,cs),
(300,153,o),
(268,350,o),
(266,356,cs),
(264,370,o),
(262,373,o),
(253,366,cs),
(238,354,o),
(227,343,o),
(211,333,cs),
(186,319,o),
(164,310,o),
(141,308,cs),
(101,307,o),
(67,331,o),
(34,387,cs),
(-33,502,o),
(8,633,o),
(179,733,c),
(240,763,o),
(313,784,o),
(407,784,cs)
);
}
);
width = 598;
}
);
unicode = 49;
},
{
color = 10;
glyphname = two;
lastChange = "2023-11-16 22:13:59 +0000";
layers = (
{
layerId = "49F060A0-2273-4F54-8B81-08E0B15B03EC";
shapes = (
{
closed = 0;
nodes = (
(283,98,l)
);
},
{
closed = 1;
nodes = (
(36,494,o),
(54,455,o),
(89,436,cs),
(109,427,o),
(133,424,o),
(162,424,cs),
(220,424,o),
(287,436,o),
(338,436,cs),
(380,436,o),
(411,427,o),
(411,381,cs),
(411,357,o),
(399,347,o),
(382,333,cs),
(333,291,o),
(291,254,o),
(253,221,cs),
(212,187,o),
(163,145,o),
(146,131,cs),
(114,105,o),
(116,76,o),
(116,64,cs),
(116,-7,o),
(145,-13,o),
(203,-13,cs),
(292,-13,ls),
(338,-13,o),
(364,-13,o),
(426,-13,cs),
(468,-13,o),
(491,10,o),
(491,39,cs),
(491,69,o),
(468,92,o),
(426,92,cs),
(364,92,o),
(338,92,o),
(293,92,c),
(279,91,o),
(274,103,o),
(283,109,c),
(295,118,o),
(305,129,o),
(320,140,cs),
(358,169,o),
(440,221,o),
(487,260,cs),
(565,329,o),
(582,439,o),
(582,520,cs),
(582,648,o),
(553,787,o),
(335,787,cs),
(137,786,o),
(36,692,o),
(36,559,cs)
);
}
);
width = 603;
}
);
unicode = 50;
},
{
color = 10;
glyphname = three;
lastChange = "2023-11-16 22:13:59 +0000";
layers = (
{
layerId = "49F060A0-2273-4F54-8B81-08E0B15B03EC";
shapes = (
{
closed = 1;
nodes = (
(368,-13,o),
(449,-15,o),
(493,12,cs),
(536,38,o),
(545,91,o),
(545,137,cs),
(544,200,o),
(519,247,o),
(471,251,cs),
(462,252,o),
(462,261,o),
(471,261,cs),
(567,261,o),
(565,442,o),
(564,519,cs),
(565,647,o),
(536,786,o),
(319,786,cs),
(122,786,o),
(21,691,o),
(21,558,cs),
(21,494,o),
(39,455,o),
(74,436,cs),
(94,427,o),
(118,424,o),
(147,424,cs),
(204,424,o),
(271,436,o),
(322,436,cs),
(364,436,o),
(395,427,o),
(396,379,cs),
(396,359,o),
(385,344,o),
(365,333,cs),
(326,312,o),
(309,286,o),
(309,249,cs),
(309,222,o),
(327,201,o),
(369,168,cs),
(379,160,o),
(385,150,o),
(385,139,cs),
(385,112,o),
(360,92,o),
(300,92,cs),
(256,92,o),
(249,92,o),
(187,92,cs),
(146,92,o),
(123,69,o),
(123,39,cs),
(123,10,o),
(146,-13,o),
(187,-13,cs),
(249,-13,o),
(256,-13,o),
(297,-13,cs)
);
}
);
width = 587;
}
);
unicode = 51;
},
{
color = 10;
glyphname = four;
lastChange = "2023-11-16 22:13:59 +0000";
layers = (
{
layerId = "49F060A0-2273-4F54-8B81-08E0B15B03EC";
shapes = (
{
closed = 1;
nodes = (
(29,374,o),
(26,303,o),
(26,277,cs),
(26,152,o),
(96,152,o),
(226,152,cs),
(397,152,ls),
(401,152,o),
(404,151,o),
(405,147,c),
(424,35,o),
(455,-15,o),
(493,-15,cs),
(532,-15,o),
(557,38,o),
(581,147,cs),
(582,151,o),
(585,153,o),
(589,153,cs),
(648,153,o),
(656,183,o),
(656,213,cs),
(656,232,o),
(653,265,o),
(604,265,cs),
(599,265,o),
(598,269,o),
(598,271,cs),
(609,345,o),
(617,404,o),
(617,475,cs),
(617,476,ls),
(617,597,o),
(598,673,o),
(573,719,cs),
(544,771,o),
(507,785,o),
(478,785,cs),
(401,785,o),
(432,785,o),
(397,785,cs),
(333,785,o),
(304,769,o),
(276,730,cs),
(167,581,o),
(97,480,o),
(59,418,c)
);
},
{
closed = 1;
nodes = (
(295,268,o),
(283,273,o),
(279,282,cs),
(278,284,o),
(277,288,o),
(277,293,cs),
(277,299,o),
(279,306,o),
(287,321,cs),
(303,351,o),
(321,376,o),
(353,376,cs),
(372,376,o),
(385,367,o),
(385,322,cs),
(385,268,o),
(367,268,o),
(348,268,cs),
(312,268,ls)
);
},
{
closed = 0;
nodes = (
(604,265,l)
);
}
);
width = 689;
}
);
unicode = 52;
},
{
color = 10;
glyphname = five;
lastChange = "2023-11-16 22:13:59 +0000";
layers = (
{
layerId = "49F060A0-2273-4F54-8B81-08E0B15B03EC";
shapes = (
{
closed = 1;
nodes = (
(223,326,o),
(228,321,o),
(261,317,cs),
(368,304,o),
(507,285,o),
(505,189,cs),
(505,175,o),
(503,158,o),
(496,127,cs),
(490,100,o),
(472,27,o),
(413,-3,cs),
(388,-16,o),
(363,-17,o),
(292,-17,cs),
(166,-17,ls),
(129,-17,o),
(108,6,o),
(108,35,cs),
(108,65,o),
(129,88,o),
(166,88,cs),
(336,88,ls),
(370,88,o),
(380,99,o),
(380,131,cs),
(380,157,o),
(373,183,o),
(240,183,cs),
(214,183,o),
(140,183,o),
(107,205,cs),
(73,228,o),
(52,295,o),
(38,440,cs),
(32,501,o),
(29,563,o),
(29,601,cs),
(29,623,o),
(30,658,o),
(31,671,cs),
(35,728,o),
(69,745,o),
(95,755,cs),
(149,776,o),
(219,784,o),
(282,784,cs),
(486,784,o),
(587,700,o),
(587,554,cs),
(587,491,o),
(568,451,o),
(533,434,cs),
(513,424,o),
(486,422,o),
(462,422,cs),
(403,422,o),
(345,434,o),
(293,434,cs),
(263,434,o),
(248,430,o),
(235,415,cs),
(225,403,o),
(223,389,o),
(223,368,cs)
);
}
);
width = 600;
}
);
unicode = 53;
},
{
color = 10;
glyphname = six;
lastChange = "2023-11-16 22:13:59 +0000";
layers = (
{
layerId = "49F060A0-2273-4F54-8B81-08E0B15B03EC";
shapes = (
{
closed = 1;
nodes = (
(236,91,o),
(202,97,o),
(202,143,cs),
(202,175,o),
(205,207,o),
(293,193,cs),
(349,184,o),
(387,175,o),
(384,143,cs),
(378,88,o),
(350,91,o),
(293,91,cs)
);
},
{
closed = 1;
nodes = (
(284,-14,ls),
(348,-14,o),
(377,-14,o),
(405,0,cs),
(464,30,o),
(482,103,o),
(488,130,cs),
(495,161,o),
(497,179,o),
(497,191,cs),
(497,288,o),
(368,305,o),
(276,317,cs),
(221,324,o),
(215,328,o),
(215,369,cs),
(215,393,o),
(217,406,o),
(227,418,cs),
(240,434,o),
(260,437,o),
(286,437,cs),
(347,437,o),
(395,421,o),
(459,421,cs),
(486,421,o),
(509,424,o),
(528,433,cs),
(563,450,o),
(582,490,o),
(582,553,cs),
(582,699,o),
(481,787,o),
(275,787,cs),
(209,787,o),
(137,778,o),
(87,758,cs),
(62,748,o),
(22,729,o),
(21,652,cs),
(20,572,o),
(20,476,o),
(27,385,cs),
(35,279,o),
(68,111,o),
(94,52,cs),
(107,23,o),
(121,-14,o),
(182,-14,cs)
);
}
);
width = 603;
}
);
unicode = 54;
},
{
color = 10;
glyphname = seven;
lastChange = "2023-11-16 22:13:59 +0000";
layers = (
{
layerId = "49F060A0-2273-4F54-8B81-08E0B15B03EC";
shapes = (
{
closed = 1;
nodes = (
(199,46,o),
(400,195,o),
(445,231,cs),
(476,256,o),
(497,287,o),
(512,321,cs),
(541,389,o),
(544,466,o),
(544,520,cs),
(544,648,o),
(515,787,o),
(297,787,cs),
(99,786,o),
(-2,692,o),
(-2,559,cs),
(-2,494,o),
(16,455,o),
(51,436,cs),
(71,427,o),
(95,424,o),
(124,424,cs),
(182,424,o),
(249,436,o),
(300,436,cs),
(342,436,o),
(373,434,o),
(373,388,cs),
(373,364,o),
(361,347,o),
(344,333,cs),
(236,241,o),
(157,170,o),
(80,93,cs),
(51,64,o),
(51,31,o),
(71,10,cs),
(92,-11,o),
(119,-7,o),
(155,19,c)
);
}
);
width = 587;
}
);
unicode = 55;
},
{
color = 10;
glyphname = eight;
lastChange = "2023-11-16 22:13:59 +0000";
layers = (
{
layerId = "49F060A0-2273-4F54-8B81-08E0B15B03EC";
shapes = (
{
closed = 1;
nodes = (
(242,90,o),
(215,97,o),
(215,138,c),
(215,177,o),
(242,184,o),
(295,184,cs),
(348,184,o),
(375,177,o),
(375,138,c),
(375,97,o),
(348,90,o),
(295,90,cs)
);
},
{
closed = 1;
nodes = (
(231,322,o),
(199,331,o),
(199,379,c),
(199,427,o),
(231,436,o),
(295,436,cs),
(359,436,o),
(392,427,o),
(392,379,c),
(392,331,o),
(359,322,o),
(295,322,cs)
);
},
{
closed = 1;
nodes = (
(344,-9,o),
(428,-11,o),
(472,17,cs),
(515,44,o),
(523,100,o),
(523,139,cs),
(523,194,o),
(507,236,o),
(473,250,cs),
(465,253,o),
(464,260,o),
(473,260,cs),
(570,260,o),
(568,442,o),
(568,520,cs),
(568,649,o),
(539,789,o),
(298,789,cs),
(57,789,o),
(28,649,o),
(28,520,cs),
(28,442,o),
(26,260,o),
(123,260,cs),
(132,260,o),
(131,253,o),
(123,250,cs),
(89,236,o),
(73,194,o),
(73,139,cs),
(73,100,o),
(81,44,o),
(124,17,cs),
(168,-11,o),
(252,-9,o),
(298,-9,cs)
);
},
{
closed = 0;
nodes = (
(392,379,l)
);
}
);
width = 596;
}
);
unicode = 56;
},
{
color = 10;
glyphname = nine;
lastChange = "2023-11-16 22:13:59 +0000";
layers = (
{
layerId = "49F060A0-2273-4F54-8B81-08E0B15B03EC";
shapes = (
{
closed = 1;
nodes = (
(230,318,o),
(192,321,o),
(192,375,cs),
(192,424,o),
(224,432,o),
(288,432,cs),
(352,432,o),
(385,423,o),
(385,375,c),
(384,318,o),
(344,318,o),
(288,318,c)
);
},
{
closed = 0;
nodes = (
(385,375,l)
);
},
{
closed = 1;
nodes = (
(184,94,l),
(143,94,o),
(120,71,o),
(120,41,cs),
(120,12,o),
(143,-11,o),
(184,-11,cs),
(246,-11,o),
(253,-11,o),
(333,-11,cs),
(406,-11,o),
(455,25,o),
(489,79,cs),
(561,195,o),
(561,395,o),
(561,510,cs),
(561,642,o),
(532,785,o),
(293,785,cs),
(56,785,o),
(21,645,o),
(21,540,cs),
(21,479,o),
(33,406,o),
(50,356,cs),
(71,294,o),
(105,259,o),
(194,253,cs),
(208,252,o),
(228,251,o),
(246,251,cs),
(292,251,o),
(307,252,o),
(335,256,cs),
(357,259,o),
(367,269,o),
(370,272,cs),
(379,281,o),
(385,279,o),
(385,263,cs),
(385,228,o),
(376,182,o),
(371,164,cs),
(352,99,o),
(337,94,o),
(292,94,cs)
);
}
);
width = 574;
}
);
unicode = 57;
},
{
color = 10;
glyphname = period;
lastChange = "2023-11-16 22:13:59 +0000";
layers = (
{
anchors = (
{
name = _bottom;
pos = (109,-6);
}
);
layerId = "49F060A0-2273-4F54-8B81-08E0B15B03EC";
shapes = (
{
closed = 1;
nodes = (
(141,-9,o),
(169,17,o),
(169,53,cs),
(169,90,o),
(141,117,o),
(102,117,cs),
(63,117,o),
(35,90,o),
(35,53,cs),
(35,17,o),
(63,-9,o),
(102,-9,cs)
);
}
);
width = 204;
}
);
unicode = 46;
},
{
color = 10;
glyphname = comma;
lastChange = "2023-11-16 22:13:59 +0000";
layers = (
{
anchors = (
{
name = _top;
pos = (87,112);
}
);
layerId = "49F060A0-2273-4F54-8B81-08E0B15B03EC";
shapes = (
{
closed = 1;
nodes = (
(3,18,o),
(11,-11,o),
(34,-20,cs),
(51,-27,o),
(54,-43,o),
(40,-58,cs),
(21,-79,o),
(15,-103,o),
(26,-119,cs),
(37,-135,o),
(61,-139,o),
(92,-119,cs),
(137,-89,o),
(157,-30,o),
(157,22,cs),
(157,86,o),
(132,118,o),
(83,118,cs),
(30,118,o),
(3,91,o),
(3,39,cs)
);
}
);
width = 160;
}
);
unicode = 44;
},
{
color = 10;
glyphname = colon;
lastChange = "2023-11-16 22:13:59 +0000";
layers = (
{
layerId = "49F060A0-2273-4F54-8B81-08E0B15B03EC";
shapes = (
{
closed = 1;
nodes = (
(3,234,o),
(53,196,o),
(132,196,cs),
(214,196,o),
(264,234,o),
(264,303,cs),
(264,372,o),
(214,408,o),
(132,408,cs),
(53,408,o),
(3,372,o),
(3,303,cs)
);
},
{
closed = 1;
nodes = (
(174,0,o),
(202,26,o),
(202,62,cs),
(202,99,o),
(174,126,o),
(135,126,cs),
(96,126,o),
(68,99,o),
(68,62,cs),
(68,26,o),
(96,0,o),
(135,0,cs)
);
}
);
width = 267;
}
);
unicode = 58;
},
{
color = 10;
glyphname = semicolon;
lastChange = "2023-11-16 22:13:59 +0000";
layers = (
{
layerId = "49F060A0-2273-4F54-8B81-08E0B15B03EC";
shapes = (
{
closed = 1;
nodes = (
(55,18,o),
(63,-11,o),
(86,-20,cs),
(103,-27,o),
(106,-43,o),
(92,-58,cs),
(73,-79,o),
(67,-103,o),
(78,-119,cs),
(89,-135,o),
(113,-139,o),
(144,-119,cs),
(189,-89,o),
(209,-30,o),
(209,22,cs),
(209,86,o),
(184,118,o),
(135,118,cs),
(82,118,o),
(55,91,o),
(55,39,cs)
);
},
{
closed = 1;
nodes = (
(3,237,o),
(53,199,o),
(132,199,cs),
(214,199,o),
(264,237,o),
(264,306,cs),
(264,375,o),
(214,411,o),
(132,411,cs),
(53,411,o),
(3,375,o),
(3,306,cs)
);
}
);
width = 267;
}
);
unicode = 59;
},
{
color = 10;
glyphname = ellipsis;
lastChange = "2023-11-16 22:13:59 +0000";
layers = (
{
layerId = "49F060A0-2273-4F54-8B81-08E0B15B03EC";
shapes = (
{
closed = 1;
nodes = (
(129,-1,o),
(157,25,o),
(157,61,cs),
(157,98,o),
(129,125,o),
(90,125,cs),
(51,125,o),
(23,98,o),
(23,61,cs),
(23,25,o),
(51,-1,o),
(90,-1,cs)
);
},
{
closed = 1;
nodes = (
(327,-3,o),
(355,23,o),
(355,59,cs),
(355,96,o),
(327,123,o),
(288,123,cs),
(249,123,o),
(221,96,o),
(221,59,cs),
(221,23,o),
(249,-3,o),
(288,-3,cs)
);
},
{
closed = 1;
nodes = (
(525,-3,o),
(553,23,o),
(553,59,cs),
(553,96,o),
(525,123,o),
(486,123,cs),
(447,123,o),
(419,96,o),
(419,59,cs),
(419,23,o),
(447,-3,o),
(486,-3,cs)
);
}
);
width = 586;
}
);
unicode = 8230;
},
{
color = 10;
glyphname = exclam;
lastChange = "2023-11-16 22:13:59 +0000";
layers = (
{
layerId = "49F060A0-2273-4F54-8B81-08E0B15B03EC";
shapes = (
{
closed = 1;
nodes = (
(186,-1,o),
(214,25,o),
(214,61,cs),
(214,98,o),
(186,125,o),
(147,125,cs),
(108,125,o),
(80,98,o),
(80,61,cs),
(80,25,o),
(108,-1,o),
(147,-1,cs)
);
},
{
closed = 1;
nodes = (
(184,188,o),
(203,214,o),
(217,260,cs),
(242,346,o),
(272,488,o),
(272,627,cs),
(272,729,o),
(215,786,o),
(147,786,cs),
(80,786,o),
(22,729,o),
(22,627,cs),
(22,488,o),
(52,346,o),
(78,260,cs),
(92,214,o),
(111,188,o),
(147,188,cs)
);
}
);
width = 287;
}
);
unicode = 33;
},
{
glyphname = exclamdown;
lastChange = "2023-11-16 22:13:59 +0000";
layers = (
{
layerId = "49F060A0-2273-4F54-8B81-08E0B15B03EC";
shapes = (
{
closed = 1;
nodes = (
(223,758,o),
(193,784,o),
(143,784,cs),
(93,784,o),
(63,758,o),
(63,710,cs),
(63,661,o),
(93,634,o),
(143,634,cs),
(193,634,o),
(223,661,o),
(223,710,cs)
);
},
{
closed = 1;
nodes = (
(181,-1,o),
(200,25,o),
(214,71,cs),
(239,157,o),
(269,299,o),
(269,438,cs),
(269,540,o),
(212,597,o),
(144,597,cs),
(77,597,o),
(19,540,o),
(19,438,cs),
(19,299,o),
(49,157,o),
(75,71,cs),
(89,25,o),
(108,-1,o),
(144,-1,cs)
);
}
);
width = 287;
}
);
unicode = 161;
},
{
color = 10;
glyphname = question;
lastChange = "2023-11-16 22:13:59 +0000";
layers = (
{
layerId = "49F060A0-2273-4F54-8B81-08E0B15B03EC";
shapes = (
{
closed = 1;
nodes = (
(293,357,o),
(321,417,o),
(321,446,cs),
(321,462,o),
(305,462,o),
(246,462,cs),
(212,462,o),
(133,458,o),
(104,458,cs),
(28,458,o),
(-10,506,o),
(-10,585,cs),
(-10,705,o),
(76,784,o),
(240,784,cs),
(401,784,o),
(494,699,o),
(494,565,cs),
(494,425,o),
(419,309,o),
(321,211,cs),
(293,183,o),
(251,185,o),
(233,205,cs),
(214,226,o),
(226,260,o),
(249,293,cs)
);
},
{
closed = 1;
nodes = (
(313,0,o),
(341,26,o),
(341,62,cs),
(341,99,o),
(313,126,o),
(274,126,cs),
(235,126,o),
(207,99,o),
(207,62,cs),
(207,26,o),
(235,0,o),
(274,0,cs)
);
}
);
width = 560;
}
);
unicode = 63;
},
{
glyphname = questiondown;
lastChange = "2023-11-16 22:13:59 +0000";
layers = (
{
layerId = "49F060A0-2273-4F54-8B81-08E0B15B03EC";
shapes = (
{
closed = 1;
nodes = (
(346,756,o),
(312,786,o),
(256,786,cs),
(199,786,o),
(165,756,o),
(165,700,cs),
(165,646,o),
(199,617,o),
(256,617,cs),
(312,617,o),
(346,646,o),
(346,700,cs)
);
},
{
closed = 1;
nodes = (
(490,-32,o),
(395,-37,o),
(312,-37,cs),
(296,-37,o),
(281,-37,o),
(267,-37,cs),
(106,-37,o),
(13,48,o),
(13,182,cs),
(13,322,o),
(61,425,o),
(142,506,cs),
(169,533,o),
(200,547,o),
(235,547,cs),
(259,547,o),
(285,540,o),
(312,526,cs),
(369,497,o),
(393,460,o),
(393,419,cs),
(393,363,o),
(349,301,o),
(288,241,cs),
(244,198,o),
(158,135,o),
(158,106,cs),
(158,90,o),
(174,90,o),
(233,90,cs),
(267,90,o),
(346,94,o),
(375,94,cs),
(385,94,o),
(396,94,o),
(406,94,cs),
(451,94,o),
(490,90,o),
(490,40,c)
);
}
);
width = 533;
}
);
unicode = 191;
},
{
color = 10;
glyphname = periodcentered;
lastChange = "2023-11-16 22:13:59 +0000";
layers = (
{
anchors = (
{
name = _centered;
pos = (104,396);
}
);
layerId = "49F060A0-2273-4F54-8B81-08E0B15B03EC";
shapes = (
{
closed = 1;
nodes = (
(184,372,o),
(154,399,o),
(104,399,cs),
(54,399,o),
(24,372,o),
(24,323,cs),
(24,275,o),
(54,249,o),
(104,249,cs),
(154,249,o),
(184,275,o),
(184,323,cs)
);
}
);
width = 207;
}
);
unicode = 183;
},
{
color = 10;
glyphname = bullet;
lastChange = "2023-11-16 22:13:59 +0000";
layers = (
{
layerId = "49F060A0-2273-4F54-8B81-08E0B15B03EC";
shapes = (
{
closed = 1;
nodes = (
(245,405,o),
(203,442,o),
(134,442,cs),
(65,442,o),
(23,405,o),
(23,336,cs),
(23,270,o),
(65,234,o),
(134,234,cs),
(203,234,o),
(245,270,o),
(245,336,cs)
);
}
);
width = 268;
}
);
unicode = 8226;
},
{
color = 10;
glyphname = asterisk;
lastChange = "2023-11-16 22:13:59 +0000";
layers = (
{
layerId = "49F060A0-2273-4F54-8B81-08E0B15B03EC";
shapes = (
{
closed = 1;
nodes = (
(103,498,o),
(78,487,o),
(53,472,cs),
(28,457,o),
(23,449,o),
(29,435,cs),
(34,422,o),
(46,419,o),
(72,427,cs),
(106,437,o),
(137,447,o),
(166,456,cs),
(172,458,o),
(173,454,o),
(174,448,cs),
(180,423,o),
(187,399,o),
(193,378,cs),
(203,341,o),
(220,321,o),
(248,321,cs),
(277,321,o),
(293,341,o),
(304,378,cs),
(310,398,o),
(316,422,o),
(322,448,cs),
(323,452,o),
(325,457,o),
(331,455,cs),
(361,446,o),
(391,436,o),
(424,426,cs),
(450,418,o),
(463,421,o),
(467,434,cs),
(474,447,o),
(468,456,o),
(443,471,cs),
(417,486,o),
(393,501,o),
(369,516,cs),
(367,517,o),
(362,519,o),
(369,522,cs),
(382,527,o),
(394,531,o),
(404,536,cs),
(470,565,o),
(481,598,o),
(467,631,cs),
(453,664,o),
(421,689,o),
(358,650,cs),
(350,645,o),
(349,653,o),
(349,657,cs),
(349,663,o),
(349,668,o),
(349,673,cs),
(349,754,o),
(303,800,o),
(248,800,cs),
(195,800,o),
(148,754,o),
(148,673,cs),
(148,667,o),
(148,661,o),
(148,655,cs),
(148,651,o),
(147,645,o),
(140,648,cs),
(75,677,o),
(43,663,o),
(29,630,cs),
(15,597,o),
(26,564,o),
(92,535,cs),
(101,531,o),
(112,527,o),
(123,522,cs),
(129,520,o),
(130,516,o),
(125,512,cs)
);
}
);
width = 496;
}
);
unicode = 42;
},
{
color = 10;
glyphname = numbersign;
lastChange = "2023-11-16 22:13:59 +0000";
layers = (
{
layerId = "49F060A0-2273-4F54-8B81-08E0B15B03EC";
shapes = (
{
closed = 1;
nodes = (
(153,-21,o),
(166,-14,o),
(190,23,cs),
(211,55,o),
(248,120,o),
(275,165,cs),
(279,171,o),
(283,174,o),
(290,175,cs),
(319,178,o),
(272,174,o),
(408,184,cs),
(416,185,o),
(420,181,o),
(417,171,cs),
(402,130,o),
(387,88,o),
(375,53,cs),
(361,13,o),
(367,-2,o),
(385,-11,cs),
(405,-21,o),
(420,-13,o),
(442,22,cs),
(487,94,o),
(506,129,o),
(542,190,cs),
(545,195,o),
(551,198,o),
(556,198,cs),
(617,198,o),
(677,210,o),
(748,218,cs),
(784,222,o),
(799,233,o),
(799,257,cs),
(799,278,o),
(787,287,o),
(748,291,cs),
(623,305,ls),
(614,306,o),
(612,311,o),
(616,318,cs),
(617,319,o),
(632,346,o),
(690,452,cs),
(693,457,o),
(695,458,o),
(706,459,cs),
(757,463,o),
(786,468,o),
(866,477,cs),
(900,481,o),
(916,492,o),
(916,516,cs),
(916,543,o),
(896,546,o),
(865,550,cs),
(810,557,o),
(789,558,o),
(759,562,cs),
(755,563,o),
(748,563,o),
(752,571,cs),
(764,594,ls),
(812,687,o),
(791,735,o),
(744,757,cs),
(698,779,o),
(649,763,o),
(606,667,cs),
(597,646,o),
(576,601,o),
(573,592,cs),
(570,584,o),
(569,581,o),
(559,581,cs),
(549,581,o),
(523,583,o),
(515,584,cs),
(508,585,o),
(512,591,o),
(513,593,cs),
(558,686,o),
(539,736,o),
(492,758,cs),
(446,779,o),
(397,763,o),
(353,668,cs),
(345,650,o),
(335,627,o),
(326,604,cs),
(324,599,o),
(321,598,o),
(310,598,cs),
(291,598,o),
(262,600,o),
(245,600,cs),
(143,600,o),
(110,565,o),
(110,514,cs),
(110,462,o),
(145,426,o),
(243,426,cs),
(247,426,o),
(254,424,o),
(250,414,cs),
(245,401,o),
(235,370,o),
(227,346,cs),
(224,337,o),
(218,338,o),
(213,338,cs),
(180,338,o),
(153,341,o),
(125,341,cs),
(26,341,o),
(-7,305,o),
(-7,255,cs),
(-7,203,o),
(28,167,o),
(126,167,cs),
(134,167,o),
(143,167,o),
(152,167,cs),
(157,167,o),
(162,165,o),
(159,157,cs),
(123,53,ls),
(109,13,o),
(115,-2,o),
(133,-11,cs)
);
},
{
closed = 1;
nodes = (
(376,327,ls),
(371,327,o),
(370,330,o),
(373,335,cs),
(388,361,o),
(412,403,o),
(425,428,cs),
(427,431,o),
(429,436,o),
(435,436,cs),
(460,436,o),
(498,441,o),
(507,441,cs),
(513,441,o),
(515,440,o),
(512,433,cs),
(501,403,o),
(490,375,o),
(473,327,cs),
(471,322,o),
(468,320,o),
(463,320,c)
);
}
);
width = 909;
}
);
unicode = 35;
},
{
color = 10;
glyphname = slash;
lastChange = "2023-11-16 22:13:59 +0000";
layers = (
{
layerId = "49F060A0-2273-4F54-8B81-08E0B15B03EC";
shapes = (
{
closed = 1;
nodes = (
(2,-18,o),
(-2,-1,o),
(11,40,c),
(112,332,o),
(198,559,o),
(253,687,cs),
(300,787,o),
(351,804,o),
(400,781,cs),
(449,758,o),
(469,708,o),
(422,608,cs),
(359,483,o),
(241,272,o),
(82,7,c),
(58,-29,o),
(43,-38,o),
(22,-28,cs)
);
}
);
width = 452;
}
);
unicode = 47;
},
{
color = 10;
glyphname = backslash;
lastChange = "2023-11-16 22:13:59 +0000";
layers = (
{
layerId = "49F060A0-2273-4F54-8B81-08E0B15B03EC";
shapes = (
{
closed = 1;
nodes = (
(409,-36,o),
(394,-27,o),
(370,9,c),
(211,274,o),
(93,485,o),
(30,610,cs),
(-17,710,o),
(3,760,o),
(52,783,cs),
(101,806,o),
(152,789,o),
(199,689,cs),
(254,561,o),
(340,334,o),
(441,42,c),
(454,1,o),
(450,-16,o),
(430,-26,cs)
);
}
);
width = 452;
}
);
unicode = 92;
},
{
glyphname = periodcentered.loclCAT;
lastChange = "2023-11-16 22:13:59 +0000";
layers = (
{
layerId = "49F060A0-2273-4F54-8B81-08E0B15B03EC";
shapes = (
{
closed = 1;
nodes = (
(368,338,o),
(338,365,o),
(288,365,cs),
(238,365,o),
(208,338,o),
(208,289,cs),
(208,241,o),
(238,215,o),
(288,215,cs),
(338,215,o),
(368,241,o),
(368,289,cs)
);
}
);
width = 586;
}
);
},
{
glyphname = periodcentered.loclCAT.case;
lastChange = "2023-11-16 22:13:59 +0000";
layers = (
{
layerId = "49F060A0-2273-4F54-8B81-08E0B15B03EC";
shapes = (
{
closed = 1;
nodes = (
(369,340,o),
(339,367,o),
(289,367,cs),
(239,367,o),
(209,340,o),
(209,291,cs),
(209,243,o),
(239,217,o),
(289,217,cs),
(339,217,o),
(369,243,o),
(369,291,cs)
);
}
);
width = 586;
}
);
},
{
color = 10;
glyphname = hyphen;
lastChange = "2023-11-16 22:13:59 +0000";
layers = (
{
layerId = "49F060A0-2273-4F54-8B81-08E0B15B03EC";
shapes = (
{
closed = 1;
nodes = (
(298,248,o),
(243,248,o),
(294,248,cs),
(329,248,o),
(348,267,o),
(348,291,cs),
(348,316,o),
(329,335,o),
(294,335,cs),
(243,335,o),
(298,335,o),
(261,335,cs),
(224,335,o),
(115,335,o),
(64,335,cs),
(29,335,o),
(10,316,o),
(10,291,cs),
(10,267,o),
(29,248,o),
(64,248,cs),
(115,248,o),
(224,248,o),
(261,248,cs)
);
}
);
width = 360;
}
);
unicode = 45;
},
{
color = 10;
glyphname = endash;
lastChange = "2023-11-16 22:13:59 +0000";
layers = (
{
layerId = "49F060A0-2273-4F54-8B81-08E0B15B03EC";
shapes = (
{
closed = 1;
nodes = (
(278,239,o),
(364,252,o),
(400,259,cs),
(476,274,o),
(506,292,o),
(506,315,cs),
(506,339,o),
(479,352,o),
(394,368,cs),
(372,371,o),
(288,384,o),
(181,384,cs),
(54,384,o),
(19,352,o),
(19,311,cs),
(19,268,o),
(56,239,o),
(185,239,cs)
);
}
);
width = 525;
}
);
unicode = 8211;
},
{
color = 10;
glyphname = emdash;
lastChange = "2023-11-16 22:13:59 +0000";
layers = (
{
layerId = "49F060A0-2273-4F54-8B81-08E0B15B03EC";
shapes = (
{
closed = 1;
nodes = (
(422,225,o),
(548,239,o),
(601,247,cs),
(713,263,o),
(757,283,o),
(757,308,cs),
(757,335,o),
(717,349,o),
(592,366,cs),
(560,370,o),
(437,384,o),
(280,384,cs),
(94,384,o),
(43,349,o),
(43,304,cs),
(43,257,o),
(97,225,o),
(286,225,cs)
);
}
);
width = 800;
}
);
unicode = 8212;
},
{
color = 10;
glyphname = underscore;
lastChange = "2023-11-16 22:13:59 +0000";
layers = (
{
layerId = "49F060A0-2273-4F54-8B81-08E0B15B03EC";
shapes = (
{
closed = 1;
nodes = (
(285,-180,o),
(371,-167,o),
(407,-160,cs),
(483,-145,o),
(513,-127,o),
(513,-104,cs),
(513,-80,o),
(486,-67,o),
(401,-51,cs),
(379,-48,o),
(295,-35,o),
(188,-35,cs),
(61,-35,o),
(26,-67,o),
(26,-108,cs),
(26,-151,o),
(63,-180,o),
(192,-180,cs)
);
}
);
width = 526;
}
);
unicode = 95;
},
{
color = 10;
glyphname = parenleft;
lastChange = "2023-11-16 22:13:59 +0000";
layers = (
{
layerId = "49F060A0-2273-4F54-8B81-08E0B15B03EC";
shapes = (
{
closed = 1;
nodes = (
(222,370,o),
(199,266,o),
(199,186,cs),
(199,92,o),
(231,32,o),
(248,-6,cs),
(264,-39,o),
(272,-57,o),
(272,-70,cs),
(272,-79,o),
(268,-89,o),
(260,-95,cs),
(254,-99,o),
(248,-101,o),
(241,-101,cs),
(217,-101,o),
(187,-78,o),
(151,-26,cs),
(77,83,o),
(34,204,o),
(34,350,cs),
(34,417,o),
(42,489,o),
(61,566,cs),
(98,724,o),
(153,799,o),
(240,799,cs),
(305,799,o),
(362,755,o),
(362,675,cs),
(362,628,o),
(321,562,o),
(295,507,c)
);
}
);
width = 377;
}
);
unicode = 40;
},
{
color = 10;
glyphname = parenright;
lastChange = "2023-11-16 22:13:59 +0000";
layers = (
{
layerId = "49F060A0-2273-4F54-8B81-08E0B15B03EC";
shapes = (
{
closed = 1;
nodes = (
(54,562,o),
(13,628,o),
(13,675,cs),
(13,755,o),
(70,799,o),
(135,799,cs),
(222,799,o),
(277,724,o),
(314,566,cs),
(333,489,o),
(341,417,o),
(341,350,cs),
(341,204,o),
(298,83,o),
(224,-26,cs),
(188,-78,o),
(158,-101,o),
(134,-101,cs),
(127,-101,o),
(121,-99,o),
(115,-95,cs),
(107,-89,o),
(103,-79,o),
(103,-70,cs),
(103,-57,o),
(111,-39,o),
(127,-6,cs),
(144,32,o),
(176,92,o),
(176,186,cs),
(176,266,o),
(153,370,o),
(80,507,c)
);
}
);
width = 375;
}
);
unicode = 41;
},
{
color = 10;
glyphname = braceleft;
lastChange = "2023-11-16 22:13:59 +0000";
layers = (
{
layerId = "49F060A0-2273-4F54-8B81-08E0B15B03EC";
shapes = (
{
closed = 1;
nodes = (
(188,364,o),
(245,401,o),
(245,468,cs),
(245,509,o),
(231,538,o),
(231,569,cs),
(231,583,o),
(233,600,o),
(265,600,cs),
(325,600,o),
(356,626,o),
(356,696,cs),
(356,777,o),
(304,807,o),
(201,807,cs),
(118,807,o),
(70,767,o),
(70,676,cs),
(70,590,o),
(102,553,o),
(102,499,cs),
(102,463,o),
(87,444,o),
(72,432,cs),
(25,395,o),
(10,372,o),
(10,354,cs),
(10,332,o),
(25,317,o),
(72,280,cs),
(83,271,o),
(102,253,o),
(102,215,cs),
(102,162,o),
(65,129,o),
(65,51,cs),
(65,-62,o),
(140,-96,o),
(219,-96,cs),
(253,-96,o),
(288,-89,o),
(310,-80,cs),
(347,-63,o),
(363,-38,o),
(347,-22,cs),
(336,-11,o),
(318,-13,o),
(293,-30,cs),
(248,-63,o),
(214,-48,o),
(196,-38,cs),
(167,-22,o),
(164,11,o),
(164,45,cs),
(164,114,o),
(195,157,o),
(208,216,cs),
(220,273,o),
(200,305,o),
(167,338,cs),
(166,339,o),
(166,340,o),
(166,341,cs),
(166,342,o),
(167,343,o),
(168,344,cs)
);
}
);
width = 367;
}
);
unicode = 123;
},
{
color = 10;
glyphname = braceright;
lastChange = "2023-11-16 22:13:59 +0000";
layers = (
{
layerId = "49F060A0-2273-4F54-8B81-08E0B15B03EC";
shapes = (
{
closed = 1;
nodes = (
(200,343,o),
(201,342,o),
(201,341,cs),
(201,340,o),
(201,339,o),
(200,338,cs),
(167,305,o),
(147,273,o),
(159,216,cs),
(172,157,o),
(203,114,o),
(203,45,cs),
(203,11,o),
(200,-22,o),
(171,-38,cs),
(153,-48,o),
(119,-63,o),
(74,-30,cs),
(49,-13,o),
(31,-11,o),
(20,-22,cs),
(4,-38,o),
(20,-63,o),
(57,-80,cs),
(79,-89,o),
(114,-96,o),
(148,-96,cs),
(227,-96,o),
(302,-62,o),
(302,51,cs),
(302,129,o),
(265,162,o),
(265,215,cs),
(265,253,o),
(284,271,o),
(295,280,cs),
(342,317,o),
(357,332,o),
(357,354,cs),
(357,372,o),
(342,395,o),
(295,432,cs),
(280,444,o),
(265,463,o),
(265,499,cs),
(265,553,o),
(297,590,o),
(297,676,cs),
(297,767,o),
(249,807,o),
(166,807,cs),
(63,807,o),
(11,777,o),
(11,696,cs),
(11,626,o),
(42,600,o),
(102,600,cs),
(134,600,o),
(136,583,o),
(136,569,cs),
(136,538,o),
(122,509,o),
(122,468,cs),
(122,401,o),
(179,364,o),
(199,344,cs)
);
}
);
width = 367;
}
);
unicode = 125;
},
{
color = 10;
glyphname = bracketleft;
lastChange = "2023-11-16 22:13:59 +0000";
layers = (
{
layerId = "49F060A0-2273-4F54-8B81-08E0B15B03EC";
shapes = (
{
closed = 1;
nodes = (
(264,-60,o),
(255,-75,o),
(237,-83,cs),
(212,-94,o),
(172,-99,o),
(119,-99,cs),
(108,-99,o),
(98,-99,o),
(89,-97,cs),
(75,-92,o),
(66,-83,o),
(63,-74,cs),
(46,-30,o),
(35,255,o),
(35,653,cs),
(35,739,o),
(46,778,o),
(76,794,cs),
(88,801,o),
(112,804,o),
(160,804,cs),
(285,804,o),
(367,770,o),
(367,689,cs),
(367,618,o),
(324,589,o),
(262,587,cs),
(252,587,o),
(249,582,o),
(249,572,cs),
(249,510,o),
(192,162,o),
(192,28,cs),
(192,15,o),
(192,14,o),
(208,11,cs),
(222,8,o),
(229,7,o),
(235,4,cs),
(251,-3,o),
(264,-11,o),
(264,-38,cs)
);
}
);
width = 370;
}
);
unicode = 91;
},
{
color = 10;
glyphname = bracketright;
lastChange = "2023-11-16 22:13:59 +0000";
layers = (
{
layerId = "49F060A0-2273-4F54-8B81-08E0B15B03EC";
shapes = (
{
closed = 1;
nodes = (
(106,-11,o),
(119,-3,o),
(135,4,cs),
(141,7,o),
(148,8,o),
(162,11,cs),
(178,14,o),
(178,15,o),
(178,28,cs),
(178,162,o),
(121,510,o),
(121,572,cs),
(121,582,o),
(118,587,o),
(108,587,cs),
(46,589,o),
(3,618,o),
(3,689,cs),
(3,770,o),
(85,804,o),
(210,804,cs),
(258,804,o),
(282,801,o),
(294,794,cs),
(324,778,o),
(335,739,o),
(335,653,cs),
(335,255,o),
(324,-30,o),
(307,-74,cs),
(304,-83,o),
(295,-92,o),
(281,-97,cs),
(272,-99,o),
(262,-99,o),
(251,-99,cs),
(198,-99,o),
(158,-94,o),
(133,-83,cs),
(115,-75,o),
(106,-60,o),
(106,-38,cs)
);
}
);
width = 370;
}
);
unicode = 93;
},
{
glyphname = quotesinglbase;
lastChange = "2023-11-16 22:13:59 +0000";
layers = (
{
layerId = "49F060A0-2273-4F54-8B81-08E0B15B03EC";
shapes = (
{
closed = 1;
nodes = (
(3,19,o),
(11,-10,o),
(34,-19,cs),
(51,-26,o),
(54,-42,o),
(40,-57,cs),
(21,-78,o),
(15,-102,o),
(26,-118,cs),
(37,-134,o),
(61,-138,o),
(92,-118,cs),
(137,-88,o),
(157,-29,o),
(157,23,cs),
(157,87,o),
(132,119,o),
(83,119,cs),
(30,119,o),
(3,92,o),
(3,40,cs)
);
}
);
width = 181;
}
);
unicode = 8218;
},
{
glyphname = quotedblbase;
lastChange = "2023-11-16 22:13:59 +0000";
layers = (
{
layerId = "49F060A0-2273-4F54-8B81-08E0B15B03EC";
shapes = (
{
closed = 1;
nodes = (
(205,18,o),
(213,-11,o),
(236,-20,cs),
(253,-27,o),
(256,-43,o),
(242,-58,cs),
(223,-79,o),
(217,-103,o),
(228,-119,cs),
(239,-135,o),
(263,-139,o),
(294,-119,cs),
(339,-89,o),
(359,-30,o),
(359,22,cs),
(359,86,o),
(334,118,o),
(285,118,cs),
(232,118,o),
(205,91,o),
(205,39,cs)
);
},
{
closed = 1;
nodes = (
(3,18,o),
(11,-11,o),
(34,-20,cs),
(51,-27,o),
(54,-43,o),
(40,-58,cs),
(21,-79,o),
(15,-103,o),
(26,-119,cs),
(37,-135,o),
(61,-139,o),
(92,-119,cs),
(137,-89,o),
(157,-30,o),
(157,22,cs),
(157,86,o),
(132,118,o),
(83,118,cs),
(30,118,o),
(3,91,o),
(3,39,cs)
);
}
);
width = 383;
}
);
unicode = 8222;
},
